<svg width="62" height="62" viewBox="0 0 62 62" fill="none" xmlns="http://www.w3.org/2000/svg">
<path fill-rule="evenodd" clip-rule="evenodd" d="M35.3046 18.069C34.4589 18.6554 33.5048 19.0675 32.4981 19.2812C31.4914 19.4949 30.4522 19.5059 29.4412 19.3137C28.4302 19.1215 27.4676 18.7298 26.6095 18.1615C25.7515 17.5933 25.0153 16.8598 24.4437 16.0039C23.8722 15.1481 23.4769 14.187 23.2808 13.1767C23.0847 12.1664 23.0918 11.1272 23.3017 10.1197C23.5116 9.11215 23.92 8.15653 24.5032 7.30856C25.0863 6.46059 25.8325 5.73727 26.6983 5.18079C28.4075 4.05184 30.4941 3.64547 32.502 4.05051C34.51 4.45555 36.2759 5.63905 37.4138 7.34231C38.5517 9.04556 38.969 11.13 38.5745 13.1401C38.18 15.1501 37.0058 16.9222 35.3085 18.069H35.3046ZM33.154 8.40479C32.732 8.1012 32.2532 7.88564 31.7462 7.77092C31.2392 7.6562 30.7142 7.64468 30.2026 7.73704C29.691 7.8294 29.2033 8.02375 28.7684 8.30853C28.3334 8.59331 27.9603 8.96268 27.6711 9.39467C27.3819 9.82665 27.1825 10.3124 27.085 10.823C26.9874 11.3336 26.9935 11.8587 27.1031 12.3669C27.2126 12.875 27.4233 13.356 27.7225 13.7811C28.0218 14.2062 28.4035 14.5667 28.845 14.8412C29.6979 15.3593 30.7179 15.5284 31.6924 15.3132C32.6669 15.098 33.5208 14.5151 34.0762 13.686C34.6317 12.8568 34.8458 11.8454 34.674 10.8623C34.5022 9.87919 33.9577 9.00029 33.154 8.40867V8.40479ZM43.2678 8.52104C44.3854 7.7693 45.7301 7.43076 47.0704 7.56373C48.4108 7.69671 49.6628 8.29286 50.6109 9.24954C51.2865 9.93057 51.7846 10.767 52.0617 11.6854C52.3387 12.6038 52.3862 13.5761 52.1999 14.5172C52.0136 15.4582 51.5993 16.3391 50.9932 17.0827C50.3871 17.8263 49.6079 18.4098 48.7238 18.782C47.6619 19.226 46.4917 19.3429 45.363 19.1179C44.2343 18.8928 43.1985 18.336 42.3881 17.5188C41.7791 16.9066 41.3129 16.1674 41.0229 15.354C40.7329 14.5405 40.6263 13.6731 40.7107 12.8137C40.7952 11.9543 41.0685 11.1241 41.5112 10.3827C41.9539 9.64128 42.5551 9.00688 43.2716 8.52491L43.2678 8.52104ZM45.1278 14.7598C45.4916 15.1221 45.9844 15.325 46.4978 15.3239C46.752 15.3233 47.0036 15.2727 47.2383 15.1749C47.473 15.0772 47.6861 14.9341 47.8654 14.754C48.0448 14.5738 48.187 14.3601 48.2837 14.1251C48.3805 13.89 48.4301 13.6381 48.4295 13.3839C48.429 13.1297 48.3784 12.8781 48.2806 12.6434C48.1828 12.4088 48.0398 12.1957 47.8596 12.0163C47.4988 11.6534 47.0111 11.445 46.4995 11.435C46.2439 11.4345 45.9908 11.4847 45.7548 11.5826C45.5187 11.6805 45.3044 11.8242 45.1242 12.0055C44.944 12.1867 44.8016 12.4019 44.7051 12.6385C44.6086 12.8752 44.56 13.1286 44.562 13.3842C44.5632 13.9002 44.7663 14.3953 45.1278 14.7637V14.7598ZM12.3608 48.387H19.3745V52.2814H12.3608C11.1329 52.2703 9.95962 51.7728 9.09801 50.898C8.23308 50.02 7.74864 48.8368 7.74951 47.6043V40.5905C7.22779 40.5731 6.71502 40.4501 6.24216 40.229C5.76929 40.0079 5.34614 39.6932 4.99826 39.304C4.6286 38.9296 4.33849 38.4842 4.14537 37.9948C3.95225 37.5053 3.86012 36.9819 3.87451 36.4559V28.0007C3.88613 26.1717 4.61076 24.424 5.88951 23.1259C7.16438 21.8433 8.88876 21.1109 10.6945 21.0993H17.8245C16.8628 22.2446 16.1383 23.5697 15.6933 24.9975H10.6945C9.90804 25.0201 9.15974 25.3416 8.60201 25.8965C8.05417 26.4598 7.74823 27.2149 7.74951 28.0007V36.6497H11.6245V47.6004C11.6155 47.706 11.6281 47.8123 11.6614 47.9128C11.6947 48.0134 11.748 48.1062 11.8183 48.1855C11.974 48.3059 12.164 48.3737 12.3608 48.3793V48.387ZM40.6483 23.1298C40.0142 22.4896 39.2599 21.9809 38.4286 21.6331C37.5974 21.2853 36.7056 21.1052 35.8045 21.1032H26.1945C24.388 21.1176 22.6607 21.8462 21.3895 23.1298C20.1108 24.4279 19.3861 26.1755 19.3745 28.0045V40.3193C19.369 41.3767 19.7715 42.3954 20.4983 43.1635C20.8466 43.5522 21.2698 43.8665 21.7426 44.0876C22.2154 44.3086 22.7279 44.4319 23.2495 44.45V53.4517C23.2459 54.0661 23.3638 54.6751 23.5966 55.2437C23.8294 55.8123 24.1723 56.3293 24.6058 56.7648C25.3033 57.4158 26.1829 57.8382 27.1245 57.9738H34.8745C35.9644 57.8307 36.963 57.2898 37.6783 56.4551C38.3936 55.6203 38.7751 54.5507 38.7495 53.4517V44.4462C39.2712 44.4287 39.784 44.3057 40.2569 44.0846C40.7297 43.8635 41.1529 43.5488 41.5008 43.1597C41.8701 42.7858 42.1601 42.3411 42.3532 41.8523C42.5463 41.3636 42.6386 40.8408 42.6245 40.3154V28.0007C42.6272 26.1801 41.9179 24.4306 40.6483 23.1259V23.1298ZM38.7495 40.5092H34.8745V53.4517C34.8708 53.6559 34.7873 53.8506 34.642 53.9942C34.5759 54.0724 34.4924 54.1342 34.3983 54.1746C34.3041 54.2149 34.2018 54.2328 34.0995 54.2267H27.8608C27.6583 54.2172 27.4666 54.1326 27.3232 53.9892C27.1799 53.8459 27.0952 53.6542 27.0858 53.4517V40.5092H23.2495V28.0007C23.2495 27.214 23.5556 26.4584 24.102 25.8965C24.6597 25.3416 25.408 25.0201 26.1945 24.9975H35.8045C36.3915 25.0079 36.9627 25.1894 37.448 25.5198C37.9333 25.8502 38.3116 26.3152 38.5364 26.8575C38.6839 27.2203 38.7564 27.6091 38.7495 28.0007V40.5092ZM49.6383 52.2775H42.6245V48.3832H49.5995C49.7963 48.3776 49.9862 48.3098 50.142 48.1894C50.22 48.1131 50.2811 48.0212 50.3212 47.9197C50.3612 47.8182 50.3794 47.7094 50.3745 47.6004V36.6497H54.2495V28.0007C54.2508 27.2149 53.9448 26.4598 53.397 25.8965C52.8393 25.3416 52.091 25.0201 51.3045 24.9975H46.3058C45.8609 23.5696 45.1364 22.2445 44.1745 21.0993H51.3045C53.1105 21.1158 54.8371 21.8441 56.1095 23.1259C57.3883 24.424 58.1129 26.1717 58.1245 28.0007V36.4559C58.1245 37.5138 57.7254 38.529 57.0046 39.2963C56.2839 40.0674 55.2996 40.5285 54.2495 40.5867V47.6004C54.2495 48.8365 53.7651 50.0184 52.901 50.8942C52.0394 51.769 50.8661 52.2664 49.6383 52.2775ZM15.4995 7.53679C14.3464 7.53545 13.2192 7.87849 12.2623 8.52193C11.3054 9.16536 10.5625 10.0799 10.1288 11.1483C9.691 12.2163 9.57736 13.3896 9.802 14.5218C10.0266 15.6539 10.5796 16.6949 11.392 17.5149C12.2041 18.3339 13.2419 18.8923 14.3728 19.1187C15.5037 19.345 16.6765 19.2291 17.7412 18.7858C18.806 18.3424 19.7144 17.5917 20.3504 16.6296C20.9865 15.6674 21.3212 14.5375 21.312 13.3842C21.312 11.8342 20.6998 10.3462 19.607 9.24954C19.0689 8.70756 18.4291 8.27724 17.7242 7.98331C17.0193 7.68938 16.2632 7.53763 15.4995 7.53679ZM15.4995 15.3333C15.2439 15.3338 14.9908 15.2837 14.7548 15.1858C14.5187 15.0878 14.3044 14.9441 14.1242 14.7629C13.944 14.5816 13.8016 14.3664 13.7051 14.1298C13.6086 13.8931 13.56 13.6397 13.562 13.3842C13.563 12.8695 13.7671 12.3761 14.1299 12.0111C14.4927 11.6462 14.9849 11.4391 15.4995 11.435C16.0125 11.4441 16.5019 11.6527 16.8636 12.0166C17.2254 12.3805 17.431 12.8711 17.437 13.3842C17.436 13.8988 17.2319 14.3922 16.8691 14.7572C16.5063 15.1222 16.0141 15.3292 15.4995 15.3333Z" fill="#FF521B"/>
</svg>
