<svg width="82" height="82" viewBox="0 0 82 82" fill="none" xmlns="http://www.w3.org/2000/svg">
<path d="M41 6.8335C32.8446 6.8335 25.0232 10.0732 19.2565 15.84C13.4897 21.6067 10.25 29.4281 10.25 37.5835C10.25 51.831 19.9533 63.7893 33.1075 67.2743L41 75.1668L48.8925 67.2743C62.0467 63.7893 71.75 51.831 71.75 37.5835C71.75 29.4281 68.5103 21.6067 62.7435 15.84C56.9768 10.0732 49.1554 6.8335 41 6.8335ZM41 13.6668C46.6717 13.6668 51.25 18.2452 51.25 23.9168C51.25 29.5885 46.6717 34.1668 41 34.1668C35.3283 34.1668 30.75 29.5885 30.75 23.9168C30.75 18.2452 35.3283 13.6668 41 13.6668ZM41 62.5252C36.9405 62.5252 32.9441 61.5206 29.3672 59.601C25.7903 57.6814 22.744 54.9064 20.5 51.5235C20.6025 44.7243 34.1667 41.0002 41 41.0002C47.7992 41.0002 61.3975 44.7243 61.5 51.5235C59.256 54.9064 56.2097 57.6814 52.6328 59.601C49.0559 61.5206 45.0595 62.5252 41 62.5252Z" fill="#FC8100"/>
</svg>
