<svg width="31" height="45" viewBox="0 0 31 45" fill="none" xmlns="http://www.w3.org/2000/svg">
<path d="M21.4615 40.263C21.4615 41.5193 20.9591 42.7242 20.0647 43.6126C19.1703 44.5009 17.9572 45 16.6923 45H14.3077C13.0428 45 11.8297 44.5009 10.9353 43.6126C10.0409 42.7242 9.53846 41.5193 9.53846 40.263H11.9231C11.9231 40.8911 12.1743 41.4936 12.6215 41.9378C13.0687 42.3819 13.6753 42.6315 14.3077 42.6315H16.6923C17.3247 42.6315 17.9313 42.3819 18.3785 41.9378C18.8257 41.4936 19.0769 40.8911 19.0769 40.263H21.4615ZM23.8462 33.1574C23.8462 34.4138 23.3437 35.6186 22.4493 36.507C21.5549 37.3954 20.3418 37.8944 19.0769 37.8944H11.9231C10.6582 37.8944 9.44513 37.3954 8.55072 36.507C7.65632 35.6186 7.15385 34.4138 7.15385 33.1574V28.3683C4.32896 26.5753 2.16546 23.921 0.987823 20.8035C-0.18981 17.6859 -0.31809 14.2732 0.622221 11.0771C1.56253 7.88102 3.52075 5.07388 6.20317 3.07671C8.88559 1.07954 12.1476 0 15.5 0C18.8524 0 22.1144 1.07954 24.7968 3.07671C27.4792 5.07388 29.4375 7.88102 30.3778 11.0771C31.3181 14.2732 31.1898 17.6859 30.0122 20.8035C28.8345 23.921 26.671 26.5753 23.8462 28.3683V33.1574ZM9.53846 33.1574C9.53846 33.7856 9.7897 34.388 10.2369 34.8322C10.6841 35.2764 11.2906 35.5259 11.9231 35.5259H19.0769C19.7094 35.5259 20.3159 35.2764 20.7631 34.8322C21.2103 34.388 21.4615 33.7856 21.4615 33.1574V26.9993C24.085 25.6695 26.1814 23.5015 27.4132 20.8442C28.645 18.187 28.9405 15.1953 28.2521 12.3509C27.5636 9.50661 25.9313 6.97522 23.618 5.16449C21.3048 3.35376 18.4453 2.3691 15.5 2.3691C12.5547 2.3691 9.6952 3.35376 7.38195 5.16449C5.0687 6.97522 3.4364 9.50661 2.74795 12.3509C2.0595 15.1953 2.35498 18.187 3.58679 20.8442C4.8186 23.5015 6.91505 25.6695 9.53846 26.9993V33.1574ZM7.46146 16.8644L13.1154 11.2486L17.8846 15.9857L22.0577 11.8408L23.7436 13.5153L17.8846 19.3347L13.1154 14.5977L9.14739 18.5389L7.46146 16.8644Z" fill="black"/>
</svg>
