<svg width="33" height="42" viewBox="0 0 33 42" fill="none" xmlns="http://www.w3.org/2000/svg">
<path d="M22 17.6842C20.2496 17.6842 18.5708 16.9855 17.3331 15.7419C16.0954 14.4982 15.4 12.8114 15.4 11.0526V2.21053H6.6C5.43305 2.21053 4.31389 2.67631 3.48873 3.50542C2.66357 4.33453 2.2 5.45904 2.2 6.63158V35.3684C2.2 36.541 2.66357 37.6655 3.48873 38.4946C4.31389 39.3237 5.43305 39.7895 6.6 39.7895H26.4C27.567 39.7895 28.6861 39.3237 29.5113 38.4946C30.3364 37.6655 30.8 36.541 30.8 35.3684V17.6842H22ZM17.6 11.0526C17.6 12.2252 18.0636 13.3497 18.8887 14.1788C19.7139 15.0079 20.833 15.4737 22 15.4737H29.8892L17.6 3.12568V11.0526ZM6.6 0H17.6L33 15.4737V35.3684C33 37.1272 32.3046 38.814 31.0669 40.0577C29.8292 41.3013 28.1504 42 26.4 42H6.6C4.84957 42 3.17084 41.3013 1.9331 40.0577C0.695355 38.814 0 37.1272 0 35.3684V6.63158C0 4.87277 0.695355 3.18601 1.9331 1.94234C3.17084 0.698682 4.84957 0 6.6 0Z" fill="black"/>
</svg>
