<svg width="41" height="37" viewBox="0 0 41 37" fill="none" xmlns="http://www.w3.org/2000/svg">
<path d="M1.95238 15.3947H7.80952C8.32733 15.3947 8.82392 15.6017 9.19007 15.97C9.55621 16.3384 9.7619 16.8379 9.7619 17.3589V35.0359C9.7619 35.5568 9.55621 36.0564 9.19007 36.4247C8.82392 36.7931 8.32733 37 7.80952 37H1.95238C1.43458 37 0.937981 36.7931 0.571839 36.4247C0.205697 36.0564 0 35.5568 0 35.0359V17.3589C0 16.8379 0.205697 16.3384 0.571839 15.97C0.937981 15.6017 1.43458 15.3947 1.95238 15.3947ZM1.95238 17.3589V35.0359H7.80952V17.3589H1.95238ZM32.636 33.1209L38.4951 23.3003C38.8465 22.7111 39.0476 22.0236 39.0476 21.2871V19.323C39.0476 18.2811 38.6362 17.282 37.9039 16.5453C37.1717 15.8086 36.1785 15.3947 35.1429 15.3947H24.19L27.0346 4.70995L27.0444 4.67459C27.1333 4.34168 27.1336 3.99109 27.0452 3.65805C26.9567 3.325 26.7827 3.02123 26.5407 2.77726L14.8088 14.5796C14.4458 14.9443 14.158 15.3776 13.962 15.8546C13.766 16.3315 13.6656 16.8427 13.6667 17.3589V31.1077C13.6667 32.1495 14.0781 33.1486 14.8103 33.8853C15.5426 34.622 16.5358 35.0359 17.5714 35.0359H29.2857C30.711 35.0359 31.9566 34.2699 32.636 33.1209ZM41 21.2871C41 22.4538 40.6642 23.5399 40.0824 24.4532L34.4088 33.9654C33.9017 34.8852 33.1593 35.6516 32.2584 36.1852C31.3575 36.7188 30.3311 37.0002 29.2857 37H17.5714C16.018 37 14.5282 36.3792 13.4298 35.2742C12.3314 34.1691 11.7143 32.6704 11.7143 31.1077V17.3589C11.7143 15.7326 12.3683 14.2614 13.4265 13.1949L26.5407 0L27.921 1.38863C28.4149 1.88554 28.7673 2.50666 28.9414 3.18723C29.1155 3.86779 29.105 4.58288 28.9109 5.25794L26.734 13.4306H35.1429C36.6963 13.4306 38.1861 14.0514 39.2845 15.1564C40.3829 16.2615 41 17.7602 41 19.323V21.2871Z" fill="black"/>
</svg>
