<svg width="20" height="20" viewBox="0 0 20 20" fill="none" xmlns="http://www.w3.org/2000/svg">
<path fill-rule="evenodd" clip-rule="evenodd" d="M5.65688 0.05775C6.68325 0.0105 7.0105 0 9.625 0C12.2395 0 12.5668 0.011375 13.5923 0.05775C14.6178 0.104125 15.3177 0.26775 15.9302 0.504875C16.5716 0.74725 17.1535 1.12612 17.6348 1.61612C18.1248 2.0965 18.5028 2.6775 18.7443 3.31975C18.9823 3.93225 19.145 4.63225 19.1922 5.656C19.2395 6.68412 19.25 7.01137 19.25 9.625C19.25 12.2395 19.2386 12.5667 19.1922 13.5931C19.1459 14.6169 18.9823 15.3169 18.7443 15.9294C18.5027 16.5717 18.1241 17.1537 17.6348 17.6348C17.1535 18.1248 16.5716 18.5028 15.9302 18.7443C15.3177 18.9823 14.6178 19.145 13.594 19.1922C12.5667 19.2395 12.2395 19.25 9.625 19.25C7.0105 19.25 6.68325 19.2386 5.65688 19.1922C4.63313 19.1459 3.93313 18.9823 3.32063 18.7443C2.67831 18.5027 2.09634 18.1241 1.61525 17.6348C1.12558 17.1541 0.74665 16.5724 0.504875 15.9302C0.26775 15.3177 0.105 14.6178 0.05775 13.594C0.0105 12.5659 0 12.2386 0 9.625C0 7.0105 0.011375 6.68325 0.05775 5.65775C0.104125 4.63225 0.26775 3.93225 0.504875 3.31975C0.747007 2.67757 1.12623 2.0959 1.61612 1.61525C2.09654 1.12569 2.67791 0.746763 3.31975 0.504875C3.93225 0.26775 4.63313 0.105 5.65688 0.05775ZM13.5144 1.79025C12.4994 1.74388 12.1949 1.73425 9.625 1.73425C7.05513 1.73425 6.75062 1.74388 5.73562 1.79025C4.79675 1.83313 4.2875 1.98975 3.948 2.12188C3.49913 2.29688 3.178 2.50425 2.84113 2.84113C2.52179 3.1518 2.27603 3.53 2.12188 3.948C1.98975 4.2875 1.83313 4.79675 1.79025 5.73562C1.74388 6.75062 1.73425 7.05513 1.73425 9.625C1.73425 12.1949 1.74388 12.4994 1.79025 13.5144C1.83313 14.4532 1.98975 14.9625 2.12188 15.302C2.27588 15.7194 2.52175 16.0982 2.84113 16.4089C3.15175 16.7282 3.53062 16.9741 3.948 17.1281C4.2875 17.2603 4.79675 17.4169 5.73562 17.4598C6.75062 17.5061 7.05425 17.5157 9.625 17.5157C12.1958 17.5157 12.4994 17.5061 13.5144 17.4598C14.4532 17.4169 14.9625 17.2603 15.302 17.1281C15.7509 16.9531 16.072 16.7458 16.4089 16.4089C16.7282 16.0982 16.9741 15.7194 17.1281 15.302C17.2603 14.9625 17.4169 14.4532 17.4598 13.5144C17.5061 12.4994 17.5157 12.1949 17.5157 9.625C17.5157 7.05513 17.5061 6.75062 17.4598 5.73562C17.4169 4.79675 17.2603 4.2875 17.1281 3.948C16.9531 3.49913 16.7458 3.178 16.4089 2.84113C16.0982 2.52181 15.72 2.27606 15.302 2.12188C14.9625 1.98975 14.4532 1.83313 13.5144 1.79025ZM8.39563 12.5921C9.0822 12.8779 9.84671 12.9165 10.5586 12.7013C11.2704 12.486 11.8855 12.0303 12.2987 11.412C12.7118 10.7936 12.8975 10.051 12.824 9.31097C12.7505 8.57092 12.4224 7.87935 11.8956 7.35437C11.5598 7.01879 11.1538 6.76184 10.7068 6.602C10.2598 6.44217 9.78288 6.38344 9.31043 6.43004C8.83799 6.47664 8.38176 6.62741 7.97458 6.87149C7.5674 7.11557 7.2194 7.4469 6.95564 7.84162C6.69188 8.23634 6.51892 8.68463 6.4492 9.15422C6.37949 9.6238 6.41476 10.103 6.55247 10.5573C6.69019 11.0116 6.92692 11.4298 7.24563 11.7816C7.56434 12.1335 7.9571 12.4103 8.39563 12.5921ZM6.12675 6.12675C6.58615 5.66735 7.13153 5.30294 7.73176 5.05432C8.33199 4.80569 8.97532 4.67773 9.625 4.67773C10.2747 4.67773 10.918 4.80569 11.5182 5.05432C12.1185 5.30294 12.6639 5.66735 13.1233 6.12675C13.5826 6.58615 13.9471 7.13153 14.1957 7.73176C14.4443 8.33199 14.5723 8.97532 14.5723 9.625C14.5723 10.2747 14.4443 10.918 14.1957 11.5182C13.9471 12.1185 13.5826 12.6639 13.1233 13.1233C12.1955 14.051 10.9371 14.5723 9.625 14.5723C8.3129 14.5723 7.05454 14.051 6.12675 13.1233C5.19896 12.1955 4.67773 10.9371 4.67773 9.625C4.67773 8.3129 5.19896 7.05454 6.12675 6.12675ZM15.6695 5.4145C15.7833 5.30711 15.8745 5.17797 15.9375 5.03473C16.0006 4.89148 16.0342 4.73705 16.0365 4.58056C16.0388 4.42408 16.0096 4.26873 15.9508 4.12371C15.892 3.97869 15.8046 3.84695 15.694 3.73628C15.5833 3.62562 15.4516 3.53829 15.3065 3.47945C15.1615 3.42062 15.0062 3.39148 14.8497 3.39376C14.6932 3.39604 14.5388 3.4297 14.3955 3.49273C14.2523 3.55577 14.1231 3.64691 14.0157 3.76075C13.8069 3.98215 13.6926 4.27623 13.697 4.58056C13.7014 4.8849 13.8243 5.17552 14.0395 5.39074C14.2547 5.60596 14.5454 5.72883 14.8497 5.73326C15.154 5.7377 15.4481 5.62335 15.6695 5.4145Z" fill="black"/>
</svg>
