<svg width="241" height="67" viewBox="0 0 241 67" fill="none" xmlns="http://www.w3.org/2000/svg">
<g clip-path="url(#clip0)">
<path d="M32.1758 42.9196V49.8422L53.9174 51.0991L55.6705 58.7909H62.678C62.678 58.7909 64.1909 52.4282 63.475 43.4735C63.475 43.4735 65.4651 29.0975 60.847 24.384L58.4576 23.441L57.422 21.3996H63.9008L64.3515 17.9429L61.8826 16.6861C61.8826 16.6861 59.4137 15.8215 58.219 17.5506L57.3424 18.8859L56.625 19.0398L51.3689 9.53733C51.3689 9.53733 49.4584 6.47754 44.7622 6.47754H32.1758V8.59739C32.1758 8.59739 45.8743 8.75123 48.2637 9.38349C50.6531 10.0158 51.7667 13.5463 51.7667 13.5463L54.3962 20.3812H32.1758V27.8438C32.1758 27.8438 48.9 27.9976 57.8992 27.4515L59.4932 26.1162C59.4932 26.1162 62.678 29.1791 60.9265 31.6143C59.175 34.0495 51.6871 33.5003 51.6871 33.5003C51.6871 33.5003 48.8173 31.1435 45.0742 31.1435H34.9629C34.9629 31.1435 35.0424 33.5788 32.1758 33.7357V39.2276H40.5371C40.5371 39.2276 42.2106 38.7569 42.2106 40.7983V41.6628C42.2106 41.6628 42.4493 42.9981 40.6182 42.9981L32.1758 42.9196Z" fill="#55585A"/>
<path d="M32.1758 42.9198V49.8424L10.4326 51.0962L8.68106 58.7879H1.67195C1.67195 58.7879 0.155966 52.4314 0.876528 43.4767C0.876528 43.4767 -1.11516 29.1007 3.50455 24.3872L5.89395 23.4442L6.92956 21.4028H0.449182L0 17.9461L2.46894 16.6893C2.46894 16.6893 4.93788 15.8247 6.13258 17.5538L7.00911 18.8891L7.72499 19.043L12.981 9.53748C12.981 9.53748 14.8932 6.47461 19.5924 6.47461H32.1758V8.59754C32.1758 8.59754 18.4773 8.75138 16.0879 9.38364C13.6985 10.0159 12.5833 13.5464 12.5833 13.5464L9.9553 20.3813H32.1758V27.8439C32.1758 27.8439 15.45 27.9977 6.45075 27.4516L4.85834 26.1163C4.85834 26.1163 1.67195 29.1792 3.43125 31.6144C5.19054 34.0496 12.6691 33.5004 12.6691 33.5004C12.6691 33.5004 15.5358 31.1437 19.2789 31.1437H29.3949C29.3949 31.1437 29.3138 33.5789 32.182 33.7358V39.2277H23.8129C23.8129 39.2277 22.1472 38.7662 22.1472 40.8046V41.6691C22.1472 41.6691 21.9085 43.0044 23.7396 43.0044L32.1758 42.9198Z" fill="#55585A"/>
<path d="M81.8726 0H76.2578V33.5008H81.8726V0Z" fill="#55585A"/>
<path d="M81.8726 33.501H76.2578V67.0018H81.8726V33.501Z" fill="#F27320"/>
<path d="M100.771 32.3868C98.9553 31.3457 97.4447 29.8579 96.3866 28.0686C95.3141 26.2774 94.7556 24.2323 94.7708 22.1521C94.7596 20.0785 95.3255 18.0416 96.4069 16.2633C97.4732 14.4724 98.9855 12.9797 100.8 11.9267C102.603 10.8575 104.668 10.2971 106.771 10.3068C108.012 10.3097 109.245 10.5081 110.424 10.8944C111.633 11.2891 112.776 11.8594 113.814 12.5866C114.041 12.7309 114.227 12.9291 114.356 13.1629C114.485 13.3968 114.552 13.6588 114.552 13.925C114.545 14.3116 114.399 14.6832 114.139 14.9726C114.003 15.1546 113.825 15.3022 113.62 15.4033C113.415 15.5044 113.189 15.556 112.96 15.5541C112.501 15.5449 112.057 15.3918 111.692 15.1172C110.332 14.2143 108.745 13.7032 107.107 13.6415C105.47 13.5798 103.847 13.9699 102.422 14.768C101.114 15.5061 100.03 16.5758 99.2813 17.8662C98.5172 19.1681 98.1204 20.6479 98.1319 22.1521C98.1199 23.6598 98.5226 25.1426 99.2969 26.4426C100.055 27.7336 101.142 28.8065 102.451 29.5547C103.868 30.3644 105.49 30.76 107.126 30.6955C108.763 30.6309 110.347 30.1088 111.695 29.1901C112.06 28.9407 112.489 28.7998 112.933 28.784C113.164 28.7787 113.393 28.8257 113.602 28.9215C113.812 29.0172 113.997 29.1591 114.142 29.3362C114.406 29.6347 114.553 30.0168 114.555 30.4131C114.557 30.6763 114.494 30.9361 114.371 31.1695C114.247 31.4029 114.067 31.6028 113.847 31.7514C112.836 32.483 111.71 33.0477 110.516 33.4236C109.305 33.8037 108.042 33.9952 106.772 33.9913C104.661 34.0038 102.587 33.4491 100.771 32.3868Z" fill="#FF521B"/>
<path d="M119.615 32.6935C119.446 32.5285 119.312 32.331 119.224 32.1132C119.135 31.8955 119.092 31.6621 119.099 31.4274V12.2903C119.084 11.8251 119.252 11.3723 119.566 11.0258C119.723 10.8648 119.911 10.7367 120.118 10.6492C120.326 10.5617 120.55 10.5166 120.776 10.5166C121.002 10.5166 121.226 10.5617 121.433 10.6492C121.641 10.7367 121.829 10.8648 121.985 11.0258C122.3 11.3723 122.468 11.8251 122.453 12.2903V29.886H132.39C132.862 29.8707 133.322 30.0361 133.674 30.3475C133.837 30.5016 133.967 30.6867 134.055 30.8916C134.144 31.0965 134.19 31.3169 134.19 31.5397C134.19 31.7625 134.144 31.983 134.055 32.1879C133.967 32.3928 133.837 32.5779 133.674 32.732C133.322 33.0435 132.862 33.2089 132.39 33.1935H120.897C120.66 33.2006 120.424 33.16 120.203 33.074C119.983 32.9881 119.783 32.8586 119.615 32.6935Z" fill="#FF521B"/>
<path d="M140.993 32.3745C139.576 31.6783 138.361 30.6401 137.46 29.3563C136.601 28.1517 136.14 26.7142 136.142 25.2412V12.2528C136.137 12.0209 136.182 11.7906 136.274 11.5771C136.366 11.3637 136.503 11.1719 136.676 11.0145C137.047 10.6762 137.539 10.4969 138.044 10.516C138.537 10.5015 139.016 10.6808 139.376 11.0145C139.548 11.1719 139.685 11.3637 139.777 11.5771C139.869 11.7906 139.914 12.0209 139.909 12.2528V25.2412C139.901 26.1491 140.173 27.038 140.689 27.7902C141.225 28.5717 141.96 29.1999 142.821 29.6116C143.749 30.0544 144.767 30.2833 145.798 30.2809C146.828 30.2785 147.845 30.0449 148.771 29.5978C149.64 29.1779 150.386 28.5456 150.937 27.761C151.467 27.0245 151.753 26.1442 151.755 25.2412V12.2528C151.75 12.0209 151.795 11.7906 151.887 11.5771C151.978 11.3637 152.115 11.1719 152.288 11.0145C152.659 10.6763 153.15 10.497 153.654 10.516C154.148 10.5021 154.627 10.6813 154.988 11.0145C155.16 11.1721 155.297 11.3639 155.389 11.5773C155.481 11.7908 155.526 12.021 155.521 12.2528V25.2412C155.526 26.721 155.069 28.1665 154.214 29.3824C153.32 30.6689 152.103 31.7046 150.682 32.3884C149.172 33.1334 147.504 33.514 145.815 33.4991C144.139 33.5144 142.485 33.1285 140.993 32.3745Z" fill="#FF521B"/>
<path d="M161.581 32.6937C161.266 32.3463 161.099 31.8932 161.113 31.4277V12.2905C161.099 11.8255 161.266 11.373 161.581 11.026C161.724 10.863 161.902 10.7329 162.102 10.645C162.302 10.557 162.519 10.5133 162.738 10.5168H167.81C168.825 10.5169 169.817 10.8193 170.655 11.3844C171.542 11.9659 172.431 12.672 172.963 13.6412C173.49 14.5785 173.765 15.6337 173.76 16.7056C173.757 17.4228 173.638 18.1349 173.406 18.8147C173.351 18.9778 172.626 20.7284 172.447 20.633C174.565 21.8037 175.797 24.1712 175.797 26.5372C175.805 27.6897 175.516 28.8254 174.959 29.8385C174.431 30.8229 173.663 31.6623 172.724 32.2815C171.835 32.8795 170.783 33.1986 169.706 33.1968H162.738C162.519 33.2012 162.303 33.1584 162.103 33.0715C161.903 32.9846 161.725 32.8557 161.581 32.6937ZM167.988 19.7946C169.443 19.6562 170.549 18.2424 170.549 16.8287C170.568 16.0436 170.277 15.282 169.738 14.7042C169.495 14.4281 169.195 14.2071 168.858 14.0565C168.52 13.906 168.154 13.8293 167.783 13.832H164.388L164.368 19.7346C164.368 19.7439 167.585 19.8115 167.832 19.8039C167.88 19.8023 167.935 19.7992 167.988 19.7946ZM169.759 29.8862C170.175 29.8921 170.587 29.808 170.966 29.6398C171.345 29.4715 171.683 29.2232 171.954 28.9125C172.548 28.264 172.866 27.4154 172.844 26.5418C172.868 25.6527 172.544 24.7887 171.94 24.1282C171.672 23.8156 171.337 23.565 170.96 23.394C170.582 23.2231 170.172 23.136 169.756 23.139H164.118V29.8862H169.759Z" fill="#FF521B"/>
<path d="M95.7631 6.75299C95.2455 6.45706 94.8154 6.0328 94.5153 5.52231C94.2077 5.01011 94.046 4.42545 94.0474 3.83011C94.0436 3.23446 94.2054 2.64917 94.5153 2.13792C94.8179 1.62936 95.2474 1.20568 95.7631 0.907239C96.1757 0.665662 96.6363 0.514524 97.1134 0.46409C97.5906 0.413656 98.0731 0.465108 98.5283 0.614951C98.8669 0.722698 99.1878 0.878141 99.4813 1.07646C99.5254 1.10687 99.5614 1.1474 99.5861 1.19456C99.6108 1.24173 99.6236 1.29411 99.6232 1.34721C99.6255 1.43451 99.5937 1.51934 99.5343 1.58412C99.512 1.61381 99.4824 1.63743 99.4483 1.65276C99.4142 1.6681 99.3767 1.67465 99.3393 1.6718C99.2456 1.6657 99.156 1.63193 99.082 1.57488C98.6463 1.2792 98.1348 1.11092 97.6064 1.08942C97.078 1.06792 96.5542 1.19407 96.0953 1.45335C95.6765 1.6925 95.3286 2.03566 95.0862 2.44867C94.8382 2.86434 94.7094 3.33862 94.7134 3.82088C94.7095 4.30353 94.8395 4.77804 95.0893 5.1931C95.3339 5.60662 95.6818 5.95141 96.0999 6.19457C96.5567 6.45841 97.0809 6.58683 97.6098 6.56445C98.1387 6.54208 98.6498 6.36987 99.082 6.06842C99.149 6.02041 99.2301 5.99553 99.3128 5.99766C99.3639 5.99518 99.4147 6.00511 99.461 6.02657C99.5072 6.04803 99.5474 6.08036 99.578 6.12073C99.6204 6.16875 99.6427 6.2309 99.6404 6.29456C99.6409 6.3505 99.6268 6.40564 99.5995 6.45468C99.5722 6.50371 99.5326 6.54499 99.4844 6.57454C98.9463 6.95196 98.3097 7.16936 97.6502 7.20098C96.9907 7.23261 96.3358 7.07714 95.7631 6.75299Z" fill="#5D5F5F"/>
<path d="M105.589 6.90226C105.242 6.7031 104.953 6.41843 104.751 6.07617C104.548 5.7356 104.441 5.34759 104.441 4.9524C104.441 4.5572 104.548 4.1692 104.751 3.82863C104.953 3.48636 105.242 3.2017 105.589 3.00253C105.934 2.80203 106.327 2.69629 106.727 2.69629C107.128 2.69629 107.521 2.80203 107.866 3.00253C108.214 3.20185 108.504 3.48638 108.708 3.82863C108.911 4.1692 109.019 4.5572 109.019 4.9524C109.019 5.34759 108.911 5.7356 108.708 6.07617C108.506 6.41783 108.217 6.70232 107.871 6.90226C107.525 7.10168 107.132 7.20679 106.732 7.20679C106.332 7.20679 105.939 7.10168 105.594 6.90226H105.589ZM107.546 6.34692C107.919 6.13074 108.191 5.77823 108.302 5.36584C108.413 4.95345 108.355 4.51443 108.14 4.14399C107.921 3.7744 107.563 3.50535 107.143 3.39554C106.724 3.28573 106.277 3.34409 105.901 3.55788C105.653 3.69776 105.447 3.9 105.303 4.14399C105.158 4.38936 105.082 4.66833 105.082 4.9524C105.082 5.23646 105.158 5.51543 105.303 5.7608C105.524 6.12864 105.881 6.39631 106.3 6.50598C106.718 6.61565 107.164 6.55851 107.54 6.34692H107.546Z" fill="#5D5F5F"/>
<path d="M128.143 6.90226C127.796 6.70309 127.507 6.41843 127.306 6.07616C127.102 5.73559 126.995 5.34759 126.995 4.9524C126.995 4.5572 127.102 4.1692 127.306 3.82863C127.507 3.48636 127.796 3.2017 128.143 3.00253C128.488 2.80203 128.881 2.69629 129.282 2.69629C129.682 2.69629 130.075 2.80203 130.42 3.00253C130.767 3.20248 131.055 3.48696 131.258 3.82863C131.463 4.16802 131.571 4.55628 131.57 4.95163C131.573 4.99617 131.566 5.04085 131.55 5.08255C131.534 5.12426 131.509 5.162 131.476 5.19315C131.412 5.24925 131.328 5.27897 131.242 5.27622H127.677C127.736 5.55549 127.869 5.81426 128.063 6.02615C128.257 6.23805 128.504 6.39549 128.78 6.48243C129.055 6.56937 129.349 6.5827 129.632 6.52106C129.914 6.45942 130.175 6.32501 130.387 6.13155C130.426 6.08975 130.472 6.05596 130.524 6.03218C130.575 6.00839 130.631 5.9951 130.688 5.99309C130.723 5.99165 130.757 5.99703 130.789 6.00893C130.821 6.02082 130.851 6.03898 130.876 6.06232C130.911 6.09469 130.94 6.13388 130.96 6.17752C130.98 6.22116 130.99 6.26833 130.991 6.31615C130.992 6.35874 130.983 6.40097 130.966 6.44016C130.949 6.47935 130.924 6.51465 130.893 6.54382C130.682 6.75242 130.432 6.91857 130.157 7.03302C129.833 7.16684 129.483 7.22468 129.133 7.20199C128.784 7.1793 128.444 7.07668 128.142 6.90226H128.143ZM130.877 4.62857C130.806 4.26506 130.606 3.93815 130.314 3.70556C130.024 3.47072 129.66 3.34238 129.284 3.34238C128.908 3.34238 128.544 3.47072 128.254 3.70556C127.958 3.93759 127.754 4.26402 127.677 4.62857H130.877Z" fill="#5D5F5F"/>
<path d="M137.064 6.9027C136.718 6.70275 136.429 6.41827 136.226 6.0766C136.023 5.73603 135.916 5.34803 135.916 4.95283C135.916 4.55763 136.023 4.16963 136.226 3.82906C136.429 3.48739 136.718 3.20291 137.064 3.00297C137.368 2.82626 137.71 2.72276 138.062 2.70084C138.415 2.67892 138.767 2.73921 139.092 2.87682C139.371 2.99485 139.624 3.16754 139.834 3.38448V0.949261C139.834 0.902133 139.843 0.855432 139.861 0.811852C139.879 0.768273 139.906 0.728678 139.94 0.695353C139.974 0.662029 140.014 0.635634 140.058 0.617693C140.102 0.599752 140.15 0.59062 140.197 0.590824C140.238 0.590815 140.278 0.600295 140.314 0.618481C140.35 0.636668 140.381 0.663041 140.405 0.695432C140.462 0.768024 140.491 0.857632 140.489 0.949261V4.94898C140.49 5.34475 140.382 5.73338 140.177 6.07352C139.974 6.41519 139.686 6.69967 139.34 6.89962C138.994 7.09901 138.601 7.2041 138.2 7.2041C137.8 7.2041 137.407 7.09901 137.061 6.89962L137.064 6.9027ZM139.023 6.34735C139.396 6.13117 139.668 5.77866 139.779 5.36627C139.89 4.95388 139.832 4.51486 139.617 4.14442C139.398 3.7765 139.041 3.50863 138.622 3.3989C138.204 3.28918 137.759 3.34646 137.384 3.55831C137.134 3.69813 136.927 3.90029 136.782 4.14442C136.637 4.3898 136.56 4.66877 136.56 4.95283C136.56 5.23689 136.637 5.51586 136.782 5.76124C136.926 6.00498 137.132 6.2071 137.381 6.34735C137.63 6.48747 137.913 6.56115 138.2 6.56115C138.488 6.56115 138.77 6.48747 139.02 6.34735H139.023Z" fill="#5D5F5F"/>
<path d="M146.412 6.90222C146.065 6.70228 145.777 6.41779 145.574 6.07612C145.371 5.73555 145.264 5.34755 145.264 4.95236C145.264 4.55716 145.371 4.16916 145.574 3.82859C145.777 3.48692 146.065 3.20244 146.412 3.00249C146.757 2.80201 147.15 2.69629 147.551 2.69629C147.952 2.69629 148.345 2.80201 148.69 3.00249C149.037 3.20215 149.325 3.48673 149.526 3.82859C149.73 4.16916 149.837 4.55716 149.837 4.95236C149.837 5.34755 149.73 5.73555 149.526 6.07612C149.325 6.41799 149.037 6.70257 148.69 6.90222C148.345 7.10162 147.951 7.20671 147.551 7.20671C147.151 7.20671 146.757 7.10162 146.412 6.90222ZM148.371 6.34688C148.618 6.20733 148.823 6.00495 148.965 5.76076C149.107 5.51438 149.182 5.2358 149.182 4.95236C149.182 4.66891 149.107 4.39034 148.965 4.14395C148.746 3.77602 148.388 3.50815 147.97 3.39843C147.552 3.28871 147.107 3.34599 146.731 3.55784C146.486 3.69915 146.282 3.90118 146.14 4.14395C145.995 4.38932 145.919 4.66829 145.919 4.95236C145.919 5.23642 145.995 5.51539 146.14 5.76076C146.284 6.00451 146.491 6.20662 146.739 6.34688C146.989 6.487 147.271 6.56067 147.559 6.56067C147.846 6.56067 148.129 6.487 148.378 6.34688H148.371Z" fill="#5D5F5F"/>
<path d="M154.917 6.86696C154.855 6.79681 154.822 6.70629 154.824 6.61313V4.42713C154.822 4.11611 154.902 3.80988 155.055 3.53796C155.204 3.26556 155.418 3.03282 155.679 2.85955C155.934 2.68605 156.229 2.58011 156.538 2.55188C156.586 2.54795 156.634 2.55461 156.679 2.57138C156.724 2.58814 156.765 2.61458 156.798 2.64879C156.834 2.68481 156.862 2.72778 156.879 2.77495C156.897 2.82211 156.904 2.87242 156.901 2.92262C156.902 2.96084 156.894 2.99875 156.877 3.03306C156.86 3.06737 156.834 3.09705 156.803 3.11953C156.731 3.17219 156.645 3.20413 156.555 3.21183C156.257 3.25293 155.984 3.40075 155.789 3.62719C155.586 3.84812 155.475 4.1365 155.477 4.43482V6.61467C155.479 6.70783 155.446 6.79835 155.384 6.8685C155.354 6.90124 155.318 6.92746 155.278 6.94542C155.238 6.96338 155.194 6.97267 155.15 6.97267C155.106 6.97267 155.062 6.96338 155.021 6.94542C154.981 6.92746 154.945 6.90124 154.916 6.8685L154.917 6.86696Z" fill="#5D5F5F"/>
<path d="M162.483 6.90226C162.137 6.70265 161.848 6.41809 161.646 6.07617C161.443 5.7356 161.335 5.34759 161.335 4.9524C161.335 4.5572 161.443 4.1692 161.646 3.82863C161.848 3.4867 162.137 3.20215 162.483 3.00253C162.828 2.80203 163.222 2.69629 163.622 2.69629C164.022 2.69629 164.416 2.80203 164.76 3.00253C165.108 3.2017 165.396 3.48636 165.598 3.82863C165.804 4.16802 165.911 4.55628 165.91 4.95163C165.913 4.99617 165.906 5.04085 165.89 5.08256C165.874 5.12426 165.849 5.162 165.816 5.19315C165.752 5.24953 165.668 5.27928 165.582 5.27622H162.02C162.091 5.64076 162.292 5.96822 162.586 6.19923C162.892 6.44489 163.277 6.57346 163.671 6.56131C164.065 6.54915 164.441 6.39709 164.731 6.13308C164.769 6.09118 164.816 6.05732 164.868 6.03354C164.92 6.00975 164.976 5.99652 165.033 5.99463C165.068 5.99313 165.102 5.99849 165.133 6.0104C165.165 6.0223 165.194 6.04049 165.219 6.06386C165.255 6.09622 165.283 6.13542 165.303 6.17906C165.323 6.2227 165.334 6.26987 165.334 6.31769C165.335 6.36028 165.326 6.40251 165.31 6.4417C165.293 6.48089 165.268 6.51619 165.236 6.54536C165.026 6.75358 164.776 6.9197 164.502 7.03456C164.178 7.16839 163.828 7.22625 163.478 7.20355C163.128 7.18086 162.788 7.07824 162.485 6.9038L162.483 6.90226ZM165.217 4.62857C165.162 4.35752 165.037 4.10521 164.853 3.89615C164.67 3.6871 164.434 3.52841 164.17 3.43551C163.906 3.34261 163.622 3.31866 163.346 3.36598C163.07 3.4133 162.811 3.53028 162.594 3.70556C162.299 3.93766 162.096 4.26414 162.019 4.62857H165.217Z" fill="#5D5F5F"/>
<path d="M170.57 6.80152C170.429 6.69771 170.31 6.56609 170.222 6.41492C170.135 6.26375 170.079 6.09631 170.06 5.92312C170.054 5.8776 170.059 5.83121 170.074 5.78785C170.09 5.74449 170.115 5.70542 170.149 5.67391C170.221 5.6073 170.317 5.57138 170.416 5.57391C170.455 5.5731 170.493 5.58084 170.528 5.59655C170.563 5.61226 170.594 5.63554 170.619 5.66468C170.676 5.73636 170.71 5.82308 170.717 5.91389C170.73 6.00234 170.763 6.08679 170.814 6.16105C170.864 6.23531 170.931 6.2975 171.009 6.34309C171.22 6.4481 171.456 6.49638 171.692 6.48308C172.035 6.48308 172.281 6.42463 172.431 6.30771C172.511 6.23848 172.573 6.1517 172.612 6.0544C172.651 5.95711 172.667 5.85205 172.657 5.74775C172.665 5.62851 172.625 5.51105 172.547 5.42008C172.469 5.33944 172.371 5.28097 172.263 5.25086C172.109 5.20629 171.953 5.17085 171.795 5.14471C171.547 5.10521 171.304 5.04236 171.068 4.95703C170.866 4.87382 170.696 4.73014 170.581 4.54629C170.43 4.2848 170.359 3.98545 170.377 3.68481C170.372 3.53193 170.403 3.37997 170.465 3.24017C170.528 3.10036 170.622 2.97631 170.74 2.87718C170.997 2.68407 171.308 2.57552 171.63 2.56695C171.952 2.55839 172.269 2.65026 172.536 2.82949C172.762 2.9926 172.914 3.23773 172.957 3.51098C172.963 3.5565 172.958 3.60289 172.943 3.64625C172.928 3.68961 172.902 3.72868 172.868 3.76019C172.833 3.79327 172.791 3.81913 172.745 3.83629C172.7 3.85346 172.651 3.86157 172.603 3.86019C172.567 3.86244 172.531 3.85654 172.498 3.84294C172.464 3.82934 172.435 3.8084 172.411 3.78173C172.359 3.71385 172.321 3.63645 172.3 3.55405C172.241 3.32638 172.035 3.21408 171.676 3.21408C171.502 3.20199 171.327 3.24452 171.179 3.33561C171.124 3.37551 171.079 3.42831 171.05 3.48926C171.02 3.55021 171.007 3.6174 171.01 3.68481C171.001 3.83102 171.046 3.97557 171.135 4.09248C171.217 4.18795 171.325 4.25752 171.447 4.29246C171.62 4.34186 171.796 4.38141 171.974 4.41092C172.213 4.4544 172.449 4.51717 172.678 4.5986C172.863 4.6744 173.021 4.80428 173.13 4.97088C173.27 5.2027 173.336 5.47066 173.32 5.74006C173.33 5.93058 173.296 6.12086 173.221 6.29667C173.146 6.47249 173.032 6.62929 172.887 6.75537C172.596 6.99997 172.196 7.1215 171.681 7.1215C171.285 7.13898 170.895 7.02644 170.57 6.80152Z" fill="#5D5F5F"/>
<path d="M155.163 5.07652C155.08 5.07652 155 5.04411 154.942 4.98641C154.883 4.92871 154.851 4.85045 154.851 4.76885V2.55669C154.851 2.4751 154.883 2.39684 154.942 2.33914C155 2.28144 155.08 2.24902 155.163 2.24902C155.245 2.24902 155.325 2.28144 155.383 2.33914C155.442 2.39684 155.474 2.4751 155.474 2.55669V4.76885C155.474 4.85045 155.442 4.92871 155.383 4.98641C155.325 5.04411 155.245 5.07652 155.163 5.07652Z" fill="#5D5F5F"/>
<path d="M120.749 6.86697C120.688 6.7963 120.655 6.706 120.657 6.61314V4.42714C120.655 4.11611 120.735 3.80988 120.888 3.53797C121.038 3.26582 121.251 3.03315 121.512 2.85955C121.767 2.68655 122.063 2.58065 122.371 2.55188C122.419 2.54794 122.468 2.55459 122.513 2.57135C122.558 2.58811 122.599 2.61456 122.633 2.6488C122.667 2.68345 122.693 2.72446 122.711 2.76939C122.728 2.81432 122.736 2.86225 122.734 2.91032C122.736 2.94843 122.728 2.9863 122.711 3.02062C122.694 3.05494 122.669 3.08467 122.638 3.10723C122.565 3.1599 122.479 3.19183 122.39 3.19953C122.091 3.24096 121.818 3.38869 121.622 3.61489C121.42 3.83622 121.308 4.12433 121.31 4.42252V6.61468C121.312 6.70754 121.279 6.79784 121.218 6.86851C121.189 6.90125 121.153 6.92747 121.113 6.94543C121.072 6.96339 121.029 6.97268 120.984 6.97268C120.94 6.97268 120.896 6.96339 120.856 6.94543C120.816 6.92747 120.78 6.90125 120.75 6.86851L120.749 6.86697Z" fill="#5D5F5F"/>
<path d="M120.995 5.07652C120.912 5.07652 120.833 5.04411 120.774 4.98641C120.716 4.92871 120.683 4.85045 120.683 4.76885V2.55669C120.683 2.4751 120.716 2.39684 120.774 2.33914C120.833 2.28144 120.912 2.24902 120.995 2.24902C121.078 2.24902 121.157 2.28144 121.216 2.33914C121.274 2.39684 121.307 2.4751 121.307 2.55669V4.76885C121.307 4.85045 121.274 4.92871 121.216 4.98641C121.157 5.04411 121.078 5.07652 120.995 5.07652Z" fill="#5D5F5F"/>
<path d="M113.9 6.86692C113.838 6.79677 113.805 6.70625 113.807 6.61309V4.42709C113.805 4.11606 113.884 3.80983 114.038 3.53792C114.187 3.26552 114.401 3.03278 114.661 2.8595C114.916 2.68601 115.212 2.58006 115.521 2.55183C115.569 2.548 115.617 2.5547 115.663 2.57145C115.708 2.5882 115.749 2.61459 115.783 2.64875C115.818 2.68518 115.844 2.7283 115.862 2.77541C115.879 2.82252 115.886 2.87262 115.883 2.92257C115.884 2.9608 115.875 2.99871 115.858 3.03302C115.841 3.06732 115.816 3.097 115.784 3.11948C115.712 3.17265 115.626 3.20465 115.536 3.21178C115.238 3.25329 114.966 3.40105 114.771 3.62714C114.567 3.84808 114.456 4.13645 114.459 4.43478V6.61463C114.461 6.70778 114.427 6.79831 114.365 6.86846C114.336 6.90119 114.3 6.92741 114.259 6.94537C114.219 6.96333 114.175 6.97262 114.131 6.97262C114.087 6.97262 114.043 6.96333 114.003 6.94537C113.962 6.92741 113.926 6.90119 113.897 6.86846L113.9 6.86692Z" fill="#5D5F5F"/>
<path d="M114.145 5.07652C114.063 5.07652 113.983 5.04411 113.925 4.98641C113.866 4.92871 113.833 4.85045 113.833 4.76885V2.55669C113.833 2.4751 113.866 2.39684 113.925 2.33914C113.983 2.28144 114.063 2.24902 114.145 2.24902C114.228 2.24902 114.308 2.28144 114.366 2.33914C114.425 2.39684 114.457 2.4751 114.457 2.55669V4.76885C114.457 4.85045 114.425 4.92871 114.366 4.98641C114.308 5.04411 114.228 5.07652 114.145 5.07652Z" fill="#5D5F5F"/>
<path d="M140.17 6.98401C140.087 6.98401 140.008 6.9516 139.949 6.8939C139.891 6.8362 139.858 6.75794 139.858 6.67634V4.4688C139.858 4.3872 139.891 4.30895 139.949 4.25125C140.008 4.19355 140.087 4.16113 140.17 4.16113C140.253 4.16113 140.332 4.19355 140.39 4.25125C140.449 4.30895 140.482 4.3872 140.482 4.4688V6.67634C140.482 6.75794 140.449 6.8362 140.39 6.8939C140.332 6.9516 140.253 6.98401 140.17 6.98401Z" fill="#5D5F5F"/>
<path d="M97.7687 55.4826C96.8643 54.963 96.112 54.2209 95.5852 53.3289C95.0553 52.4421 94.7759 51.4315 94.7759 50.4021C94.7759 49.3728 95.0553 48.3622 95.5852 47.4754C96.1131 46.5842 96.8652 45.8424 97.7687 45.3217C98.6694 44.7956 99.6978 44.5202 100.745 44.5248C101.54 44.522 102.328 44.679 103.061 44.9864C103.792 45.2936 104.453 45.7418 105.006 46.3047V39.9729C105.005 39.8499 105.03 39.7281 105.077 39.6146C105.125 39.501 105.195 39.3978 105.283 39.311C105.372 39.2242 105.477 39.1555 105.592 39.1089C105.707 39.0622 105.831 39.0385 105.955 39.0391C106.061 39.0389 106.166 39.0634 106.261 39.1108C106.355 39.1581 106.437 39.2268 106.5 39.3114C106.648 39.5002 106.726 39.7339 106.72 39.9729V50.4044C106.724 51.4334 106.444 52.4441 105.909 53.3273C105.382 54.2197 104.63 54.9619 103.725 55.481C102.823 56.0037 101.796 56.2794 100.749 56.2794C99.7029 56.2794 98.6756 56.0037 97.7734 55.481L97.7687 55.4826ZM102.888 54.0365C103.534 53.6694 104.071 53.1399 104.443 52.502C104.815 51.8641 105.009 51.1404 105.006 50.4044C105 49.6686 104.8 48.9469 104.424 48.3112C104.048 47.6754 103.51 47.1476 102.864 46.7803C102.217 46.4129 101.485 46.2188 100.739 46.2171C99.9926 46.2155 99.2591 46.4064 98.611 46.7709C97.9641 47.1354 97.4261 47.6618 97.0513 48.2969C96.6714 48.9358 96.4711 49.663 96.4711 50.4037C96.4711 51.1443 96.6714 51.8716 97.0513 52.5105C97.6284 53.4702 98.5646 54.168 99.6583 54.4535C100.752 54.7389 101.916 54.5892 102.898 54.0365H102.888Z" fill="#55585A"/>
<path d="M113.359 55.4627C112.488 54.9149 111.774 54.1546 111.288 53.2551C110.786 52.333 110.522 51.3023 110.522 50.2553C110.522 49.2084 110.786 48.1777 111.288 47.2556C111.774 46.3557 112.488 45.5948 113.359 45.0465C114.2 44.5131 115.178 44.2295 116.177 44.2295C117.176 44.2295 118.154 44.5131 118.994 45.0465C119.866 45.5948 120.579 46.3557 121.066 47.2556C121.576 48.176 121.84 49.2094 121.833 50.2584C121.841 50.3751 121.825 50.4922 121.786 50.6025C121.746 50.7128 121.684 50.814 121.604 50.8999C121.527 50.9739 121.436 51.0318 121.336 51.0701C121.236 51.1084 121.129 51.1264 121.022 51.123H112.208C112.376 52.078 112.872 52.947 113.612 53.5844C114.347 54.2374 115.31 54.584 116.299 54.5513C117.288 54.5186 118.226 54.1091 118.915 53.409C119.005 53.2983 119.119 53.2078 119.247 53.1434C119.376 53.0789 119.516 53.0421 119.66 53.0352C119.748 53.031 119.835 53.0457 119.915 53.0781C119.996 53.1105 120.069 53.1599 120.128 53.2228C120.309 53.4033 120.411 53.6461 120.414 53.8997C120.417 54.1256 120.33 54.3438 120.172 54.5074C119.66 55.0588 119.041 55.5039 118.352 55.8165C117.557 56.1766 116.683 56.3332 115.811 56.2719C114.938 56.2106 114.096 55.9334 113.361 55.4658L113.359 55.4627ZM120.124 49.3816C119.956 48.429 119.465 47.561 118.731 46.9202C118.033 46.2965 117.124 45.951 116.182 45.951C115.24 45.951 114.332 46.2965 113.634 46.9202C112.893 47.5604 112.391 48.427 112.208 49.3816H120.124Z" fill="#55585A"/>
<path d="M126.065 55.4379C125.912 55.2642 125.831 55.0403 125.836 54.8102V40.582C125.836 40.4654 125.859 40.3499 125.904 40.2422C125.949 40.1344 126.015 40.0364 126.098 39.954C126.182 39.8715 126.281 39.8061 126.39 39.7615C126.499 39.717 126.616 39.6941 126.735 39.6943C126.835 39.6945 126.934 39.7181 127.024 39.7633C127.113 39.8085 127.19 39.874 127.249 39.9543C127.391 40.1333 127.464 40.3552 127.458 40.582V54.8102C127.463 55.0405 127.381 55.2644 127.227 55.4379C127.154 55.5184 127.065 55.5829 126.965 55.627C126.865 55.6711 126.756 55.694 126.646 55.694C126.537 55.694 126.428 55.6711 126.328 55.627C126.228 55.5829 126.139 55.5184 126.065 55.4379Z" fill="#55585A"/>
<path d="M105.327 56.0203C105.174 55.8466 105.092 55.6228 105.098 55.3927V41.1644C105.098 41.048 105.121 40.9327 105.166 40.8251C105.211 40.7175 105.277 40.6197 105.361 40.5374C105.444 40.4551 105.543 40.3898 105.652 40.3454C105.761 40.3009 105.878 40.2781 105.996 40.2783C106.097 40.2775 106.196 40.3007 106.286 40.346C106.376 40.3912 106.453 40.4572 106.511 40.5383C106.652 40.7168 106.726 40.9382 106.72 41.1644V55.3927C106.726 55.6231 106.644 55.8473 106.489 56.0203C106.416 56.1009 106.326 56.1654 106.226 56.2095C106.126 56.2536 106.018 56.2764 105.908 56.2764C105.799 56.2764 105.69 56.2536 105.59 56.2095C105.49 56.1654 105.4 56.1009 105.327 56.0203Z" fill="#55585A"/>
<path d="M196.333 56.021C196.179 55.848 196.096 55.6238 196.102 55.3934V45.2187C196.102 44.9833 196.197 44.7575 196.366 44.591C196.535 44.4246 196.764 44.3311 197.002 44.3311C197.103 44.3312 197.202 44.3549 197.291 44.4C197.381 44.4452 197.458 44.5107 197.517 44.591C197.658 44.7703 197.731 44.9921 197.724 45.2187V55.3934C197.73 55.6235 197.648 55.8473 197.495 56.021C197.422 56.1016 197.332 56.166 197.232 56.2102C197.132 56.2543 197.024 56.2771 196.914 56.2771C196.805 56.2771 196.696 56.2543 196.596 56.2102C196.496 56.166 196.406 56.1016 196.333 56.021Z" fill="#55585A"/>
<path d="M139.291 55.2734C138.355 54.7319 137.815 54.0058 137.669 53.0951C137.65 52.9765 137.667 52.8551 137.717 52.7458C137.767 52.6365 137.849 52.544 137.951 52.4797C138.198 52.3073 138.496 52.2197 138.798 52.2305C139.036 52.2223 139.268 52.3037 139.447 52.4582C139.622 52.6202 139.733 52.8384 139.759 53.0736C139.817 53.3118 139.933 53.5327 140.095 53.7177C140.258 53.9027 140.464 54.0464 140.695 54.1366C141.203 54.3673 141.928 54.4827 142.868 54.4827C143.959 54.4827 144.745 54.3381 145.224 54.0489C145.704 53.7597 145.944 53.2982 145.945 52.6643C145.953 52.5112 145.925 52.3584 145.864 52.2175C145.802 52.0767 145.709 51.9517 145.591 51.8521C145.328 51.6429 145.018 51.498 144.688 51.429C144.322 51.3419 143.818 51.2552 143.178 51.1691C142.396 51.0731 141.623 50.9189 140.865 50.7076C140.255 50.5255 139.713 50.1715 139.305 49.6892C138.871 49.1866 138.653 48.4734 138.653 47.5493C138.653 46.7289 139.039 46.0622 139.811 45.5495C140.582 45.0367 141.579 44.7803 142.802 44.7803C143.875 44.7803 144.783 44.9967 145.525 45.4295C146.268 45.8623 146.715 46.4263 146.867 47.1217C146.885 47.2402 146.869 47.3616 146.819 47.4709C146.768 47.5803 146.687 47.6727 146.584 47.737C146.337 47.9095 146.04 47.997 145.737 47.9862C145.517 48.0011 145.3 47.9311 145.131 47.7908C144.97 47.6327 144.85 47.4399 144.778 47.2278C144.59 46.6648 143.931 46.3832 142.802 46.3832C142.106 46.3832 141.58 46.4858 141.222 46.6909C141.059 46.7708 140.922 46.8947 140.827 47.0482C140.732 47.2018 140.683 47.3787 140.686 47.5585C140.674 47.7446 140.704 47.9308 140.772 48.1047C140.84 48.2785 140.945 48.4359 141.08 48.5662C141.365 48.8144 141.711 48.9856 142.083 49.0631C142.486 49.1584 143.046 49.2564 143.761 49.3569C144.519 49.4621 145.269 49.6162 146.006 49.8184C146.563 49.9881 147.062 50.3078 147.445 50.7414C147.85 51.1886 148.052 51.8316 148.052 52.6705C148.052 53.7402 147.591 54.5781 146.668 55.1842C145.746 55.7903 144.467 56.0933 142.83 56.0933C141.397 56.0882 140.218 55.8149 139.291 55.2734Z" fill="#55585A"/>
<path d="M153.315 55.462C152.443 54.9143 151.73 54.1539 151.243 53.2545C150.741 52.3323 150.478 51.3017 150.478 50.2547C150.478 49.2077 150.741 48.177 151.243 47.2549C151.729 46.3528 152.442 45.5897 153.315 45.0396C154.155 44.5063 155.133 44.2227 156.132 44.2227C157.131 44.2227 158.109 44.5063 158.95 45.0396C159.821 45.588 160.535 46.3489 161.021 47.2487C161.531 48.1692 161.795 49.2026 161.788 50.2516C161.796 50.3684 161.78 50.4857 161.74 50.5961C161.701 50.7064 161.638 50.8075 161.557 50.8931C161.481 50.9671 161.39 51.025 161.29 51.0633C161.191 51.1017 161.084 51.1196 160.977 51.1162H152.17C152.337 52.0711 152.833 52.9402 153.573 53.5775C154.309 54.2306 155.272 54.5771 156.261 54.5444C157.25 54.5117 158.187 54.1023 158.876 53.4022C158.966 53.2915 159.079 53.201 159.208 53.1366C159.336 53.0722 159.476 53.0353 159.62 53.0283C159.707 53.0242 159.794 53.0389 159.875 53.0713C159.956 53.1037 160.029 53.1531 160.088 53.216C160.268 53.397 160.37 53.6395 160.372 53.8929C160.376 54.1186 160.289 54.3368 160.132 54.5005C159.619 55.0513 159 55.4963 158.312 55.8097C157.517 56.1698 156.643 56.3264 155.771 56.2651C154.898 56.2038 154.056 55.9265 153.321 55.4589L153.315 55.462ZM160.085 49.3809C159.917 48.4283 159.426 47.5603 158.692 46.9195C157.994 46.2958 157.086 45.9503 156.144 45.9503C155.202 45.9503 154.293 46.2958 153.595 46.9195C152.854 47.5594 152.352 48.4261 152.17 49.3809H160.085Z" fill="#55585A"/>
<path d="M175.385 47.3293C174.898 46.4391 174.188 45.6861 173.323 45.1418C172.48 44.6123 171.501 44.3311 170.501 44.3311C169.501 44.3311 168.522 44.6123 167.679 45.1418C166.809 45.6831 166.095 46.4365 165.606 47.3293C165.103 48.2429 164.839 49.2662 164.839 50.306C164.839 51.3459 165.103 52.3692 165.606 53.2827C166.094 54.1762 166.808 54.9298 167.679 55.4703C168.519 56.0023 169.497 56.2839 170.496 56.281C171.259 56.2805 172.014 56.1191 172.709 55.8076C173.404 55.4961 174.023 55.0418 174.526 54.475L174.772 54.2196C175.577 53.4043 175.849 53.4058 176.15 52.7428V50.3045C176.156 49.2647 175.893 48.2405 175.385 47.3293ZM173.993 52.449C173.651 53.0858 173.144 53.6215 172.523 54.0012C171.914 54.3713 171.212 54.5673 170.496 54.5673C169.78 54.5673 169.078 54.3713 168.468 54.0012C167.845 53.6207 167.335 53.0854 166.988 52.449C166.628 51.7906 166.439 51.0542 166.439 50.306C166.439 49.5579 166.628 48.8214 166.988 48.1631C167.334 47.5269 167.845 46.9925 168.468 46.614C169.077 46.242 169.779 46.0449 170.496 46.0449C171.212 46.0449 171.914 46.242 172.523 46.614C173.145 46.9916 173.652 47.5266 173.993 48.1631C174.345 48.8239 174.529 49.5594 174.529 50.306C174.529 51.0527 174.345 51.7882 173.993 52.449Z" fill="#55585A"/>
<path d="M183.584 55.4595C182.792 54.9479 182.148 54.2438 181.712 53.4151C181.25 52.5605 181.011 51.6055 181.018 50.6368V45.2187C181.012 44.992 181.086 44.7702 181.227 44.5911C181.288 44.5105 181.368 44.4451 181.459 44.4001C181.55 44.355 181.65 44.3316 181.752 44.3316C181.854 44.3316 181.955 44.355 182.046 44.4001C182.137 44.4451 182.216 44.5105 182.277 44.5911C182.418 44.7702 182.492 44.992 182.486 45.2187V50.6368C182.48 51.3324 182.647 52.019 182.971 52.6367C183.275 53.2278 183.734 53.7281 184.3 54.0858C184.848 54.4314 185.484 54.615 186.134 54.615C186.784 54.615 187.421 54.4314 187.968 54.0858C188.535 53.7267 188.997 53.227 189.306 52.6367C189.637 52.0208 189.807 51.3335 189.801 50.6368V45.2187C189.795 44.992 189.869 44.7702 190.01 44.5911C190.07 44.5098 190.15 44.4438 190.241 44.3986C190.332 44.3534 190.433 44.3303 190.535 44.3311C190.636 44.3302 190.736 44.3534 190.825 44.3987C190.915 44.444 190.992 44.51 191.05 44.5911C191.185 44.7727 191.255 44.9936 191.248 45.2187V50.6368C191.255 51.6055 191.017 52.5605 190.554 53.4151C190.119 54.2441 189.474 54.9484 188.683 55.4595C187.927 55.9531 187.041 56.2163 186.135 56.2163C185.229 56.2163 184.343 55.9531 183.587 55.4595H183.584Z" fill="#55585A"/>
<path d="M196.333 55.4379C196.179 55.2644 196.097 55.0405 196.102 54.8102V49.4044C196.099 48.6366 196.296 47.8809 196.673 47.2092C197.041 46.5372 197.567 45.9625 198.208 45.5339C198.838 45.1051 199.571 44.8443 200.334 44.7771C200.453 44.7657 200.573 44.7811 200.685 44.8222C200.797 44.8632 200.898 44.9288 200.981 45.014C201.064 45.1006 201.129 45.2025 201.172 45.3139C201.215 45.4253 201.236 45.544 201.232 45.6631C201.235 45.7573 201.214 45.8507 201.173 45.9353C201.131 46.02 201.069 46.0934 200.992 46.1493C200.812 46.2795 200.6 46.3583 200.377 46.3769C199.64 46.4804 198.966 46.8451 198.481 47.403C197.985 47.9533 197.715 48.6665 197.724 49.4029V54.8087C197.73 55.0388 197.648 55.2626 197.495 55.4363C197.422 55.5169 197.332 55.5813 197.232 55.6255C197.132 55.6696 197.024 55.6924 196.914 55.6924C196.804 55.6924 196.696 55.6696 196.596 55.6255C196.496 55.5813 196.406 55.5169 196.333 55.4363V55.4379Z" fill="#55585A"/>
<path d="M209.267 55.4625C208.395 54.9152 207.681 54.1548 207.194 53.2549C206.692 52.3328 206.429 51.3021 206.429 50.2551C206.429 49.2082 206.692 48.1775 207.194 47.2554C207.681 46.3551 208.395 45.5941 209.267 45.0463C210.107 44.513 211.085 44.2295 212.084 44.2295C213.083 44.2295 214.061 44.513 214.901 45.0463C215.773 45.5941 216.487 46.3551 216.974 47.2554C217.476 48.1775 217.739 49.2082 217.739 50.2551C217.739 51.3021 217.476 52.3328 216.974 53.2549C216.487 54.1548 215.773 54.9152 214.901 55.4625C214.061 55.9968 213.083 56.281 212.084 56.281C211.085 56.281 210.107 55.9968 209.267 55.4625ZM214.112 53.9795C214.734 53.5963 215.242 53.0555 215.581 52.4135C215.934 51.7464 216.119 51.0048 216.119 50.2521C216.119 49.4993 215.934 48.7578 215.581 48.0907C215.242 47.4483 214.735 46.9075 214.112 46.5246C213.503 46.1507 212.801 45.9525 212.084 45.9525C211.367 45.9525 210.665 46.1507 210.056 46.5246C209.432 46.9088 208.921 47.449 208.576 48.0907C208.217 48.756 208.029 49.4982 208.029 50.2521C208.029 51.0059 208.217 51.7482 208.576 52.4135C208.921 53.0548 209.432 53.595 210.056 53.9795C210.665 54.3534 211.367 54.5516 212.084 54.5516C212.801 54.5516 213.503 54.3534 214.112 53.9795Z" fill="#55585A"/>
<path d="M222.273 55.7988V49.9961H223.053V55.1096H225.947V55.7942L222.273 55.7988Z" fill="#55585A"/>
<path d="M228.189 55.1618L228.293 55.791C228.114 55.8301 227.931 55.8512 227.747 55.8541C227.537 55.8646 227.327 55.8222 227.138 55.731C227.003 55.6601 226.896 55.547 226.833 55.4095C226.756 55.1359 226.726 54.8515 226.745 54.568V52.1497H226.216V51.5975H226.745V50.556L227.462 50.1299V51.5975H228.189V52.1497H227.462V54.6111C227.453 54.7431 227.466 54.8756 227.501 55.0034C227.527 55.0609 227.57 55.1092 227.624 55.1419C227.701 55.1799 227.786 55.1974 227.872 55.1926C227.978 55.1894 228.084 55.1791 228.189 55.1618Z" fill="#55585A"/>
<path d="M233.088 55.7988V55.2696C232.755 55.6849 232.267 55.8931 231.623 55.8942C231.222 55.898 230.826 55.8028 230.471 55.6172C230.131 55.4425 229.849 55.1756 229.658 54.8481C229.461 54.4997 229.361 54.1056 229.37 53.7066C229.364 53.3117 229.454 52.9212 229.63 52.5667C229.8 52.2303 230.073 51.9552 230.41 51.7806C230.771 51.5961 231.172 51.5025 231.578 51.5083C231.867 51.5014 232.154 51.5538 232.422 51.6621C232.651 51.7565 232.856 51.8988 233.024 52.079V49.9961H233.907V55.7942L233.088 55.7988ZM230.28 53.702C230.28 54.2404 230.421 54.6419 230.705 54.9096C230.836 55.0377 230.993 55.1389 231.164 55.2073C231.336 55.2757 231.519 55.3099 231.704 55.308C231.887 55.3121 232.068 55.2805 232.238 55.2151C232.407 55.1496 232.562 55.0515 232.693 54.9265C232.965 54.6727 233.1 54.2835 233.1 53.762C233.1 53.1866 232.963 52.7646 232.687 52.4959C232.553 52.3643 232.393 52.2608 232.218 52.1916C232.042 52.1223 231.854 52.0887 231.665 52.0929C231.483 52.088 231.301 52.1198 231.131 52.1865C230.961 52.2531 230.806 52.3532 230.677 52.4805C230.415 52.739 230.283 53.1461 230.282 53.702H230.28Z" fill="#55585A"/>
<path d="M237.921 55.2804C237.694 55.481 237.433 55.6418 237.151 55.7558C236.896 55.8493 236.626 55.8963 236.354 55.8942C235.886 55.8942 235.527 55.7804 235.276 55.5558C235.153 55.4476 235.055 55.3141 234.99 55.1648C234.925 55.0154 234.894 54.8538 234.898 54.6912C234.896 54.4946 234.945 54.3007 235.04 54.1282C235.13 53.9645 235.258 53.8242 235.413 53.719C235.572 53.6136 235.748 53.5346 235.932 53.4852C236.144 53.4363 236.359 53.4009 236.575 53.379C237.011 53.3392 237.442 53.2567 237.862 53.1329C237.862 53.036 237.862 52.9791 237.862 52.9467C237.862 52.6575 237.795 52.4529 237.657 52.3314C237.423 52.1541 237.13 52.0682 236.836 52.0899C236.573 52.0706 236.31 52.1319 236.084 52.2653C235.896 52.4265 235.769 52.6463 235.725 52.8883L235.02 52.7945C235.066 52.5328 235.173 52.2853 235.332 52.0714C235.5 51.8745 235.72 51.7279 235.968 51.6484C236.279 51.5427 236.606 51.4906 236.935 51.4945C237.236 51.4847 237.536 51.5274 237.821 51.6207C238.014 51.6825 238.187 51.7922 238.323 51.9391C238.436 52.0809 238.513 52.2469 238.548 52.4237C238.578 52.6414 238.59 52.861 238.584 53.0806V54.0298C238.573 54.4487 238.588 54.8679 238.629 55.285C238.661 55.4622 238.722 55.6327 238.812 55.7896H238.058C237.983 55.6291 237.936 55.4568 237.921 55.2804ZM237.862 53.6913C237.48 53.8241 237.085 53.9139 236.683 53.959C236.47 53.983 236.261 54.031 236.059 54.1021C235.944 54.1478 235.846 54.2267 235.778 54.3282C235.709 54.4298 235.674 54.5493 235.675 54.6712C235.673 54.7615 235.692 54.8511 235.73 54.9334C235.767 55.0157 235.823 55.0885 235.894 55.1466C236.076 55.2851 236.303 55.3524 236.533 55.3358C236.792 55.3406 237.047 55.2786 237.274 55.1558C237.482 55.0456 237.649 54.8733 237.751 54.6636C237.841 54.437 237.881 54.1942 237.868 53.9513L237.862 53.6913Z" fill="#55585A"/>
<path d="M240.466 55.8628C240.761 55.8628 241 55.6272 241 55.3367C241 55.0461 240.761 54.8105 240.466 54.8105C240.172 54.8105 239.933 55.0461 239.933 55.3367C239.933 55.6272 240.172 55.8628 240.466 55.8628Z" fill="#55585A"/>
<path d="M170.564 61.0993C169.347 61.1002 168.161 60.7145 167.183 59.9993C167.013 59.8558 166.906 59.6524 166.886 59.4326C166.866 59.2127 166.934 58.9938 167.075 58.8226C167.216 58.6514 167.42 58.5414 167.642 58.5161C167.865 58.4908 168.088 58.5521 168.265 58.6871C168.342 58.7471 169.981 59.9901 172.227 59.0625C174.509 58.1179 174.7 56.7134 174.7 55.4689V44.7758C174.7 44.5514 174.791 44.3362 174.952 44.1775C175.112 44.0188 175.331 43.9297 175.558 43.9297C175.786 43.9297 176.004 44.0188 176.165 44.1775C176.326 44.3362 176.416 44.5514 176.416 44.7758V55.4689C176.416 57.1903 176.015 59.3317 172.89 60.6224C172.155 60.9332 171.364 61.0954 170.564 61.0993Z" fill="#55585A"/>
</g>
<defs>
<clipPath id="clip0">
<rect width="241" height="67" fill="white"/>
</clipPath>
</defs>
</svg>
