<?xml version="1.0" encoding="UTF-8"?>
<svg xmlns="http://www.w3.org/2000/svg" viewBox="0 0 581.85 133.04">
  <defs>
    <style>
      .cls-1, .cls-2, .cls-3 {
        fill: #ff521b;
      }

      .cls-4 {
        fill: none;
      }

      .cls-4, .cls-5, .cls-3 {
        fill-rule: evenodd;
      }

      .cls-2 {
        font-family: NordiquePro-Bold, NordiquePro-Bold;
        font-size: 126.7px;
        font-weight: 700;
      }

      .cls-5 {
        fill: #fff;
      }
    </style>
  </defs>
  <g id="Logo">
    <g>
      <path d="m157.35,82.59c-3.85-2.22-6.9-5.24-9.14-9.07-2.24-3.83-3.36-8.05-3.36-12.67s1.12-8.84,3.36-12.67c2.24-3.83,5.29-6.85,9.14-9.07,3.85-2.22,8.08-3.32,12.71-3.32,3.83,0,7.4.77,10.71,2.31,3.31,1.54,6.15,3.66,8.5,6.37,2.36,2.71,4.02,5.81,5,9.31h-9.66c-1.26-2.75-3.18-4.96-5.77-6.61-2.59-1.66-5.52-2.49-8.78-2.49-2.99,0-5.71.71-8.16,2.14-2.45,1.42-4.39,3.37-5.81,5.84-1.42,2.47-2.13,5.2-2.13,8.19s.71,5.72,2.13,8.19c1.42,2.47,3.36,4.42,5.81,5.84,2.45,1.42,5.17,2.13,8.16,2.13s5.96-.78,8.5-2.34c2.54-1.56,4.49-3.67,5.84-6.33h9.73c-1.03,3.41-2.72,6.44-5.07,9.1-2.36,2.66-5.17,4.74-8.44,6.23-3.27,1.49-6.79,2.24-10.57,2.24-4.62,0-8.85-1.11-12.71-3.32Z"/>
      <path d="m198.12,85.36v-49h9.1v49h-9.1Z"/>
      <path d="m242.92,50.36v18.41c0,5.69-1.4,9.97-4.2,12.84-2.8,2.87-6.53,4.3-11.2,4.3s-8.4-1.43-11.2-4.3c-2.8-2.87-4.2-7.15-4.2-12.84v-18.41h9.1v18.41c0,2.85.5,4.93,1.5,6.26,1,1.33,2.6,2,4.79,2s3.79-.67,4.79-2c1-1.33,1.5-3.42,1.5-6.26v-18.41h9.1Z"/>
      <path d="m247.82,36.36h9.17v16.1c2.47-1.77,5.41-2.66,8.82-2.66s6.28.8,9.03,2.42c2.75,1.61,4.95,3.8,6.58,6.58,1.63,2.78,2.45,5.8,2.45,9.07s-.82,6.29-2.45,9.07c-1.63,2.78-3.83,4.97-6.58,6.58-2.75,1.61-5.76,2.42-9.03,2.42s-6.28-.8-9.03-2.42c-2.75-1.61-4.94-3.8-6.54-6.58-1.61-2.78-2.42-5.8-2.42-9.07v-31.5Zm11.62,24.96c-1.73,1.75-2.59,3.93-2.59,6.54s.86,4.79,2.59,6.54c1.73,1.75,3.87,2.62,6.44,2.62s4.69-.88,6.37-2.62c1.68-1.75,2.52-3.93,2.52-6.54s-.84-4.79-2.52-6.54c-1.68-1.75-3.8-2.62-6.37-2.62s-4.71.88-6.44,2.62Z"/>
      <path d="m321,76.92c-1.61,2.78-3.79,4.97-6.54,6.58-2.75,1.61-5.76,2.42-9.03,2.42s-6.28-.8-9.03-2.42c-2.75-1.61-4.95-3.8-6.58-6.58-1.63-2.78-2.45-5.8-2.45-9.07s.82-6.29,2.45-9.07c1.63-2.78,3.83-4.97,6.58-6.58,2.75-1.61,5.76-2.42,9.03-2.42s6.35.89,8.82,2.66v-16.1h9.17v31.5c0,3.27-.8,6.29-2.42,9.07Zm-22.01-15.61c-1.68,1.75-2.52,3.93-2.52,6.54s.84,4.79,2.52,6.54,3.8,2.62,6.37,2.62,4.71-.88,6.44-2.62,2.59-3.93,2.59-6.54-.86-4.79-2.59-6.54-3.87-2.62-6.44-2.62-4.69.88-6.37,2.62Z"/>
      <path d="m329.61,58.93c1.56-2.78,3.71-4.99,6.44-6.65,2.73-1.66,5.73-2.48,9-2.48,2.99,0,5.86.69,8.61,2.06,2.75,1.38,5.03,3.37,6.83,5.99,1.8,2.61,2.74,5.69,2.83,9.24.05,1.49-.05,2.94-.28,4.34h-25.97c.42,1.73,1.34,3.09,2.77,4.09,1.42,1,3.16,1.5,5.21,1.5,1.45,0,2.62-.19,3.54-.56.91-.37,1.74-.86,2.48-1.47l10.85.07c-1.45,3.22-3.66,5.83-6.65,7.84-2.99,2.01-6.3,3.01-9.94,3.01-3.31,0-6.35-.8-9.1-2.42-2.75-1.61-4.93-3.79-6.54-6.54-1.61-2.75-2.42-5.76-2.42-9.03s.78-6.22,2.34-9Zm23.98,5.21c-.7-1.63-1.81-2.95-3.33-3.96-1.52-1-3.16-1.5-4.94-1.5-1.96,0-3.64.49-5.04,1.47-1.4.98-2.47,2.31-3.22,3.99h16.52Z"/>
      <path d="m367.17,85.36v-49h9.1v49h-9.1Z"/>
      <path d="m387.33,84.55c-2.29-.91-4.12-2.26-5.5-4.06-1.38-1.8-2.06-3.96-2.06-6.47h8.68c0,1.12.62,2.03,1.85,2.73,1.24.7,2.81,1.05,4.73,1.05s3.23-.32,4.23-.95,1.51-1.44,1.51-2.42-.56-1.75-1.68-2.17-2.92-.84-5.39-1.26c-2.75-.47-5.04-.99-6.86-1.58-1.82-.58-3.39-1.59-4.72-3.01s-2-3.44-2-6.06c0-2.01.64-3.81,1.92-5.42,1.28-1.61,3.02-2.87,5.21-3.78s4.64-1.36,7.35-1.36c4.2,0,7.63,1.01,10.29,3.04,2.66,2.03,3.99,4.84,3.99,8.43h-8.68c0-.98-.57-1.8-1.71-2.45-1.14-.65-2.49-.98-4.03-.98s-2.74.3-3.74.91c-1,.61-1.51,1.38-1.51,2.31,0,.84.54,1.47,1.61,1.89,1.07.42,2.78.82,5.11,1.19,2.75.47,5.06.99,6.93,1.58,1.87.58,3.5,1.59,4.9,3.01,1.4,1.42,2.1,3.39,2.1,5.92.05,3.73-1.32,6.54-4.09,8.43-2.78,1.89-6.43,2.83-10.96,2.83-2.71,0-5.2-.45-7.49-1.36Z"/>
      <path d="m415.36,58.93c1.56-2.78,3.71-4.99,6.44-6.65,2.73-1.66,5.73-2.48,9-2.48,2.99,0,5.86.69,8.61,2.06,2.75,1.38,5.03,3.37,6.83,5.99,1.8,2.61,2.74,5.69,2.83,9.24.05,1.49-.05,2.94-.28,4.34h-25.97c.42,1.73,1.34,3.09,2.77,4.09,1.42,1,3.16,1.5,5.21,1.5,1.45,0,2.62-.19,3.54-.56.91-.37,1.74-.86,2.48-1.47l10.85.07c-1.45,3.22-3.66,5.83-6.65,7.84-2.99,2.01-6.3,3.01-9.94,3.01-3.31,0-6.35-.8-9.1-2.42-2.75-1.61-4.93-3.79-6.54-6.54-1.61-2.75-2.42-5.76-2.42-9.03s.78-6.22,2.34-9Zm23.98,5.21c-.7-1.63-1.81-2.95-3.33-3.96-1.52-1-3.16-1.5-4.94-1.5-1.96,0-3.64.49-5.04,1.47-1.4.98-2.47,2.31-3.22,3.99h16.52Z"/>
      <path d="m460.69,96.38c-2.99-1.98-5.18-4.61-6.58-7.88h11.06c.89.7,1.76,1.2,2.62,1.5.86.3,1.81.46,2.83.46,2.43,0,4.49-.61,6.2-1.82,1.7-1.21,2.55-2.87,2.55-4.97v-.07c-2.71,1.54-5.62,2.31-8.75,2.31s-6.29-.8-9.06-2.42c-2.78-1.61-4.97-3.8-6.58-6.58s-2.42-5.8-2.42-9.07.8-6.29,2.42-9.07c1.61-2.78,3.8-4.97,6.58-6.58,2.78-1.61,5.8-2.42,9.06-2.42s6.29.8,9.07,2.42c2.78,1.61,4.97,3.8,6.58,6.58,1.61,2.78,2.42,5.8,2.42,9.07v13.44c0,3.27-.8,6.29-2.42,9.06-1.61,2.78-3.8,4.97-6.58,6.58-2.78,1.61-5.8,2.42-9.07,2.42-3.64,0-6.95-.99-9.94-2.97Zm16.38-21.98c1.68-1.75,2.52-3.93,2.52-6.54s-.84-4.79-2.52-6.54-3.8-2.62-6.37-2.62-4.71.88-6.44,2.62c-1.73,1.75-2.59,3.93-2.59,6.54s.86,4.79,2.59,6.54c1.73,1.75,3.87,2.62,6.44,2.62s4.69-.88,6.37-2.62Z"/>
      <path d="m523.69,50.36v18.41c0,5.69-1.4,9.97-4.2,12.84s-6.53,4.3-11.2,4.3-8.4-1.43-11.2-4.3-4.2-7.15-4.2-12.84v-18.41h9.1v18.41c0,2.85.5,4.93,1.5,6.26,1,1.33,2.6,2,4.79,2s3.79-.67,4.79-2c1-1.33,1.5-3.42,1.5-6.26v-18.41h9.1Z"/>
      <path d="m527.88,66.95c0-5.55,1.38-9.73,4.13-12.53,2.75-2.8,6.37-4.2,10.85-4.2h.42v8.89h-.35c-2.01,0-3.5.63-4.48,1.89-.98,1.26-1.47,3.24-1.47,5.95v18.41h-9.1v-18.41Z"/>
      <path d="m572.86,52.21c2.78,1.61,4.97,3.8,6.58,6.58,1.61,2.78,2.42,5.8,2.42,9.07s-.8,6.29-2.42,9.07-3.8,4.97-6.58,6.58c-2.78,1.61-5.8,2.42-9.07,2.42s-6.29-.8-9.06-2.42c-2.78-1.61-4.97-3.8-6.58-6.58s-2.42-5.8-2.42-9.07.8-6.29,2.42-9.07c1.61-2.78,3.8-4.97,6.58-6.58,2.78-1.61,5.8-2.42,9.06-2.42s6.29.8,9.07,2.42Zm-15.43,9.1c-1.73,1.75-2.59,3.93-2.59,6.54s.86,4.79,2.59,6.54c1.73,1.75,3.87,2.62,6.44,2.62s4.69-.88,6.37-2.62,2.52-3.93,2.52-6.54-.84-4.79-2.52-6.54-3.8-2.62-6.37-2.62-4.71.88-6.44,2.62Z"/>
    </g>
    <text class="cls-2" transform="translate(0 107.7) scale(1.05 1)"><tspan x="0" y="0">1</tspan></text>
    <g>
      <path d="m9.3,130.77l-.37-2.11c0-.07-.05-.11-.14-.11h-2.9c-.09,0-.14.03-.14.09l-.42,2.13c-.02.16-.12.24-.3.24h-2.71c-.2,0-.28-.1-.23-.29l3.41-14.87c.03-.16.13-.24.3-.24h3.13c.17,0,.27.08.3.24l3.38,14.87.02.09c0,.13-.09.2-.25.2h-2.78c-.19,0-.29-.08-.3-.24Zm-2.92-4.62h1.99c.06,0,.09-.04.09-.11l-.97-5.68s-.04-.07-.07-.07-.05.02-.07.07l-1.09,5.68c-.02.07.02.11.12.11Z"/>
      <path d="m15.31,130.94c-.05-.05-.08-.11-.08-.19v-14.87c0-.07.03-.14.08-.19.05-.05.12-.08.2-.08h2.92c.15,0,.25.07.3.22l2.99,8.23s.04.06.08.05c.04,0,.06-.03.06-.08v-8.16c0-.07.03-.14.08-.19.05-.05.12-.08.2-.08h2.66c.08,0,.14.03.2.08.05.05.08.11.08.19v14.87c0,.07-.03.14-.08.19-.05.05-.12.08-.2.08h-2.94c-.15,0-.25-.07-.3-.22l-2.99-8.25s-.04-.07-.08-.07-.06.02-.06.07l.02,8.21c0,.07-.03.14-.08.19-.05.05-.12.08-.2.08h-2.66c-.08,0-.14-.03-.2-.08Zm5.11-17.46c-.11-.06-.23-.12-.36-.2-.13-.07-.24-.12-.32-.15-.09-.03-.18-.04-.29-.04-.34,0-.62.16-.83.48-.11.15-.24.18-.39.09l-.97-.66c-.12-.09-.16-.21-.12-.35.2-.51.48-.89.83-1.14.36-.25.76-.37,1.2-.37s.94.16,1.48.48c.05.03.13.08.24.17.12.08.23.14.35.19s.24.07.36.07c.35,0,.63-.15.83-.44.11-.18.24-.21.39-.11l.93.62c.08.04.12.12.12.22,0,.09-.03.18-.09.29-.26.44-.58.76-.96.97-.38.21-.76.31-1.15.31-.32,0-.74-.13-1.25-.4Z"/>
      <path d="m29.2,130c-.85-.79-1.27-1.85-1.27-3.17v-7.04c0-1.32.42-2.38,1.27-3.17.85-.79,1.98-1.19,3.41-1.19s2.56.4,3.42,1.19c.86.79,1.29,1.85,1.29,3.17v7.04c0,1.32-.43,2.38-1.29,3.17-.86.79-2,1.19-3.42,1.19s-2.56-.4-3.41-1.19Zm4.45-1.9c.26-.29.39-.66.39-1.13v-7.3c0-.47-.13-.85-.39-1.13s-.61-.43-1.04-.43-.78.14-1.03.43c-.25.29-.38.66-.38,1.13v7.3c0,.47.13.85.38,1.13.25.29.6.43,1.03.43s.78-.14,1.04-.43Z"/>
      <path d="m42.05,130.69c-.68-.34-1.2-.81-1.58-1.42s-.56-1.31-.56-2.1v-.7c0-.07.03-.14.08-.19.05-.05.12-.08.2-.08h2.66c.08,0,.14.03.2.08.05.05.08.11.08.19v.55c0,.46.12.82.36,1.1.24.28.54.42.92.42s.68-.13.93-.4c.25-.26.37-.61.37-1.03s-.15-.82-.45-1.13c-.3-.32-.9-.78-1.8-1.4-.77-.53-1.4-1-1.88-1.41-.48-.41-.89-.92-1.23-1.52s-.51-1.3-.51-2.09c0-1.25.41-2.24,1.23-2.99.82-.75,1.89-1.12,3.22-1.12s2.46.39,3.29,1.17,1.25,1.8,1.25,3.06v.53c0,.07-.03.14-.08.19-.05.05-.12.08-.2.08h-2.66c-.08,0-.14-.03-.2-.08-.05-.05-.08-.11-.08-.19v-.59c0-.45-.12-.82-.36-1.09-.24-.27-.56-.41-.96-.41-.37,0-.67.13-.89.38-.22.26-.34.61-.34,1.07s.15.83.44,1.17c.29.34.86.81,1.71,1.41.96.66,1.68,1.2,2.17,1.62.49.42.86.88,1.13,1.4s.41,1.12.41,1.83c0,1.29-.42,2.32-1.25,3.08s-1.92,1.14-3.27,1.14c-.9,0-1.68-.17-2.36-.51Z"/>
      <path d="m57.8,130.06c-.83-.75-1.25-1.76-1.25-3v-1.52c0-.07.03-.14.08-.19.05-.05.12-.08.2-.08h2.71c.08,0,.14.03.2.08.05.05.08.11.08.19v1.56c0,.43.12.77.35,1.03.23.26.54.4.93.4s.72-.13.96-.4c.24-.26.36-.61.36-1.03v-11.22c0-.07.03-.14.08-.19.05-.05.12-.08.2-.08h2.71c.08,0,.14.03.2.08.05.05.08.11.08.19v11.18c0,1.25-.42,2.25-1.26,3-.84.76-1.95,1.13-3.32,1.13s-2.46-.38-3.29-1.13Z"/>
      <path d="m69.95,129.95c-.84-.83-1.26-1.93-1.26-3.31v-10.76c0-.07.03-.14.08-.19.05-.05.12-.08.2-.08h2.71c.08,0,.14.03.2.08.05.05.08.11.08.19v11.07c0,.47.12.85.37,1.14.25.29.57.44.97.44s.72-.15.96-.44c.24-.29.36-.67.36-1.14v-11.07c0-.07.03-.14.08-.19.05-.05.12-.08.2-.08h2.71c.08,0,.14.03.2.08.05.05.08.11.08.19v10.76c0,1.38-.42,2.48-1.26,3.31-.84.83-1.95,1.24-3.32,1.24s-2.51-.41-3.35-1.24Z"/>
      <path d="m80.86,130.94c-.05-.05-.08-.11-.08-.19v-14.87c0-.07.03-.14.08-.19.05-.05.12-.08.2-.08h2.92c.15,0,.25.07.3.22l2.99,8.23s.04.06.08.05c.04,0,.06-.03.06-.08v-8.16c0-.07.03-.14.08-.19.05-.05.12-.08.2-.08h2.66c.08,0,.14.03.2.08.05.05.08.11.08.19v14.87c0,.07-.03.14-.08.19-.05.05-.12.08-.2.08h-2.94c-.15,0-.25-.07-.3-.22l-2.99-8.25s-.04-.07-.08-.07-.06.02-.06.07l.02,8.21c0,.07-.03.14-.08.19-.05.05-.12.08-.2.08h-2.66c-.08,0-.14-.03-.2-.08Z"/>
      <path d="m102.89,115.69c.05.05.08.11.08.19v2.13c0,.07-.03.14-.08.19-.05.05-.12.08-.2.08h-2.9c-.08,0-.12.04-.12.11v12.36c0,.07-.03.14-.08.19-.05.05-.12.08-.2.08h-2.71c-.08,0-.14-.03-.2-.08-.05-.05-.08-.11-.08-.19v-12.36c0-.07-.04-.11-.12-.11h-2.78c-.08,0-.14-.03-.2-.08-.05-.05-.08-.11-.08-.19v-2.13c0-.07.03-.14.08-.19.05-.05.12-.08.2-.08h9.17c.08,0,.14.03.2.08Z"/>
      <path d="m106.19,130c-.85-.79-1.27-1.85-1.27-3.17v-7.04c0-1.32.42-2.38,1.27-3.17.85-.79,1.98-1.19,3.41-1.19s2.56.4,3.42,1.19c.86.79,1.29,1.85,1.29,3.17v7.04c0,1.32-.43,2.38-1.29,3.17-.86.79-2,1.19-3.42,1.19s-2.56-.4-3.41-1.19Zm4.45-1.9c.26-.29.39-.66.39-1.13v-7.3c0-.47-.13-.85-.39-1.13s-.61-.43-1.04-.43-.78.14-1.03.43c-.25.29-.38.66-.38,1.13v7.3c0,.47.13.85.38,1.13.25.29.6.43,1.03.43s.78-.14,1.04-.43Z"/>
      <path d="m119.05,130.69c-.68-.34-1.2-.81-1.58-1.42s-.56-1.31-.56-2.1v-.7c0-.07.03-.14.08-.19.05-.05.12-.08.2-.08h2.66c.08,0,.14.03.2.08.05.05.08.11.08.19v.55c0,.46.12.82.36,1.1.24.28.54.42.92.42s.68-.13.93-.4c.25-.26.37-.61.37-1.03s-.15-.82-.45-1.13c-.3-.32-.9-.78-1.8-1.4-.77-.53-1.4-1-1.88-1.41-.48-.41-.89-.92-1.23-1.52s-.51-1.3-.51-2.09c0-1.25.41-2.24,1.23-2.99.82-.75,1.89-1.12,3.22-1.12s2.46.39,3.29,1.17,1.25,1.8,1.25,3.06v.53c0,.07-.03.14-.08.19-.05.05-.12.08-.2.08h-2.66c-.08,0-.14-.03-.2-.08-.05-.05-.08-.11-.08-.19v-.59c0-.45-.12-.82-.36-1.09-.24-.27-.56-.41-.96-.41-.37,0-.67.13-.89.38-.22.26-.34.61-.34,1.07s.15.83.44,1.17c.29.34.86.81,1.71,1.41.96.66,1.68,1.2,2.17,1.62.49.42.86.88,1.13,1.4s.41,1.12.41,1.83c0,1.29-.42,2.32-1.25,3.08s-1.92,1.14-3.27,1.14c-.9,0-1.68-.17-2.36-.51Z"/>
    </g>
  </g>
  <g id="Ootroo">
    <g id="Auto">
      <path class="cls-4" d="m56.28,48.99c-1.26-.09-3.19.46-3.79,1.34-2.51,3.68,3.87,3.16,5.66,3.24-1.16.99-5.59,5.64-5.86,6.75-.3,1.23-.3,11.08-.32,13.19-.04,3.06-.75,10.27,1.91,11.25.76.28,5.03.31,5.96.11,2.2-.49,1.73-2.5,1.83-4.88,7.74-.54,36.26-.54,43.97,0,.09,2.22-.35,4.22,1.57,4.82.93.29,5.38.26,6.21-.04,3.3-1.21,1.59-13.27,1.66-17.38.12-7.19-.1-9.21-5.92-13.81,1.9-.09,7.62.6,5.8-3.01-.55-1.09-4.05-2.46-5.34-.95-2.62,3.06-2.34-.23-4.73-3.68-2.78-5.58-3.48-5.48-12.2-5.39-2.88-.13-5.98-.24-8.85-.25-2.98-.01-14.47.35-16.95.93-2.42.05-5.61,6.33-6.74,8.56-1.77,3.48-1.45-.61-3.85-.78h0Z"/>
      <ellipse class="cls-1" cx="64.72" cy="67.46" rx="2.83" ry="2.83"/>
      <ellipse class="cls-1" cx="102.03" cy="67.46" rx="2.83" ry="2.83"/>
      <g>
        <path class="cls-5" d="m93.83,64.91h-20.35c-.34.14-.57.48-.57.85s.22.71.57.85h20.35c.34-.14.57-.48.57-.85s-.22-.71-.57-.85Z"/>
        <path class="cls-3" d="m93.83,64.91h-20.35c-.34.14-.57.48-.57.85s.22.71.57.85h20.35c.34-.14.57-.48.57-.85s-.22-.71-.57-.85Z"/>
      </g>
      <g>
        <path class="cls-5" d="m93.83,69.16h-20.35c-.34.14-.57.48-.57.85s.22.71.57.85h20.35c.34-.14.57-.48.57-.85s-.22-.71-.57-.85Z"/>
        <path class="cls-3" d="m93.83,69.16h-20.35c-.34.14-.57.48-.57.85s.22.71.57.85h20.35c.34-.14.57-.48.57-.85s-.22-.71-.57-.85Z"/>
      </g>
      <path class="cls-3" d="m63.37,53.31h40.7c-.43-1.57-.99-3.28-1.7-5.09-.74-1.9-1.54-3.6-2.32-5.09-5-.54-10.59-.89-16.67-.85-5.4.03-10.39.36-14.92.85-.91,1.22-1.9,2.73-2.83,4.53-1.07,2.08-1.78,4.03-2.26,5.66Z"/>
    </g>
    <path class="cls-1" d="m54.16,27.54c-3.93,3.24-6.56,6.5-8.21,8.88-.68.98-2.49,3.68-4.17,7.55-.56,1.29-2.21,5.24-3.19,10.71-.42,2.37-1.06,6.08-.7,10.9.18,2.34.52,4.12.81,5.55.42,2.09,1.08,5.33,2.72,9.28.51,1.21,2.02,4.67,4.85,8.65.72,1.02,2.71,3.72,5.86,6.74,3.07,2.94,5.75,4.75,6.4,5.18,1.4.93,4.9,3.13,9.89,4.88,2.5.88,9.1,2.94,17.68,2.51,4.42-.22,7.82-1.04,9.15-1.39,1.65-.43,5.36-1.5,9.7-3.79,3.69-1.95,6.32-3.98,7.66-5.07.67-.55,2.55-2.13,4.71-4.47,1.87-2.03,3.13-3.74,3.54-4.31.67-.93,3.22-4.54,5.26-9.69,3.45-8.7,3.34-16.48,3.27-18.55-.1-3.19-.66-10.03-4.2-17.74-2.51-5.46-5.5-9.15-6.9-10.76-1.12-1.29-4.31-4.82-9.42-8.18-4.29-2.82-8.11-4.33-10.24-5.07-4.7-1.64-8.62-2.15-10.63-2.35-2.32-.22-7.01-.49-12.78.6-1.04.2-4.35.86-8.36,2.43-3.98,1.55-6.63,3.2-7.25,3.63-.1.07-.55.39-1.2.82-.82.54-1.25.82-1.25.82-.48.31-.69.43-1.01.68-.29.23-.4.35-.63.55-.82.74-1.21.79-1.38,1.02-.7.94,2.71,4.13,6.38,8.75,1.52,1.91,2.16,2.94,3.72,3.64,1.87.83,3.6.66,4.79.54,0,0,7.37-.74,19.85-.12.48.02,1.56.09,3.07.09,2.11,0,2.39-.11,4.14-.09,3.39.04,4.46.5,5.01.78.85.44,1.4.96,1.53,1.07.53.51.92,1.18,1.69,2.51.27.47.78,1.36,1.34,2.51.38.77.57,1.16.62,1.27.36.8.44,1.11.74,1.49.33.41.72.66,1,.8.2-.07.5-.2.82-.42.7-.5.66-.91,1.2-1.24.52-.32,1.09-.26,1.76-.2.76.07,1.3.31,1.43.36.49.21,1.8.79,2.02,1.98.03.17.13.72-.16,1.22-.47.8-1.61.89-3.65,1.04-.95.07-1.73.07-2.23.05.79.51,4.13,2.75,5.18,5.98.27.83.61,2.43.71,4.22.04.65-.07,1.06.02,1.76.14,1.13-.01,1.38.11,5.31.03,1.01.26,8.06.02,10.5-.01.1-.08.72-.33,1.49-.2.61-.36,1.11-.76,1.49-.16.16-.49.41-1.65.62-.71.13-1.12.07-3.34.09-1.26.01-1.7-.03-2.18-.29-.17-.09-.76-.41-1.07-1.06-.11-.23-.16-.45-.2-.62-.07-.32-.08-.62-.09-1.22-.01-.57.01-.62-.02-.93-.02-.19-.04-.3-.04-.51,0-.25.04-.31,0-.38-.11-.19-.51-.15-.85-.13-.48.03-.97-.04-1.45-.04-.86,0-1.35-.07-1.87-.09-6.12-.28-19.95-.22-19.95-.22-7.92.03-10.14.09-11.69.13-3.28.09-6.03.21-8.04.31,0,.95-.04,1.74-.08,2.32-.09,1.19-.19,1.56-.46,1.86-.3.32-.68.42-1.32.53-1.44.25-2.46.41-4.21.26-1.27-.11-1.92-.18-2.42-.6-.55-.46-.73-1.06-.98-1.88-.25-.82-.34-1.57-.38-3.06-.04-1.35-.01-2.36,0-2.86,0,0,.07-2.64.08-5.38.01-2.43-.04-2.32,0-4.09.04-2.08.12-2.43.11-3.79,0-.6.08-1.2.05-1.8-.01-.3-.05-.69.11-1.15.12-.35.29-.59.38-.71,1.55-2.08,3.19-3.79,3.19-3.79.86-.91,1.3-1.36,1.36-1.42.56-.5.84-.67.79-.82-.09-.3-1.31.06-3-.14-1.05-.12-2.6-.3-3-1.26-.35-.86.42-1.87.49-1.96.48-.62,1.14-.83,1.77-1.04.65-.21,1.17-.23,1.55-.25.64-.03.96-.04,1.31.14.46.23.76.67.95.95.21.32.3.54.6.82.19.17.37.28.5.34.41-.68.98-1.67,1.66-2.88.53-.95.64-1.26,1.1-2.03.13-.22.69-1.15,1.55-2.34.95-1.3,1.45-1.78,1.85-2.11.46-.38.85-.61,1.33-.75.08-.02.27-.07.96-.15.82-.09,1.4-.11,1.4-.11,1.49-.06,2.98-.2,4.47-.29,1.76-.11,1.72-.11,2.05-.13,1.32-.06,2.06-.06,3.16-.09,1.8-.04,2.62-.11,3.67-.15,1.5-.06,3.7-.08,6.59.11"/>
  </g>
</svg>