<?xml version="1.0" encoding="UTF-8"?><svg id="Logo" xmlns="http://www.w3.org/2000/svg" viewBox="0 0 588.08 118.62"><defs><style>.cls-1{font-size:70px;}.cls-1,.cls-2{font-family:NordiquePro-Bold, NordiquePro-Bold;}.cls-1,.cls-2,.cls-3{font-weight:700;}.cls-4,.cls-2,.cls-5{fill:#ff521b;}.cls-6{fill:#fff;}.cls-6,.cls-5{fill-rule:evenodd;}.cls-7{letter-spacing:.04em;}.cls-8{letter-spacing:.05em;}.cls-9{letter-spacing:0em;}.cls-2{font-size:126.7px;}.cls-10{letter-spacing:.03em;}.cls-3{font-family:BarlowCondensed-Bold, 'Barlow Condensed';font-size:22px;}.cls-11{letter-spacing:0em;}.cls-12{letter-spacing:.04em;}.cls-13{letter-spacing:-.02em;}</style></defs><text id="_10_años_junto_a_ti" class="cls-3" transform="translate(6.04 114.58) scale(1.05 1)"><tspan class="cls-8" x="0" y="0">AÑOS J</tspan><tspan class="cls-12" x="62.85" y="0">U</tspan><tspan class="cls-7" x="74.25" y="0">N</tspan><tspan class="cls-10" x="86.55" y="0">T</tspan><tspan class="cls-8" x="97.41" y="0">OS</tspan></text><text id="clubdelseguro" class="cls-1" transform="translate(145.7 70.45)"><tspan x="0" y="0">C</tspan><tspan class="cls-11" x="52.92" y="0">lu</tspan><tspan class="cls-9" x="102.62" y="0">bdelsegu</tspan><tspan class="cls-13" x="382.68" y="0">r</tspan><tspan x="400.88" y="0">o</tspan></text><circle id="Circulo" class="cls-4" cx="86.2" cy="47.7" r="45.82"/><g id="Auto"><path class="cls-6" d="m58.8,34.05c-1.26-.09-3.19.46-3.79,1.34-2.52,3.67,3.87,3.16,5.66,3.24-1.16.99-5.6,5.64-5.86,6.74-.3,1.23-.3,11.07-.32,13.19-.04,3.06-.75,10.27,1.92,11.25.77.28,5.04.31,5.96.11,2.2-.49,1.73-2.5,1.83-4.88,7.74-.54,36.3-.54,44.01,0,.09,2.22-.35,4.21,1.57,4.82.93.29,5.39.26,6.21-.04,3.31-1.21,1.59-13.26,1.66-17.37.12-7.18-.1-9.21-5.93-13.8,1.9-.09,7.63.6,5.8-3.01-.55-1.09-4.05-2.46-5.34-.95-2.63,3.06-2.34-.23-4.73-3.68-2.78-5.57-3.48-5.48-12.21-5.39-2.88-.13-5.99-.24-8.86-.25-2.98-.01-14.49.35-16.97.93-2.43.05-5.61,6.33-6.74,8.55-1.77,3.48-1.45-.61-3.85-.78h0Z"/><circle class="cls-4" cx="67.25" cy="52.51" r="2.83"/><circle class="cls-4" cx="104.59" cy="52.51" r="2.83"/><g><path class="cls-6" d="m96.39,49.96h-20.37c-.34.14-.57.48-.57.85s.22.71.57.85h20.37c.34-.14.57-.48.57-.85s-.22-.71-.57-.85Z"/><path class="cls-5" d="m96.39,49.96h-20.37c-.34.14-.57.48-.57.85s.22.71.57.85h20.37c.34-.14.57-.48.57-.85s-.22-.71-.57-.85Z"/></g><g><path class="cls-6" d="m96.39,54.2h-20.37c-.34.14-.57.48-.57.85s.22.71.57.85h20.37c.34-.14.57-.48.57-.85s-.22-.71-.57-.85Z"/><path class="cls-5" d="m96.39,54.2h-20.37c-.34.14-.57.48-.57.85s.22.71.57.85h20.37c.34-.14.57-.48.57-.85s-.22-.71-.57-.85Z"/></g><path class="cls-5" d="m65.9,38.36h40.74c-.43-1.57-.99-3.28-1.7-5.09-.74-1.9-1.54-3.6-2.32-5.09-5-.54-10.6-.89-16.69-.85-5.4.03-10.4.36-14.93.85-.91,1.22-1.9,2.73-2.83,4.53-1.07,2.08-1.78,4.02-2.26,5.66Z"/></g><text class="cls-2" transform="translate(2.6 92.79) scale(1.05 1)"><tspan x="0" y="0">1</tspan></text></svg>