<svg width="21" height="17" viewBox="0 0 21 17" fill="none" xmlns="http://www.w3.org/2000/svg">
<path d="M20.6562 1.96046C19.9092 2.28273 19.0962 2.51466 18.2588 2.60499C19.1282 2.08848 19.7793 1.27247 20.0898 0.310069C19.274 0.795394 18.3803 1.13571 17.4482 1.31593C17.0587 0.899489 16.5876 0.567734 16.0642 0.341337C15.5409 0.114939 14.9765 -0.00124947 14.4062 1.01328e-05C12.0991 1.01328e-05 10.2437 1.87013 10.2437 4.16505C10.2437 4.48732 10.2827 4.80958 10.3462 5.11964C6.8916 4.93898 3.81055 3.28858 1.76221 0.761729C1.38898 1.39922 1.19339 2.12507 1.1958 2.86378C1.1958 4.30909 1.93066 5.58351 3.05127 6.33302C2.39088 6.30701 1.74595 6.12549 1.16895 5.80323V5.8545C1.16895 7.87843 2.59961 9.55568 4.50635 9.94142C4.14834 10.0344 3.78005 10.082 3.41016 10.083C3.13916 10.083 2.88281 10.0562 2.62402 10.0195C3.15137 11.6699 4.68701 12.8687 6.51562 12.9077C5.08496 14.0283 3.29297 14.6875 1.34717 14.6875C0.998047 14.6875 0.675781 14.6753 0.341309 14.6362C2.18701 15.8203 4.37695 16.5039 6.73535 16.5039C14.3916 16.5039 18.5811 10.1611 18.5811 4.65577C18.5811 4.47511 18.5811 4.29444 18.5688 4.11378C19.3794 3.52052 20.0898 2.78565 20.6562 1.96046Z" fill="black"/>
</svg>
