<svg width="17" height="17" viewBox="0 0 17 17" fill="none" xmlns="http://www.w3.org/2000/svg">
<path d="M13.1598 9.2067C13.0768 9.12357 12.9782 9.05761 12.8697 9.01261C12.7612 8.96761 12.6449 8.94445 12.5274 8.94445C12.4099 8.94445 12.2936 8.96761 12.1851 9.01261C12.0766 9.05761 11.978 9.12357 11.895 9.2067L10.4692 10.6324C9.80819 10.4357 8.5747 9.98845 7.79292 9.2067C7.01114 8.42496 6.5639 7.19152 6.36712 6.53052L7.79292 5.10478C7.87606 5.02178 7.94201 4.92321 7.98702 4.8147C8.03202 4.70619 8.05518 4.58988 8.05518 4.4724C8.05518 4.35493 8.03202 4.23862 7.98702 4.13011C7.94201 4.0216 7.87606 3.92303 7.79292 3.84003L4.21499 0.262252C4.13199 0.179117 4.03342 0.113163 3.92491 0.0681628C3.81639 0.0231626 3.70007 0 3.58259 0C3.46512 0 3.3488 0.0231626 3.24028 0.0681628C3.13177 0.113163 3.03319 0.179117 2.9502 0.262252L0.52436 2.68799C0.184457 3.02788 -0.00696216 3.49478 0.000193695 3.97152C0.0207668 5.24521 0.357987 9.66913 3.84468 13.1557C7.33137 16.6422 11.7555 16.9785 13.0301 17H13.0552C13.5274 17 13.9738 16.814 14.3119 16.4759L16.7377 14.0501C16.8209 13.9671 16.8868 13.8686 16.9318 13.76C16.9768 13.6515 17 13.5352 17 13.4177C17 13.3003 16.9768 13.184 16.9318 13.0755C16.8868 12.9669 16.8209 12.8684 16.7377 12.7854L13.1598 9.2067ZM13.0462 15.2102C11.9299 15.1914 8.11046 14.8918 5.10947 11.89C2.09865 8.87934 1.80705 5.04664 1.78916 3.95273L3.58259 2.15937L5.89572 4.4724L4.73916 5.62892C4.63402 5.73397 4.55672 5.86357 4.51424 6.00599C4.47176 6.14841 4.46545 6.29918 4.49586 6.44466C4.51733 6.54752 5.04239 8.98667 6.52723 10.4714C8.01207 11.9562 10.4513 12.4813 10.5542 12.5027C10.6996 12.534 10.8505 12.5282 10.9931 12.4858C11.1356 12.4435 11.2652 12.3659 11.37 12.2603L12.5274 11.1038L14.8405 13.4169L13.0462 15.2102Z" fill="black"/>
</svg>
