<?xml version="1.0" encoding="UTF-8"?>
<svg id="Capa_2" data-name="Capa 2" xmlns="http://www.w3.org/2000/svg" viewBox="0 0 236.34 49.03">
  <defs>
    <style>
      .cls-1, .cls-2 {
        fill: #ff521b;
      }

      .cls-3 {
        fill: #fff;
      }

      .cls-3, .cls-4, .cls-2 {
        fill-rule: evenodd;
      }

      .cls-4 {
        fill: none;
      }
    </style>
  </defs>
  <g id="Ootroo">
    <g>
      <g id="clubdelseguro">
        <path d="m63.32,28.2c-1.57-.95-2.81-2.25-3.72-3.89-.91-1.64-1.37-3.45-1.37-5.43s.46-3.79,1.37-5.43c.91-1.64,2.15-2.94,3.72-3.89,1.57-.95,3.3-1.42,5.18-1.42,1.56,0,3.01.33,4.37.99,1.35.66,2.51,1.57,3.47,2.73.96,1.16,1.64,2.49,2.04,3.99h-3.94c-.51-1.18-1.3-2.13-2.35-2.83-1.06-.71-2.25-1.07-3.58-1.07-1.22,0-2.33.31-3.32.92-1,.61-1.79,1.45-2.37,2.51-.58,1.06-.87,2.23-.87,3.51s.29,2.45.87,3.51c.58,1.06,1.37,1.9,2.37,2.51,1,.61,2.11.91,3.32.91s2.43-.33,3.47-1c1.04-.67,1.83-1.58,2.38-2.72h3.97c-.42,1.46-1.11,2.76-2.07,3.9-.96,1.14-2.11,2.03-3.44,2.67-1.33.64-2.77.96-4.31.96-1.88,0-3.61-.47-5.18-1.42Z"/>
        <path d="m79.94,29.39V8.39h3.71v21h-3.71Z"/>
        <path d="m98.19,14.39v7.89c0,2.44-.57,4.28-1.71,5.51-1.14,1.23-2.66,1.84-4.56,1.84s-3.42-.61-4.56-1.84c-1.14-1.23-1.71-3.06-1.71-5.51v-7.89h3.71v7.89c0,1.22.2,2.11.61,2.69.41.57,1.06.86,1.95.86s1.55-.29,1.95-.86c.41-.57.61-1.46.61-2.69v-7.89h3.71Z"/>
        <path d="m100.19,8.39h3.74v6.9c1.01-.76,2.21-1.14,3.59-1.14s2.56.34,3.68,1.04c1.12.69,2.02,1.63,2.68,2.82.67,1.19,1,2.49,1,3.89s-.33,2.7-1,3.89c-.67,1.19-1.56,2.13-2.68,2.82-1.12.69-2.35,1.04-3.68,1.04s-2.56-.34-3.68-1.04c-1.12-.69-2.01-1.63-2.67-2.82-.66-1.19-.98-2.49-.98-3.89v-13.5Zm4.74,10.7c-.7.75-1.06,1.69-1.06,2.81s.35,2.06,1.06,2.81c.7.75,1.58,1.13,2.62,1.13s1.91-.38,2.6-1.13c.68-.75,1.03-1.68,1.03-2.81s-.34-2.06-1.03-2.81c-.68-.75-1.55-1.13-2.6-1.13s-1.92.38-2.62,1.13Z"/>
        <path d="m130.02,25.77c-.66,1.19-1.55,2.13-2.67,2.82-1.12.69-2.35,1.04-3.68,1.04s-2.56-.34-3.68-1.04c-1.12-.69-2.02-1.63-2.68-2.82-.67-1.19-1-2.49-1-3.89s.33-2.7,1-3.89c.67-1.19,1.56-2.13,2.68-2.82,1.12-.69,2.35-1.04,3.68-1.04s2.59.38,3.59,1.14v-6.9h3.74v13.5c0,1.4-.33,2.7-.98,3.89Zm-8.97-6.69c-.68.75-1.03,1.69-1.03,2.81s.34,2.06,1.03,2.81,1.55,1.13,2.6,1.13,1.92-.38,2.62-1.13,1.06-1.68,1.06-2.81-.35-2.06-1.06-2.81-1.58-1.13-2.62-1.13-1.91.38-2.6,1.13Z"/>
        <path d="m133.53,18.06c.64-1.19,1.51-2.14,2.62-2.85,1.11-.71,2.33-1.06,3.67-1.06,1.22,0,2.39.3,3.51.88,1.12.59,2.05,1.45,2.78,2.57.73,1.12,1.12,2.44,1.16,3.96.02.64-.02,1.26-.11,1.86h-10.58c.17.74.55,1.33,1.13,1.76.58.43,1.29.64,2.13.64.59,0,1.07-.08,1.44-.24.37-.16.71-.37,1.01-.63l4.42.03c-.59,1.38-1.49,2.5-2.71,3.36-1.22.86-2.57,1.29-4.05,1.29-1.35,0-2.59-.34-3.71-1.04-1.12-.69-2.01-1.62-2.67-2.81-.66-1.18-.98-2.47-.98-3.87s.32-2.67.96-3.86Zm9.77,2.24c-.29-.7-.74-1.26-1.36-1.7-.62-.43-1.29-.64-2.01-.64-.8,0-1.48.21-2.05.63-.57.42-1.01.99-1.31,1.71h6.73Z"/>
        <path d="m148.83,29.39V8.39h3.71v21h-3.71Z"/>
        <path d="m157.05,29.04c-.93-.39-1.68-.97-2.24-1.74-.56-.77-.84-1.7-.84-2.78h3.54c0,.48.25.87.76,1.17.5.3,1.15.45,1.93.45s1.32-.14,1.73-.41.61-.62.61-1.04-.23-.75-.68-.93-1.19-.36-2.2-.54c-1.12-.2-2.05-.42-2.8-.68-.74-.25-1.38-.68-1.93-1.29s-.81-1.47-.81-2.6c0-.86.26-1.63.78-2.33.52-.69,1.23-1.23,2.13-1.62s1.89-.58,3-.58c1.71,0,3.11.43,4.19,1.31,1.08.87,1.63,2.08,1.63,3.62h-3.54c0-.42-.23-.77-.7-1.05-.47-.28-1.01-.42-1.64-.42s-1.12.13-1.53.39c-.41.26-.61.59-.61.99,0,.36.22.63.66.81.44.18,1.13.35,2.08.51,1.12.2,2.06.43,2.82.68.76.25,1.43.68,2,1.29.57.61.86,1.45.86,2.54.02,1.6-.54,2.81-1.67,3.62-1.13.81-2.62,1.22-4.47,1.22-1.1,0-2.12-.19-3.05-.58Z"/>
        <path d="m168.48,18.06c.64-1.19,1.51-2.14,2.62-2.85,1.11-.71,2.33-1.06,3.67-1.06,1.22,0,2.39.3,3.51.88,1.12.59,2.05,1.45,2.78,2.57.73,1.12,1.12,2.44,1.16,3.96.02.64-.02,1.26-.11,1.86h-10.58c.17.74.55,1.33,1.13,1.76.58.43,1.29.64,2.13.64.59,0,1.07-.08,1.44-.24.37-.16.71-.37,1.01-.63l4.42.03c-.59,1.38-1.49,2.5-2.71,3.36-1.22.86-2.57,1.29-4.05,1.29-1.35,0-2.59-.34-3.71-1.04-1.12-.69-2.01-1.62-2.67-2.81-.66-1.18-.98-2.47-.98-3.87s.32-2.67.96-3.86Zm9.77,2.24c-.29-.7-.74-1.26-1.36-1.7-.62-.43-1.29-.64-2.01-.64-.8,0-1.48.21-2.05.63-.57.42-1.01.99-1.31,1.71h6.73Z"/>
        <path d="m186.95,34.11c-1.22-.85-2.11-1.98-2.68-3.38h4.51c.36.3.72.51,1.07.64.35.13.74.2,1.16.2.99,0,1.83-.26,2.53-.78.69-.52,1.04-1.23,1.04-2.13v-.03c-1.1.66-2.29.99-3.57.99s-2.56-.34-3.69-1.04c-1.13-.69-2.03-1.63-2.68-2.82s-.98-2.49-.98-3.89.33-2.7.98-3.89c.66-1.19,1.55-2.13,2.68-2.82,1.13-.69,2.36-1.04,3.69-1.04s2.56.34,3.69,1.04c1.13.69,2.03,1.63,2.68,2.82.66,1.19.98,2.49.98,3.89v5.76c0,1.4-.33,2.69-.98,3.89-.66,1.19-1.55,2.13-2.68,2.82-1.13.69-2.36,1.04-3.69,1.04-1.48,0-2.83-.43-4.05-1.27Zm6.68-9.42c.68-.75,1.03-1.68,1.03-2.81s-.34-2.06-1.03-2.81-1.55-1.13-2.6-1.13-1.92.38-2.62,1.13c-.7.75-1.06,1.69-1.06,2.81s.35,2.06,1.06,2.81c.7.75,1.58,1.13,2.62,1.13s1.91-.38,2.6-1.13Z"/>
        <path d="m212.63,14.39v7.89c0,2.44-.57,4.28-1.71,5.51s-2.66,1.84-4.56,1.84-3.42-.61-4.56-1.84-1.71-3.06-1.71-5.51v-7.89h3.71v7.89c0,1.22.2,2.11.61,2.69.41.57,1.06.86,1.95.86s1.55-.29,1.95-.86c.41-.57.61-1.46.61-2.69v-7.89h3.71Z"/>
        <path d="m214.34,21.5c0-2.38.56-4.17,1.68-5.37,1.12-1.2,2.6-1.8,4.42-1.8h.17v3.81h-.14c-.82,0-1.43.27-1.83.81-.4.54-.6,1.39-.6,2.55v7.89h-3.71v-7.89Z"/>
        <path d="m232.67,15.18c1.13.69,2.03,1.63,2.68,2.82.66,1.19.98,2.49.98,3.89s-.33,2.7-.98,3.89-1.55,2.13-2.68,2.82c-1.13.69-2.36,1.04-3.69,1.04s-2.56-.34-3.69-1.04c-1.13-.69-2.03-1.63-2.68-2.82s-.98-2.49-.98-3.89.33-2.7.98-3.89c.66-1.19,1.55-2.13,2.68-2.82,1.13-.69,2.36-1.04,3.69-1.04s2.56.34,3.69,1.04Zm-6.29,3.9c-.7.75-1.06,1.69-1.06,2.81s.35,2.06,1.06,2.81c.7.75,1.58,1.13,2.62,1.13s1.91-.38,2.6-1.13,1.03-1.68,1.03-2.81-.34-2.06-1.03-2.81-1.55-1.13-2.6-1.13-1.92.38-2.62,1.13Z"/>
      </g>
      <path class="cls-1" d="m13.89.95v38.01h-7.05V10.34c-1.56,1.16-3.84,1.85-6.84,2.06v-6.84c1.45-.14,2.9-.62,4.37-1.44,1.47-.81,2.29-1.87,2.47-3.18h7.05Z"/>
      <g id="_10_años_junto_a_ti" data-name="10 años junto a ti">
        <path d="m2.98,48.85l-.15-.9s-.02-.05-.06-.05h-1.18s-.06.01-.06.04l-.17.91c0,.07-.05.1-.12.1H.13c-.08,0-.11-.04-.09-.12l1.39-6.37c.01-.07.05-.1.12-.1h1.27c.07,0,.11.03.12.1l1.38,6.37v.04c0,.06-.03.08-.09.08h-1.13c-.08,0-.12-.03-.12-.1Zm-1.19-1.98h.81s.04-.02.04-.05l-.4-2.43s-.02-.03-.03-.03-.02,0-.03.03l-.44,2.43s0,.05.05.05Z"/>
        <path d="m5.43,48.92s-.03-.05-.03-.08v-6.37s.01-.06.03-.08c.02-.02.05-.03.08-.03h1.19c.06,0,.1.03.12.09l1.22,3.53s.02.03.03.02c.02,0,.02-.01.02-.03v-3.5s.01-.06.03-.08c.02-.02.05-.03.08-.03h1.09s.06.01.08.03c.02.02.03.05.03.08v6.37s-.01.06-.03.08c-.02.02-.05.03-.08.03h-1.2c-.06,0-.1-.03-.12-.09l-1.22-3.54s-.02-.03-.03-.03-.02,0-.02.03v3.52s0,.06-.02.08c-.02.02-.05.03-.08.03h-1.09s-.06-.01-.08-.03Zm2.08-7.48s-.09-.05-.15-.08c-.05-.03-.1-.05-.13-.07-.03-.01-.07-.02-.12-.02-.14,0-.25.07-.34.21-.04.06-.1.08-.16.04l-.4-.28c-.05-.04-.07-.09-.05-.15.08-.22.2-.38.34-.49.14-.11.31-.16.49-.16s.38.07.6.21c.02.01.05.04.1.07.05.03.09.06.14.08s.1.03.15.03c.14,0,.26-.06.34-.19.04-.08.1-.09.16-.05l.38.26s.05.05.05.09c0,.04-.01.08-.04.12-.11.19-.24.33-.39.41-.15.09-.31.13-.47.13-.13,0-.3-.06-.51-.17Z"/>
        <path d="m11.09,48.52c-.35-.34-.52-.79-.52-1.36v-3.02c0-.57.17-1.02.52-1.36.35-.34.81-.51,1.39-.51s1.04.17,1.39.51c.35.34.52.79.52,1.36v3.02c0,.57-.17,1.02-.52,1.36-.35.34-.81.51-1.39.51s-1.04-.17-1.39-.51Zm1.81-.82c.11-.12.16-.28.16-.49v-3.13c0-.2-.05-.36-.16-.49s-.25-.18-.42-.18-.32.06-.42.18c-.1.12-.16.28-.16.49v3.13c0,.2.05.36.16.49.1.12.24.18.42.18s.32-.06.42-.18Z"/>
        <path d="m16.33,48.82c-.28-.14-.49-.35-.64-.61s-.23-.56-.23-.9v-.3s.01-.06.03-.08c.02-.02.05-.03.08-.03h1.09s.06.01.08.03c.02.02.03.05.03.08v.24c0,.2.05.35.15.47.1.12.22.18.37.18s.28-.06.38-.17c.1-.11.15-.26.15-.44s-.06-.35-.18-.49c-.12-.14-.37-.33-.73-.6-.31-.23-.57-.43-.76-.6-.2-.18-.36-.39-.5-.65s-.21-.56-.21-.9c0-.53.17-.96.5-1.28.33-.32.77-.48,1.31-.48s1,.17,1.34.5.51.77.51,1.31v.23s-.01.06-.03.08c-.02.02-.05.03-.08.03h-1.09s-.06-.01-.08-.03c-.02-.02-.03-.05-.03-.08v-.25c0-.19-.05-.35-.15-.47-.1-.12-.23-.17-.39-.17-.15,0-.27.06-.36.16-.09.11-.14.26-.14.46s.06.36.18.5c.12.14.35.35.7.6.39.28.68.51.88.69.2.18.35.38.46.6s.17.48.17.78c0,.55-.17.99-.51,1.32s-.78.49-1.33.49c-.37,0-.69-.07-.96-.22Z"/>
        <path d="m22.75,48.55c-.34-.32-.51-.75-.51-1.29v-.65s.01-.06.03-.08c.02-.02.05-.03.08-.03h1.1s.06.01.08.03c.02.02.03.05.03.08v.67c0,.18.05.33.14.44.09.11.22.17.38.17s.29-.06.39-.17c.1-.11.15-.26.15-.44v-4.81s.01-.06.03-.08c.02-.02.05-.03.08-.03h1.1s.06.01.08.03c.02.02.03.05.03.08v4.79c0,.53-.17.96-.51,1.29-.34.32-.79.49-1.35.49s-1-.16-1.34-.49Z"/>
        <path d="m27.7,48.5c-.34-.35-.51-.83-.51-1.42v-4.61s.01-.06.03-.08c.02-.02.05-.03.08-.03h1.1s.06.01.08.03c.02.02.03.05.03.08v4.74c0,.2.05.36.15.49.1.13.23.19.4.19s.29-.06.39-.19c.1-.13.15-.29.15-.49v-4.74s.01-.06.03-.08c.02-.02.05-.03.08-.03h1.1s.06.01.08.03c.02.02.03.05.03.08v4.61c0,.59-.17,1.06-.51,1.42-.34.36-.79.53-1.35.53s-1.02-.18-1.36-.53Z"/>
        <path d="m32.14,48.92s-.03-.05-.03-.08v-6.37s.01-.06.03-.08c.02-.02.05-.03.08-.03h1.19c.06,0,.1.03.12.09l1.22,3.53s.02.03.03.02c.02,0,.02-.01.02-.03v-3.5s.01-.06.03-.08c.02-.02.05-.03.08-.03h1.09s.06.01.08.03c.02.02.03.05.03.08v6.37s-.01.06-.03.08c-.02.02-.05.03-.08.03h-1.2c-.06,0-.1-.03-.12-.09l-1.22-3.54s-.02-.03-.03-.03-.02,0-.02.03v3.52s0,.06-.02.08c-.02.02-.05.03-.08.03h-1.09s-.06-.01-.08-.03Z"/>
        <path d="m41.12,42.39s.03.05.03.08v.91s-.01.06-.03.08c-.02.02-.05.03-.08.03h-1.18s-.05.02-.05.05v5.3s-.01.06-.03.08c-.02.02-.05.03-.08.03h-1.1s-.06-.01-.08-.03c-.02-.02-.03-.05-.03-.08v-5.3s-.02-.05-.05-.05h-1.13s-.06-.01-.08-.03c-.02-.02-.03-.05-.03-.08v-.91s.01-.06.03-.08c.02-.02.05-.03.08-.03h3.74s.06.01.08.03Z"/>
        <path d="m42.47,48.52c-.35-.34-.52-.79-.52-1.36v-3.02c0-.57.17-1.02.52-1.36.35-.34.81-.51,1.39-.51s1.04.17,1.39.51c.35.34.52.79.52,1.36v3.02c0,.57-.17,1.02-.52,1.36-.35.34-.81.51-1.39.51s-1.04-.17-1.39-.51Zm1.81-.82c.11-.12.16-.28.16-.49v-3.13c0-.2-.05-.36-.16-.49s-.25-.18-.42-.18-.32.06-.42.18c-.1.12-.16.28-.16.49v3.13c0,.2.05.36.16.49.1.12.24.18.42.18s.32-.06.42-.18Z"/>
        <path d="m47.71,48.82c-.28-.14-.49-.35-.64-.61s-.23-.56-.23-.9v-.3s.01-.06.03-.08c.02-.02.05-.03.08-.03h1.09s.06.01.08.03c.02.02.03.05.03.08v.24c0,.2.05.35.15.47.1.12.22.18.37.18s.28-.06.38-.17c.1-.11.15-.26.15-.44s-.06-.35-.18-.49c-.12-.14-.37-.33-.73-.6-.31-.23-.57-.43-.76-.6-.2-.18-.36-.39-.5-.65s-.21-.56-.21-.9c0-.53.17-.96.5-1.28.33-.32.77-.48,1.31-.48s1,.17,1.34.5.51.77.51,1.31v.23s-.01.06-.03.08c-.02.02-.05.03-.08.03h-1.09s-.06-.01-.08-.03c-.02-.02-.03-.05-.03-.08v-.25c0-.19-.05-.35-.15-.47-.1-.12-.23-.17-.39-.17-.15,0-.27.06-.36.16-.09.11-.14.26-.14.46s.06.36.18.5c.12.14.35.35.7.6.39.28.68.51.88.69.2.18.35.38.46.6s.17.48.17.78c0,.55-.17.99-.51,1.32s-.78.49-1.33.49c-.37,0-.69-.07-.96-.22Z"/>
      </g>
      <g id="Auto">
        <path class="cls-4" d="m22.13,13.8c-.51-.04-1.3.2-1.54.57-1.02,1.58,1.58,1.35,2.31,1.39-.47.42-2.28,2.42-2.39,2.89-.12.53-.12,4.75-.13,5.65-.02,1.31-.31,4.4.78,4.82.31.12,2.05.13,2.43.05.9-.21.7-1.07.74-2.09,3.15-.23,14.78-.23,17.92,0,.04.95-.14,1.81.64,2.07.38.13,2.19.11,2.53-.02,1.35-.52.65-5.69.67-7.45.05-3.08-.04-3.95-2.41-5.92.78-.04,3.11.26,2.36-1.29-.22-.47-1.65-1.05-2.18-.41-1.07,1.31-.95-.1-1.93-1.58-1.13-2.39-1.42-2.35-4.97-2.31-1.17-.06-2.44-.1-3.61-.11-1.21,0-5.9.15-6.91.4-.99.02-2.29,2.71-2.75,3.67-.72,1.49-.59-.26-1.57-.34h0Z"/>
        <ellipse class="cls-1" cx="25.57" cy="21.72" rx="1.15" ry="1.21"/>
        <ellipse class="cls-1" cx="40.77" cy="21.72" rx="1.15" ry="1.21"/>
        <g>
          <path class="cls-3" d="m37.43,20.63h-8.29c-.14.06-.23.21-.23.36s.09.3.23.36h8.29c.14-.06.23-.21.23-.36s-.09-.3-.23-.36Z"/>
          <path class="cls-2" d="m37.43,20.63h-8.29c-.14.06-.23.21-.23.36s.09.3.23.36h8.29c.14-.06.23-.21.23-.36s-.09-.3-.23-.36Z"/>
        </g>
        <g>
          <path class="cls-3" d="m37.43,22.44h-8.29c-.14.06-.23.21-.23.36s.09.3.23.36h8.29c.14-.06.23-.21.23-.36s-.09-.3-.23-.36Z"/>
          <path class="cls-2" d="m37.43,22.44h-8.29c-.14.06-.23.21-.23.36s.09.3.23.36h8.29c.14-.06.23-.21.23-.36s-.09-.3-.23-.36Z"/>
        </g>
        <path class="cls-2" d="m25.01,15.65h16.59c-.18-.67-.4-1.41-.69-2.18-.3-.81-.63-1.54-.95-2.18-2.04-.23-4.32-.38-6.8-.36-2.2.01-4.24.15-6.08.36-.37.52-.78,1.17-1.15,1.94-.44.89-.73,1.73-.92,2.43Z"/>
      </g>
      <path class="cls-1" d="m21.26,4.61c-1.6,1.39-2.67,2.79-3.35,3.8-.28.42-1.01,1.58-1.7,3.23-.23.55-.9,2.25-1.3,4.59-.17,1.01-.43,2.6-.29,4.67.07,1,.21,1.77.33,2.38.17.9.44,2.29,1.11,3.98.21.52.82,2,1.98,3.71.29.44,1.11,1.6,2.39,2.89,1.25,1.26,2.34,2.04,2.61,2.22.57.4,2,1.34,4.03,2.09,1.02.38,3.71,1.26,7.21,1.08,1.8-.1,3.19-.45,3.73-.6.67-.18,2.18-.64,3.95-1.63,1.51-.84,2.58-1.71,3.12-2.18.27-.24,1.04-.91,1.92-1.92.76-.87,1.28-1.6,1.44-1.85.27-.4,1.31-1.94,2.14-4.15,1.41-3.73,1.36-7.06,1.33-7.95-.04-1.37-.27-4.3-1.71-7.6-1.02-2.34-2.24-3.92-2.81-4.61-.46-.55-1.76-2.07-3.84-3.51-1.75-1.21-3.31-1.86-4.18-2.18-1.92-.7-3.51-.92-4.33-1.01-.94-.1-2.86-.21-5.21.26-.43.08-1.77.37-3.41,1.04-1.62.67-2.7,1.37-2.95,1.56-.04.03-.23.17-.49.35-.33.23-.51.35-.51.35-.2.13-.28.18-.41.29-.12.1-.16.15-.26.24-.34.32-.49.34-.56.44-.28.4,1.11,1.77,2.6,3.75.62.82.88,1.26,1.52,1.56.76.36,1.47.28,1.95.23,0,0,3-.32,8.09-.05.2.01.63.04,1.25.04.86,0,.97-.05,1.69-.04,1.38.02,1.82.21,2.04.34.35.19.57.41.62.46.22.22.38.51.69,1.08.11.2.32.58.55,1.08.15.33.23.5.25.55.15.34.18.47.3.64.14.18.29.28.41.34.08-.03.21-.08.33-.18.28-.21.27-.39.49-.53.21-.14.44-.11.72-.09.31.03.53.13.58.16.2.09.73.34.82.85.01.07.05.31-.07.52-.19.34-.65.38-1.49.44-.39.03-.71.03-.91.02.32.22,1.69,1.18,2.11,2.56.11.36.25,1.04.29,1.81.01.28-.03.45,0,.76.06.48,0,.59.04,2.28.01.43.11,3.46,0,4.5,0,.04-.03.31-.13.64-.08.26-.15.47-.31.64-.07.07-.2.18-.67.27-.29.05-.46.03-1.36.04-.51,0-.69-.01-.89-.12-.07-.04-.31-.17-.44-.45-.05-.1-.07-.19-.08-.27-.03-.14-.03-.27-.04-.52,0-.24,0-.27,0-.4,0-.08-.02-.13-.01-.22,0-.11.02-.13,0-.16-.04-.08-.21-.06-.35-.05-.2.01-.39-.02-.59-.02-.35,0-.55-.03-.76-.04-2.5-.12-8.13-.09-8.13-.09-3.23.01-4.13.04-4.76.05-1.34.04-2.46.09-3.28.13,0,.41-.02.74-.03.99-.04.51-.08.67-.19.8-.12.14-.28.18-.54.23-.59.11-1,.18-1.71.11-.52-.05-.78-.08-.99-.26-.22-.2-.3-.45-.4-.81-.1-.35-.14-.67-.16-1.31-.02-.58,0-1.01,0-1.23,0,0,.03-1.13.03-2.3,0-1.04-.01-.99,0-1.75.02-.89.05-1.04.04-1.63,0-.26.03-.51.02-.77,0-.13-.02-.29.04-.49.05-.15.12-.25.16-.3.63-.89,1.3-1.63,1.3-1.63.35-.39.53-.58.56-.61.23-.21.34-.29.32-.35-.04-.13-.53.02-1.22-.06-.43-.05-1.06-.13-1.22-.54-.14-.37.17-.8.2-.84.2-.27.46-.36.72-.44.26-.09.48-.1.63-.11.26-.01.39-.02.53.06.19.1.31.29.39.41.09.14.12.23.24.35.08.07.15.12.2.15.17-.29.4-.72.67-1.24.22-.41.26-.54.45-.87.05-.1.28-.49.63-1,.39-.56.59-.76.76-.9.19-.16.35-.26.54-.32.03,0,.11-.03.39-.06.33-.04.57-.05.57-.05.61-.02,1.21-.08,1.82-.12.72-.05.7-.05.84-.05.54-.03.84-.03,1.29-.04.73-.02,1.07-.05,1.5-.06.61-.02,1.51-.03,2.69.05"/>
    </g>
  </g>
</svg>