<svg width="150" height="48" viewBox="0 0 150 48" fill="none" xmlns="http://www.w3.org/2000/svg">
<g clip-path="url(#clip0)" filter="url(#filter0_d)">
<path d="M22.958 25.6237V29.7566L35.7684 30.5069L36.8014 35.099H40.9303C40.9303 35.099 41.8217 31.3004 41.3999 25.9543C41.3999 25.9543 42.5725 17.3717 39.8514 14.5576L38.4435 13.9946L37.8334 12.7759H41.6507L41.9163 10.7122L40.4616 9.96183C40.4616 9.96183 39.0069 9.44568 38.3029 10.478L37.7865 11.2752L37.3638 11.367L34.2668 5.69393C34.2668 5.69393 33.1411 3.86719 30.3741 3.86719H22.958V5.13277C22.958 5.13277 31.0293 5.22461 32.4372 5.60208C33.845 5.97956 34.5012 8.08733 34.5012 8.08733L36.0506 12.1679H22.958V16.6231C22.958 16.6231 32.8121 16.715 38.1146 16.3889L39.0537 15.5918C39.0537 15.5918 40.9303 17.4203 39.8983 18.8742C38.8663 20.328 34.4543 20.0002 34.4543 20.0002C34.4543 20.0002 32.7634 18.5932 30.5579 18.5932H24.6002C24.6002 18.5932 24.6471 20.047 22.958 20.1407V23.4195H27.8846C27.8846 23.4195 28.8707 23.1384 28.8707 24.3572V24.8733C28.8707 24.8733 29.0113 25.6705 27.9324 25.6705L22.958 25.6237Z" fill="white"/>
<path d="M22.9583 25.6245V29.7574L10.147 30.5059L9.11498 35.098H4.98513C4.98513 35.098 4.0919 31.3031 4.51646 25.957C4.51646 25.957 3.34294 17.3743 6.06492 14.5603L7.47278 13.9973L8.08298 12.7786H4.26466L4 10.7149L5.45473 9.96453C5.45473 9.96453 6.90946 9.44838 7.61339 10.4807L8.12985 11.2779L8.55165 11.3697L11.6486 5.69479C11.6486 5.69479 12.7752 3.86621 15.5441 3.86621H22.9583V5.13363C22.9583 5.13363 14.887 5.22547 13.4792 5.60295C12.0713 5.98042 11.4142 8.08819 11.4142 8.08819L9.86578 12.1687H22.9583V16.624C22.9583 16.624 13.1033 16.7158 7.80086 16.3898L6.86259 15.5926C6.86259 15.5926 4.98513 17.4212 6.02173 18.875C7.05833 20.3289 11.4648 20.001 11.4648 20.001C11.4648 20.001 13.1539 18.594 15.3594 18.594H21.3198C21.3198 18.594 21.272 20.0479 22.962 20.1416V23.4203H18.0308C18.0308 23.4203 17.0494 23.1448 17.0494 24.3617V24.8778C17.0494 24.8778 16.9088 25.675 17.9876 25.675L22.9583 25.6245Z" fill="white"/>
<path d="M52.2404 0H48.9321V20.0005H52.2404V0Z" fill="white"/>
<path d="M52.2404 20.001H48.9321V40.0014H52.2404V20.001Z" fill="white"/>
<path d="M63.3753 19.3355C62.3056 18.714 61.4155 17.8257 60.7921 16.7575C60.1601 15.6881 59.831 14.4671 59.84 13.2252C59.8334 11.9873 60.1669 10.7712 60.804 9.70952C61.4323 8.64032 62.3234 7.74916 63.3927 7.12049C64.4546 6.48216 65.6714 6.14763 66.9106 6.15339C67.6421 6.15516 68.3686 6.27359 69.0628 6.50423C69.7753 6.73986 70.4486 7.08035 71.0606 7.51449C71.1942 7.60064 71.304 7.71895 71.38 7.85856C71.4559 7.99817 71.4956 8.15461 71.4953 8.31352C71.4913 8.54435 71.405 8.76618 71.2517 8.93897C71.1717 9.04762 71.0669 9.13573 70.9462 9.19608C70.8254 9.25643 70.692 9.28729 70.557 9.28613C70.2866 9.28061 70.0249 9.18926 69.8099 9.0253C69.0091 8.48622 68.0737 8.18112 67.1089 8.14429C66.1441 8.10745 65.1881 8.34036 64.3485 8.81681C63.5776 9.25749 62.9386 9.8961 62.4977 10.6665C62.0475 11.4437 61.8136 12.3272 61.8204 13.2252C61.8134 14.1254 62.0506 15.0106 62.5069 15.7867C62.9534 16.5575 63.594 17.198 64.365 17.6447C65.2002 18.1281 66.1556 18.3643 67.12 18.3258C68.0843 18.2872 69.0179 17.9755 69.8117 17.427C70.0268 17.2782 70.28 17.194 70.5414 17.1845C70.6774 17.1814 70.8124 17.2095 70.9358 17.2667C71.0593 17.3238 71.168 17.4085 71.2536 17.5143C71.4093 17.6924 71.4957 17.9206 71.4971 18.1572C71.4985 18.3143 71.4612 18.4694 71.3884 18.6088C71.3157 18.7481 71.2097 18.8674 71.0799 18.9562C70.484 19.3929 69.821 19.7301 69.117 19.9545C68.4039 20.1814 67.6598 20.2957 66.9115 20.2934C65.6676 20.3009 64.4451 19.9697 63.3753 19.3355Z" fill="white"/>
<path d="M74.4785 19.5183C74.3788 19.4198 74.3004 19.3018 74.2481 19.1718C74.1957 19.0418 74.1707 18.9025 74.1743 18.7624V7.33724C74.1658 7.05954 74.2645 6.78919 74.45 6.5823C74.5422 6.4862 74.6528 6.40973 74.7753 6.35749C74.8977 6.30525 75.0295 6.27832 75.1627 6.27832C75.2959 6.27832 75.4276 6.30525 75.5501 6.35749C75.6726 6.40973 75.7832 6.4862 75.8754 6.5823C76.0609 6.78919 76.1596 7.05954 76.1511 7.33724V17.8421H82.0058C82.284 17.833 82.555 17.9318 82.7621 18.1177C82.8582 18.2097 82.9347 18.3202 82.987 18.4425C83.0393 18.5648 83.0662 18.6964 83.0662 18.8295C83.0662 18.9625 83.0393 19.0941 82.987 19.2164C82.9347 19.3387 82.8582 19.4492 82.7621 19.5412C82.5551 19.7272 82.2841 19.826 82.0058 19.8168H75.2339C75.0943 19.821 74.9553 19.7968 74.8254 19.7454C74.6955 19.6941 74.5775 19.6168 74.4785 19.5183Z" fill="white"/>
<path d="M87.075 19.329C86.2403 18.9134 85.5242 18.2935 84.9935 17.5271C84.487 16.8079 84.2158 15.9497 84.217 15.0703V7.31604C84.2141 7.1776 84.2405 7.0401 84.2947 6.91265C84.3489 6.78519 84.4295 6.67069 84.5313 6.57671C84.7499 6.37477 85.0398 6.26775 85.3372 6.27915C85.628 6.27046 85.9102 6.37749 86.122 6.57671C86.2238 6.67069 86.3045 6.78519 86.3586 6.91265C86.4128 7.0401 86.4393 7.1776 86.4363 7.31604V15.0703C86.4318 15.6123 86.592 16.143 86.8958 16.5921C87.2116 17.0586 87.6449 17.4337 88.152 17.6795C88.6988 17.9439 89.2986 18.0805 89.9059 18.079C90.5133 18.0776 91.1124 17.9382 91.6579 17.6712C92.1701 17.4206 92.6095 17.0431 92.9344 16.5746C93.2465 16.1349 93.4147 15.6094 93.4159 15.0703V7.31604C93.4129 7.1776 93.4394 7.0401 93.4936 6.91265C93.5478 6.78519 93.6284 6.67069 93.7302 6.57671C93.9485 6.37482 94.238 6.26779 94.5352 6.27915C94.8262 6.27082 95.1086 6.37778 95.3209 6.57671C95.4226 6.6708 95.5031 6.78532 95.5573 6.91275C95.6115 7.04018 95.638 7.17762 95.6352 7.31604V15.0703C95.6377 15.9537 95.3689 16.8167 94.8651 17.5427C94.3383 18.3107 93.6211 18.9291 92.7837 19.3373C91.8939 19.782 90.9113 20.0093 89.9165 20.0004C88.9289 20.0095 87.9539 19.7792 87.075 19.329Z" fill="white"/>
<path d="M99.2054 19.5184C99.0201 19.311 98.9214 19.0405 98.9297 18.7625V7.33738C98.9217 7.05976 99.0203 6.78962 99.2054 6.58244C99.29 6.48512 99.3948 6.40748 99.5126 6.35496C99.6304 6.30245 99.7583 6.27633 99.8873 6.27844H102.876C103.474 6.27853 104.058 6.45906 104.552 6.79643C105.075 7.14359 105.599 7.56515 105.912 8.14375C106.223 8.70334 106.384 9.33329 106.382 9.97325C106.38 10.4014 106.31 10.8266 106.173 11.2324C106.141 11.3298 105.714 12.3749 105.608 12.318C106.856 13.0169 107.582 14.4303 107.582 15.8429C107.586 16.5309 107.417 17.209 107.088 17.8138C106.777 18.4015 106.325 18.9026 105.771 19.2723C105.247 19.6293 104.628 19.8198 103.993 19.8187H99.8873C99.7586 19.8213 99.6309 19.7958 99.5131 19.744C99.3953 19.6921 99.2903 19.6151 99.2054 19.5184ZM102.981 11.8174C103.838 11.7348 104.489 10.8907 104.489 10.0467C104.501 9.57803 104.329 9.12332 104.012 8.77838C103.869 8.61354 103.692 8.48162 103.493 8.39172C103.294 8.30182 103.078 8.25607 102.86 8.25764H100.86L100.848 11.7816C100.848 11.7871 102.743 11.8275 102.889 11.8229C102.917 11.822 102.949 11.8202 102.981 11.8174ZM104.024 17.8423C104.269 17.8458 104.512 17.7956 104.736 17.6951C104.959 17.5947 105.158 17.4465 105.317 17.2609C105.667 16.8738 105.855 16.3672 105.842 15.8456C105.856 15.3148 105.665 14.799 105.309 14.4046C105.151 14.218 104.954 14.0684 104.732 13.9663C104.509 13.8643 104.267 13.8123 104.023 13.8141H100.701V17.8423H104.024Z" fill="white"/>
<path d="M60.4245 4.0314C60.1195 3.85473 59.8661 3.60144 59.6893 3.29667C59.508 2.99088 59.4128 2.64183 59.4136 2.2864C59.4113 1.93079 59.5067 1.58136 59.6893 1.27614C59.8676 0.972519 60.1207 0.719574 60.4245 0.541402C60.6676 0.397177 60.939 0.306945 61.2201 0.276835C61.5013 0.246725 61.7856 0.277443 62.0538 0.366902C62.2533 0.431229 62.4424 0.52403 62.6153 0.642428C62.6413 0.660584 62.6625 0.684782 62.677 0.71294C62.6916 0.741098 62.6991 0.772372 62.6989 0.80407C62.7003 0.85619 62.6815 0.906835 62.6465 0.945507C62.6334 0.963233 62.6159 0.977334 62.5959 0.98649C62.5758 0.995646 62.5537 0.999557 62.5317 0.997857C62.4765 0.994213 62.4236 0.974053 62.38 0.939997C62.1233 0.76347 61.8219 0.663003 61.5106 0.650166C61.1992 0.63733 60.8906 0.712646 60.6202 0.867441C60.3735 1.01022 60.1685 1.21509 60.0256 1.46166C59.8796 1.70982 59.8036 1.99298 59.806 2.28089C59.8037 2.56904 59.8803 2.85233 60.0275 3.10012C60.1716 3.347 60.3766 3.55285 60.623 3.69802C60.8921 3.85553 61.201 3.9322 61.5126 3.91884C61.8242 3.90549 62.1254 3.80267 62.38 3.62271C62.4195 3.59404 62.4673 3.57919 62.516 3.58046C62.5461 3.57898 62.5761 3.58491 62.6033 3.59772C62.6306 3.61053 62.6542 3.62983 62.6723 3.65393C62.6973 3.6826 62.7104 3.71971 62.709 3.75771C62.7093 3.79111 62.701 3.82403 62.685 3.8533C62.6689 3.88258 62.6455 3.90722 62.6171 3.92487C62.3 4.15019 61.925 4.27998 61.5364 4.29886C61.1478 4.31774 60.7619 4.22493 60.4245 4.0314Z" fill="white"/>
<path d="M66.214 4.12138C66.0095 4.00247 65.8395 3.83253 65.7205 3.62819C65.6008 3.42486 65.5376 3.19322 65.5376 2.95728C65.5376 2.72134 65.6008 2.4897 65.7205 2.28637C65.8395 2.08204 66.0095 1.91209 66.214 1.79318C66.4173 1.67348 66.6489 1.61035 66.8849 1.61035C67.1208 1.61035 67.3524 1.67348 67.5557 1.79318C67.7608 1.91218 67.9317 2.08205 68.052 2.28637C68.1717 2.4897 68.2349 2.72134 68.2349 2.95728C68.2349 3.19322 68.1717 3.42486 68.052 3.62819C67.9325 3.83217 67.7626 4.00201 67.5585 4.12138C67.355 4.24043 67.1234 4.30318 66.8876 4.30318C66.6518 4.30318 66.4203 4.24043 66.2168 4.12138H66.214ZM67.3673 3.78983C67.5871 3.66077 67.7471 3.45031 67.8127 3.20411C67.8782 2.95791 67.844 2.69581 67.7174 2.47465C67.5883 2.254 67.377 2.09337 67.1298 2.02781C66.8826 1.96226 66.6194 1.9971 66.3978 2.12473C66.2516 2.20825 66.1302 2.32898 66.0458 2.47465C65.9603 2.62114 65.9153 2.78769 65.9153 2.95728C65.9153 3.12687 65.9603 3.29342 66.0458 3.43991C66.1755 3.65951 66.3864 3.81932 66.633 3.88479C66.8796 3.95027 67.142 3.91616 67.3636 3.78983H67.3673Z" fill="white"/>
<path d="M79.5036 4.12138C79.2991 4.00247 79.129 3.83253 79.0101 3.62819C78.8903 3.42486 78.8271 3.19322 78.8271 2.95728C78.8271 2.72134 78.8903 2.4897 79.0101 2.28637C79.129 2.08204 79.2991 1.91209 79.5036 1.79318C79.7068 1.67348 79.9385 1.61035 80.1744 1.61035C80.4104 1.61035 80.642 1.67348 80.8453 1.79318C81.0494 1.91255 81.2193 2.08239 81.3388 2.28637C81.4599 2.48899 81.5235 2.72079 81.5226 2.95682C81.5244 2.98342 81.5204 3.01009 81.5109 3.03499C81.5014 3.05989 81.4865 3.08242 81.4674 3.10101C81.4295 3.13451 81.3802 3.15225 81.3296 3.15061H79.2288C79.2637 3.31734 79.3423 3.47183 79.4564 3.59833C79.5706 3.72483 79.7162 3.81883 79.8786 3.87073C80.0409 3.92264 80.2142 3.93059 80.3806 3.89379C80.547 3.857 80.7007 3.77675 80.826 3.66125C80.8485 3.6363 80.8758 3.61613 80.9063 3.60193C80.9367 3.58773 80.9697 3.57979 81.0033 3.57859C81.0236 3.57773 81.0437 3.58095 81.0627 3.58805C81.0816 3.59515 81.099 3.60599 81.1136 3.61992C81.1347 3.63924 81.1515 3.66265 81.1632 3.6887C81.1749 3.71475 81.1812 3.74291 81.1816 3.77146C81.1819 3.79689 81.1769 3.8221 81.167 3.8455C81.157 3.8689 81.1423 3.88997 81.1237 3.90739C80.9995 4.03192 80.8521 4.13112 80.69 4.19945C80.4996 4.27934 80.2932 4.31387 80.0871 4.30032C79.881 4.28677 79.6809 4.22551 79.5026 4.12138H79.5036ZM81.1145 2.76395C81.0724 2.54693 80.9549 2.35176 80.7828 2.2129C80.6116 2.0727 80.3971 1.99608 80.1758 1.99608C79.9545 1.99608 79.74 2.0727 79.5688 2.2129C79.3947 2.35143 79.2745 2.54631 79.2288 2.76395H81.1145Z" fill="white"/>
<path d="M84.7594 4.12082C84.5553 4.00145 84.3854 3.83161 84.2659 3.62763C84.1462 3.42431 84.083 3.19266 84.083 2.95672C84.083 2.72079 84.1462 2.48914 84.2659 2.28582C84.3854 2.08184 84.5553 1.912 84.7594 1.79263C84.9386 1.68713 85.1402 1.62534 85.3477 1.61225C85.5553 1.59917 85.763 1.63516 85.9541 1.71732C86.1189 1.78778 86.2677 1.89088 86.3915 2.02039V0.566533C86.3914 0.538397 86.3969 0.510516 86.4076 0.484498C86.4183 0.458481 86.4341 0.434842 86.454 0.414947C86.4739 0.395052 86.4975 0.379294 86.5236 0.368583C86.5496 0.357872 86.5775 0.35242 86.6057 0.352541C86.6295 0.352536 86.653 0.358195 86.6743 0.369053C86.6955 0.379911 86.7139 0.395656 86.7279 0.414994C86.7613 0.458332 86.7788 0.51183 86.7775 0.566533V2.95443C86.7781 3.19071 86.7146 3.42272 86.5937 3.62579C86.4743 3.82978 86.3043 3.99962 86.1002 4.11899C85.8965 4.23803 85.6648 4.30077 85.4289 4.30077C85.1929 4.30077 84.9613 4.23803 84.7576 4.11899L84.7594 4.12082ZM85.9137 3.78927C86.1335 3.66021 86.2935 3.44976 86.359 3.20355C86.4246 2.95735 86.3903 2.69525 86.2638 2.47409C86.1346 2.25444 85.9241 2.09451 85.6777 2.02901C85.4314 1.9635 85.1691 1.9977 84.9478 2.12418C84.8009 2.20765 84.6785 2.32834 84.5931 2.47409C84.5076 2.62059 84.4625 2.78713 84.4625 2.95672C84.4625 3.12631 84.5076 3.29286 84.5931 3.43935C84.678 3.58487 84.7997 3.70554 84.946 3.78927C85.0932 3.87293 85.2596 3.91691 85.4289 3.91691C85.5982 3.91691 85.7646 3.87293 85.9118 3.78927H85.9137Z" fill="white"/>
<path d="M90.2677 4.12136C90.0636 4.00199 89.8937 3.83214 89.7742 3.62816C89.6545 3.42484 89.5913 3.1932 89.5913 2.95726C89.5913 2.72132 89.6545 2.48968 89.7742 2.28635C89.8937 2.08237 90.0636 1.91253 90.2677 1.79316C90.4712 1.67347 90.7029 1.61035 90.939 1.61035C91.1751 1.61035 91.4069 1.67347 91.6103 1.79316C91.8143 1.91236 91.984 2.08225 92.1029 2.28635C92.2226 2.48968 92.2858 2.72132 92.2858 2.95726C92.2858 3.1932 92.2226 3.42484 92.1029 3.62816C91.984 3.83226 91.8143 4.00216 91.6103 4.12136C91.4066 4.2404 91.175 4.30314 90.939 4.30314C90.7031 4.30314 90.4714 4.2404 90.2677 4.12136ZM91.4219 3.78981C91.5678 3.7065 91.6887 3.58567 91.7721 3.43989C91.8558 3.29279 91.8998 3.12648 91.8998 2.95726C91.8998 2.78804 91.8558 2.62172 91.7721 2.47463C91.6429 2.25497 91.4323 2.09505 91.186 2.02954C90.9396 1.96404 90.6774 1.99823 90.4561 2.12471C90.3115 2.20908 90.1915 2.32969 90.1078 2.47463C90.0223 2.62112 89.9773 2.78767 89.9773 2.95726C89.9773 3.12685 90.0223 3.2934 90.1078 3.43989C90.1927 3.58541 90.3144 3.70607 90.4607 3.78981C90.6079 3.87346 90.7743 3.91745 90.9436 3.91745C91.1129 3.91745 91.2793 3.87346 91.4265 3.78981H91.4219Z" fill="white"/>
<path d="M95.2793 4.09929C95.2427 4.05741 95.223 4.00336 95.2242 3.94775V2.64267C95.2231 2.45698 95.27 2.27416 95.3602 2.11182C95.4483 1.9492 95.5744 1.81025 95.7278 1.7068C95.878 1.60322 96.0524 1.53997 96.2341 1.52311C96.2624 1.52077 96.2908 1.52475 96.3174 1.53476C96.3439 1.54476 96.3679 1.56055 96.3876 1.58097C96.4086 1.60248 96.4248 1.62813 96.4352 1.65629C96.4457 1.68445 96.4501 1.71448 96.4482 1.74445C96.4489 1.76727 96.4439 1.78991 96.4338 1.81039C96.4237 1.83087 96.4088 1.84859 96.3903 1.86201C96.3476 1.89345 96.2971 1.91252 96.2442 1.91712C96.0685 1.94165 95.9079 2.02991 95.793 2.16509C95.6732 2.29699 95.6076 2.46916 95.6092 2.64726V3.94866C95.6104 4.00428 95.5907 4.05832 95.5541 4.1002C95.5368 4.11975 95.5156 4.1354 95.4919 4.14613C95.4681 4.15685 95.4423 4.16239 95.4162 4.16239C95.3902 4.16239 95.3644 4.15685 95.3406 4.14613C95.3168 4.1354 95.2956 4.11975 95.2784 4.1002L95.2793 4.09929Z" fill="white"/>
<path d="M99.7374 4.12138C99.5332 4.00221 99.3632 3.83232 99.244 3.62819C99.1242 3.42486 99.061 3.19322 99.061 2.95728C99.061 2.72134 99.1242 2.4897 99.244 2.28638C99.3632 2.08224 99.5332 1.91236 99.7374 1.79318C99.9407 1.67348 100.172 1.61035 100.408 1.61035C100.644 1.61035 100.876 1.67348 101.079 1.79318C101.284 1.91209 101.454 2.08204 101.573 2.28638C101.694 2.489 101.757 2.72079 101.756 2.95682C101.758 2.98342 101.754 3.01009 101.745 3.03499C101.735 3.05989 101.72 3.08242 101.701 3.10101C101.663 3.13467 101.614 3.15244 101.563 3.15061H99.4645C99.5062 3.36825 99.6245 3.56375 99.7981 3.70166C99.9781 3.84832 100.205 3.92508 100.437 3.91782C100.669 3.91057 100.891 3.81978 101.062 3.66217C101.084 3.63715 101.112 3.61694 101.142 3.60274C101.173 3.58854 101.206 3.58064 101.24 3.57951C101.26 3.57862 101.28 3.58182 101.299 3.58892C101.318 3.59603 101.335 3.60689 101.349 3.62084C101.37 3.64016 101.387 3.66357 101.399 3.68962C101.411 3.71567 101.417 3.74383 101.417 3.77238C101.418 3.79781 101.413 3.82302 101.403 3.84642C101.393 3.86981 101.378 3.89089 101.359 3.90831C101.235 4.03262 101.088 4.13179 100.927 4.20037C100.736 4.28026 100.529 4.3148 100.323 4.30126C100.117 4.28771 99.9168 4.22644 99.7383 4.1223L99.7374 4.12138ZM101.348 2.76395C101.316 2.60213 101.242 2.4515 101.134 2.32669C101.026 2.20188 100.887 2.10714 100.731 2.05168C100.576 1.99622 100.409 1.98191 100.246 2.01016C100.083 2.03842 99.9304 2.10826 99.8027 2.2129C99.6288 2.35147 99.5089 2.54638 99.4636 2.76395H101.348Z" fill="white"/>
<path d="M104.502 4.06065C104.418 3.99868 104.348 3.9201 104.297 3.82985C104.245 3.7396 104.213 3.63963 104.201 3.53624C104.198 3.50906 104.2 3.48137 104.209 3.45548C104.219 3.42959 104.234 3.40627 104.254 3.38745C104.296 3.34768 104.353 3.32624 104.411 3.32775C104.434 3.32727 104.456 3.33189 104.477 3.34127C104.497 3.35065 104.516 3.36455 104.53 3.38194C104.564 3.42474 104.584 3.47651 104.588 3.53073C104.596 3.58353 104.615 3.63395 104.645 3.67828C104.675 3.72261 104.714 3.75975 104.76 3.78696C104.885 3.84966 105.023 3.87848 105.163 3.87054C105.365 3.87054 105.51 3.83564 105.598 3.76584C105.645 3.72451 105.682 3.6727 105.705 3.61461C105.728 3.55653 105.737 3.4938 105.731 3.43154C105.736 3.36035 105.713 3.29022 105.666 3.23591C105.621 3.18777 105.563 3.15286 105.499 3.13489C105.408 3.10828 105.316 3.08712 105.223 3.07151C105.077 3.04793 104.934 3.01041 104.795 2.95947C104.676 2.90979 104.576 2.82401 104.508 2.71425C104.419 2.55813 104.377 2.37942 104.388 2.19993C104.385 2.10866 104.403 2.01793 104.44 1.93447C104.477 1.85101 104.532 1.77694 104.602 1.71776C104.753 1.60247 104.936 1.53767 105.126 1.53255C105.316 1.52744 105.503 1.58229 105.66 1.68929C105.793 1.78667 105.882 1.93302 105.908 2.09615C105.912 2.12333 105.909 2.15102 105.9 2.17691C105.891 2.20279 105.876 2.22612 105.856 2.24494C105.835 2.26468 105.81 2.28012 105.783 2.29037C105.757 2.30061 105.728 2.30546 105.699 2.30463C105.678 2.30598 105.657 2.30246 105.637 2.29434C105.618 2.28622 105.6 2.27372 105.586 2.25779C105.556 2.21727 105.534 2.17106 105.521 2.12187C105.486 1.98594 105.365 1.9189 105.153 1.9189C105.051 1.91168 104.948 1.93707 104.86 1.99145C104.828 2.01527 104.802 2.04679 104.784 2.08318C104.767 2.11957 104.759 2.15969 104.761 2.19993C104.756 2.28722 104.782 2.37352 104.835 2.44331C104.883 2.50031 104.947 2.54184 105.018 2.56271C105.12 2.5922 105.224 2.61581 105.329 2.63343C105.47 2.65939 105.609 2.69686 105.743 2.74547C105.853 2.79073 105.946 2.86827 106.01 2.96773C106.092 3.10613 106.132 3.26611 106.122 3.42694C106.128 3.54069 106.108 3.65429 106.064 3.75925C106.02 3.86421 105.952 3.95783 105.867 4.0331C105.696 4.17913 105.459 4.25169 105.156 4.25169C104.923 4.26212 104.693 4.19494 104.502 4.06065Z" fill="white"/>
<path d="M95.4235 3.03083C95.3748 3.03083 95.328 3.01148 95.2936 2.97703C95.2591 2.94258 95.2397 2.89586 95.2397 2.84715V1.52646C95.2397 1.47774 95.2591 1.43102 95.2936 1.39657C95.328 1.36213 95.3748 1.34277 95.4235 1.34277C95.4723 1.34277 95.519 1.36213 95.5535 1.39657C95.5879 1.43102 95.6073 1.47774 95.6073 1.52646V2.84715C95.6073 2.89586 95.5879 2.94258 95.5535 2.97703C95.519 3.01148 95.4723 3.03083 95.4235 3.03083Z" fill="white"/>
<path d="M75.1465 4.09929C75.1106 4.0571 75.0913 4.00319 75.0923 3.94775V2.64267C75.0913 2.45699 75.1381 2.27416 75.2283 2.11183C75.3166 1.94935 75.4427 1.81044 75.5959 1.7068C75.7463 1.60352 75.9206 1.5403 76.1023 1.52312C76.1307 1.52077 76.1593 1.52474 76.186 1.53474C76.2127 1.54475 76.2368 1.56054 76.2567 1.58098C76.2766 1.60167 76.2922 1.62615 76.3024 1.65298C76.3127 1.6798 76.3174 1.70841 76.3164 1.73711C76.3172 1.75986 76.3125 1.78247 76.3025 1.80296C76.2926 1.82345 76.2778 1.8412 76.2594 1.85467C76.2167 1.88611 76.1662 1.90518 76.1133 1.90977C75.9374 1.93451 75.7765 2.02271 75.6612 2.15775C75.5418 2.28989 75.4762 2.46189 75.4774 2.63992V3.94867C75.4784 4.00411 75.4592 4.05802 75.4232 4.10021C75.4059 4.11975 75.3847 4.13541 75.3609 4.14613C75.3372 4.15685 75.3114 4.1624 75.2853 4.1624C75.2592 4.1624 75.2335 4.15685 75.2097 4.14613C75.1859 4.13541 75.1647 4.11975 75.1475 4.10021L75.1465 4.09929Z" fill="white"/>
<path d="M75.2917 3.03083C75.243 3.03083 75.1962 3.01148 75.1617 2.97703C75.1273 2.94258 75.1079 2.89586 75.1079 2.84715V1.52646C75.1079 1.47774 75.1273 1.43102 75.1617 1.39657C75.1962 1.36213 75.243 1.34277 75.2917 1.34277C75.3404 1.34277 75.3872 1.36213 75.4217 1.39657C75.4561 1.43102 75.4755 1.47774 75.4755 1.52646V2.84715C75.4755 2.89586 75.4561 2.94258 75.4217 2.97703C75.3872 3.01148 75.3404 3.03083 75.2917 3.03083Z" fill="white"/>
<path d="M71.1113 4.10023C71.0747 4.05835 71.055 4.00431 71.0562 3.9487V2.64362C71.0552 2.45793 71.102 2.27511 71.1922 2.11277C71.2803 1.95015 71.4064 1.8112 71.5598 1.70775C71.71 1.60417 71.8844 1.54092 72.0661 1.52406C72.0946 1.52178 72.1231 1.52578 72.1498 1.53578C72.1765 1.54578 72.2006 1.56153 72.2205 1.58192C72.241 1.60368 72.2569 1.62942 72.267 1.65755C72.2771 1.68567 72.2813 1.71558 72.2794 1.7454C72.28 1.76822 72.275 1.79086 72.265 1.81134C72.2549 1.83182 72.2399 1.84954 72.2215 1.86296C72.1789 1.8947 72.1283 1.9138 72.0753 1.91807C71.8997 1.94285 71.7392 2.03106 71.6241 2.16604C71.5044 2.29794 71.4387 2.47011 71.4403 2.64821V3.94961C71.4415 4.00523 71.4218 4.05927 71.3852 4.10115C71.3679 4.1207 71.3467 4.13635 71.323 4.14707C71.2992 4.1578 71.2734 4.16334 71.2473 4.16334C71.2213 4.16334 71.1955 4.1578 71.1717 4.14707C71.148 4.13635 71.1268 4.1207 71.1095 4.10115L71.1113 4.10023Z" fill="white"/>
<path d="M71.2561 3.03083C71.2073 3.03083 71.1606 3.01148 71.1261 2.97703C71.0916 2.94258 71.0723 2.89586 71.0723 2.84715V1.52646C71.0723 1.47774 71.0916 1.43102 71.1261 1.39657C71.1606 1.36213 71.2073 1.34277 71.2561 1.34277C71.3048 1.34277 71.3516 1.36213 71.386 1.39657C71.4205 1.43102 71.4399 1.47774 71.4399 1.52646V2.84715C71.4399 2.89586 71.4205 2.94258 71.386 2.97703C71.3516 3.01148 71.3048 3.03083 71.2561 3.03083Z" fill="white"/>
<path d="M86.5896 4.16968C86.5408 4.16968 86.4941 4.15033 86.4596 4.11588C86.4251 4.08143 86.4058 4.03471 86.4058 3.98599V2.66806C86.4058 2.61934 86.4251 2.57262 86.4596 2.53817C86.4941 2.50373 86.5408 2.48438 86.5896 2.48438C86.6383 2.48438 86.685 2.50373 86.7195 2.53817C86.754 2.57262 86.7733 2.61934 86.7733 2.66806V3.98599C86.7733 4.03471 86.754 4.08143 86.7195 4.11588C86.685 4.15033 86.6383 4.16968 86.5896 4.16968Z" fill="white"/>
<path d="M61.6062 33.1236C61.0733 32.8135 60.63 32.3704 60.3196 31.8379C60.0074 31.3084 59.8428 30.7051 59.8428 30.0906C59.8428 29.476 60.0074 28.8727 60.3196 28.3433C60.6307 27.8112 61.0738 27.3683 61.6062 27.0575C62.1369 26.7434 62.7428 26.5789 63.3596 26.5817C63.8285 26.58 64.2928 26.6738 64.7243 26.8573C65.1549 27.0407 65.5445 27.3083 65.8702 27.6443V23.8641C65.8701 23.7907 65.8845 23.718 65.9126 23.6502C65.9407 23.5824 65.982 23.5208 66.034 23.469C66.086 23.4172 66.1477 23.3762 66.2157 23.3483C66.2836 23.3204 66.3564 23.3063 66.4299 23.3066C66.4924 23.3065 66.554 23.3212 66.6097 23.3495C66.6655 23.3777 66.7138 23.4187 66.7506 23.4692C66.8382 23.5819 66.8839 23.7215 66.8802 23.8641V30.0919C66.8829 30.7062 66.7176 31.3096 66.4023 31.8369C66.0922 32.3697 65.6488 32.8128 65.1157 33.1227C64.5842 33.4348 63.9788 33.5993 63.3623 33.5993C62.7458 33.5993 62.1405 33.4348 61.609 33.1227L61.6062 33.1236ZM64.6223 32.2603C65.0033 32.0411 65.3194 31.7251 65.5386 31.3442C65.7578 30.9634 65.8722 30.5313 65.8702 30.0919C65.867 29.6526 65.7488 29.2218 65.5275 28.8422C65.3061 28.4627 64.9892 28.1476 64.6083 27.9283C64.2274 27.7089 63.7957 27.593 63.3561 27.5921C62.9165 27.5911 62.4843 27.705 62.1024 27.9226C61.7213 28.1403 61.4043 28.4545 61.1835 28.8337C60.9596 29.2151 60.8416 29.6493 60.8416 30.0915C60.8416 30.5337 60.9596 30.9678 61.1835 31.3493C61.5235 31.9223 62.0752 32.3389 62.7196 32.5093C63.364 32.6797 64.0496 32.5903 64.6287 32.2603H64.6223Z" fill="white"/>
<path d="M70.7926 33.1116C70.2791 32.7846 69.8588 32.3307 69.5723 31.7937C69.2761 31.2432 69.1211 30.6279 69.1211 30.0028C69.1211 29.3777 69.2761 28.7624 69.5723 28.2119C69.8587 27.6746 70.2791 27.2204 70.7926 26.893C71.2877 26.5746 71.864 26.4053 72.4528 26.4053C73.0415 26.4053 73.6178 26.5746 74.1129 26.893C74.6264 27.2204 75.0468 27.6746 75.3332 28.2119C75.6338 28.7614 75.7894 29.3784 75.7854 30.0046C75.7901 30.0743 75.7806 30.1442 75.7574 30.2101C75.7342 30.2759 75.6977 30.3363 75.6503 30.3876C75.6051 30.4318 75.5514 30.4663 75.4925 30.4892C75.4336 30.5121 75.3707 30.5228 75.3075 30.5208H70.1145C70.2133 31.0909 70.5053 31.6098 70.9415 31.9903C71.3747 32.3801 71.9422 32.587 72.5249 32.5675C73.1075 32.548 73.6599 32.3036 74.066 31.8856C74.1193 31.8195 74.186 31.7655 74.2617 31.727C74.3374 31.6885 74.4204 31.6665 74.5052 31.6624C74.5566 31.6599 74.6078 31.6687 74.6555 31.688C74.7031 31.7074 74.7459 31.7369 74.7809 31.7744C74.8874 31.8821 74.9478 32.0271 74.9491 32.1785C74.9509 32.3134 74.8998 32.4436 74.8067 32.5413C74.5048 32.8706 74.1402 33.1363 73.7342 33.3229C73.266 33.5379 72.7511 33.6314 72.2371 33.5948C71.7231 33.5582 71.2266 33.3926 70.7936 33.1135L70.7926 33.1116ZM74.7782 29.4811C74.6794 28.9124 74.39 28.3942 73.9576 28.0117C73.5462 27.6393 73.011 27.4331 72.456 27.4331C71.9009 27.4331 71.3657 27.6393 70.9544 28.0117C70.5179 28.3939 70.2222 28.9113 70.1145 29.4811H74.7782Z" fill="white"/>
<path d="M78.2793 33.0964C78.1891 32.9927 78.1409 32.859 78.1442 32.7217V24.2272C78.144 24.1576 78.1575 24.0887 78.184 24.0243C78.2105 23.96 78.2495 23.9015 78.2986 23.8523C78.3478 23.803 78.4063 23.764 78.4706 23.7374C78.535 23.7108 78.6039 23.6971 78.6735 23.6973C78.7328 23.6974 78.7911 23.7115 78.8438 23.7385C78.8965 23.7654 78.9421 23.8045 78.9768 23.8525C79.0601 23.9593 79.1036 24.0918 79.1 24.2272V32.7217C79.103 32.8592 79.0545 32.9928 78.9639 33.0964C78.9208 33.1445 78.8681 33.183 78.8091 33.2093C78.7501 33.2357 78.6862 33.2493 78.6216 33.2493C78.557 33.2493 78.4931 33.2357 78.4341 33.2093C78.3752 33.183 78.3224 33.1445 78.2793 33.0964Z" fill="white"/>
<path d="M66.0601 33.4451C65.9699 33.3414 65.9217 33.2077 65.925 33.0704V24.5759C65.9248 24.5064 65.9385 24.4376 65.965 24.3733C65.9916 24.3091 66.0306 24.2507 66.0797 24.2016C66.1289 24.1524 66.1873 24.1135 66.2516 24.0869C66.3159 24.0604 66.3847 24.0468 66.4543 24.0469C66.5136 24.0464 66.5722 24.0602 66.625 24.0873C66.6778 24.1143 66.7233 24.1537 66.7575 24.2021C66.8407 24.3087 66.8842 24.4408 66.8807 24.5759V33.0704C66.8843 33.2079 66.8357 33.3418 66.7447 33.4451C66.7016 33.4932 66.6488 33.5317 66.5898 33.558C66.5308 33.5844 66.467 33.598 66.4024 33.598C66.3378 33.598 66.2739 33.5844 66.2149 33.558C66.1559 33.5317 66.1031 33.4932 66.0601 33.4451Z" fill="white"/>
<path d="M119.682 33.4449C119.591 33.3416 119.543 33.2078 119.546 33.0702V26.9957C119.546 26.8552 119.602 26.7204 119.701 26.621C119.801 26.5216 119.936 26.4658 120.076 26.4658C120.136 26.4659 120.194 26.48 120.247 26.507C120.299 26.534 120.345 26.5731 120.38 26.621C120.463 26.728 120.506 26.8605 120.502 26.9957V33.0702C120.505 33.2075 120.457 33.3412 120.367 33.4449C120.324 33.493 120.271 33.5315 120.212 33.5578C120.153 33.5842 120.089 33.5978 120.024 33.5978C119.96 33.5978 119.896 33.5842 119.837 33.5578C119.778 33.5315 119.725 33.493 119.682 33.4449Z" fill="white"/>
<path d="M86.072 32.9989C85.5206 32.6756 85.2021 32.2422 85.1163 31.6984C85.1051 31.6277 85.115 31.5552 85.1445 31.4899C85.1741 31.4246 85.2221 31.3694 85.2826 31.3311C85.4281 31.2281 85.6035 31.1758 85.7816 31.1823C85.9217 31.1774 86.0584 31.226 86.1639 31.3182C86.2669 31.415 86.3321 31.5452 86.3477 31.6856C86.382 31.8278 86.4499 31.9597 86.5459 32.0702C86.6418 32.1806 86.763 32.2664 86.8991 32.3202C87.1987 32.458 87.6254 32.5269 88.1792 32.5269C88.8225 32.5269 89.2854 32.4405 89.5678 32.2679C89.8502 32.0952 89.9917 31.8197 89.9924 31.4413C89.9971 31.3499 89.9808 31.2586 89.9446 31.1745C89.9084 31.0904 89.8534 31.0158 89.7837 30.9564C89.6287 30.8315 89.4464 30.7449 89.2517 30.7038C89.036 30.6518 88.7395 30.6 88.3621 30.5486C87.9015 30.4913 87.4459 30.3992 86.9993 30.2731C86.6401 30.1644 86.3207 29.953 86.0803 29.6651C85.8242 29.365 85.6962 28.9392 85.6962 28.3875C85.6962 27.8977 85.9234 27.4997 86.378 27.1936C86.8326 26.8874 87.4201 26.7344 88.1406 26.7344C88.7729 26.7344 89.3077 26.8636 89.7451 27.1219C90.1826 27.3803 90.446 27.7171 90.5355 28.1322C90.5466 28.203 90.5368 28.2755 90.5072 28.3407C90.4777 28.406 90.4297 28.4612 90.3691 28.4996C90.2236 28.6026 90.0483 28.6548 89.8701 28.6484C89.7403 28.6573 89.6122 28.6155 89.5127 28.5317C89.4182 28.4373 89.3471 28.3222 89.305 28.1956C89.1941 27.8594 88.806 27.6914 88.1406 27.6914C87.7308 27.6914 87.4205 27.7526 87.2097 27.8751C87.1134 27.9227 87.0327 27.9967 86.9767 28.0884C86.9208 28.1801 86.8919 28.2857 86.8936 28.393C86.8869 28.5041 86.9042 28.6153 86.9443 28.7191C86.9845 28.8229 87.0464 28.9169 87.1261 28.9946C87.2941 29.1428 87.4977 29.245 87.717 29.2913C87.9547 29.3482 88.2843 29.4067 88.7058 29.4667C89.1522 29.5295 89.5939 29.6215 90.0282 29.7422C90.3567 29.8436 90.6504 30.0344 90.8764 30.2933C91.1147 30.5602 91.2339 30.9441 91.2339 31.445C91.2339 32.0836 90.9622 32.5838 90.4188 32.9457C89.8753 33.3075 89.1215 33.4885 88.1572 33.4885C87.3129 33.4854 86.6179 33.3222 86.072 32.9989Z" fill="white"/>
<path d="M94.3347 33.1124C93.8211 32.7854 93.4008 32.3314 93.1143 31.7945C92.8181 31.2439 92.6631 30.6286 92.6631 30.0035C92.6631 29.3785 92.8181 28.7632 93.1143 28.2126C93.4002 27.674 93.8206 27.2185 94.3347 26.8901C94.8297 26.5717 95.406 26.4023 95.9948 26.4023C96.5835 26.4023 97.1598 26.5717 97.6549 26.8901C98.1685 27.2175 98.5888 27.6717 98.8753 28.209C99.1759 28.7585 99.3315 29.3755 99.3274 30.0017C99.3323 30.0715 99.3228 30.1415 99.2994 30.2074C99.276 30.2733 99.2392 30.3336 99.1914 30.3847C99.1464 30.4289 99.0929 30.4634 99.0342 30.4863C98.9754 30.5092 98.9126 30.5199 98.8496 30.5179H93.6601C93.759 31.088 94.051 31.6068 94.4872 31.9873C94.9204 32.3772 95.4879 32.5841 96.0706 32.5646C96.6532 32.5451 97.2056 32.3006 97.6117 31.8826C97.6649 31.8166 97.7314 31.7626 97.807 31.7241C97.8825 31.6856 97.9654 31.6636 98.0501 31.6595C98.1014 31.657 98.1527 31.6658 98.2003 31.6851C98.2479 31.7045 98.2907 31.7339 98.3258 31.7715C98.4317 31.8795 98.4916 32.0244 98.493 32.1756C98.4951 32.3104 98.4443 32.4406 98.3515 32.5384C98.0492 32.8672 97.6847 33.1329 97.2791 33.32C96.8108 33.535 96.2959 33.6285 95.7818 33.5919C95.2678 33.5553 94.7714 33.3897 94.3383 33.1106L94.3347 33.1124ZM98.3239 29.4819C98.2252 28.9132 97.9358 28.395 97.5033 28.0124C97.0919 27.64 96.5567 27.4338 96.0017 27.4338C95.4467 27.4338 94.9114 27.64 94.5001 28.0124C94.0633 28.3944 93.7676 28.9119 93.6601 29.4819H98.3239Z" fill="white"/>
<path d="M107.339 28.2558C107.052 27.7243 106.634 27.2748 106.124 26.9498C105.627 26.6337 105.05 26.4658 104.461 26.4658C103.872 26.4658 103.295 26.6337 102.798 26.9498C102.286 27.273 101.865 27.7228 101.577 28.2558C101.28 28.8012 101.125 29.4122 101.125 30.033C101.125 30.6538 101.28 31.2647 101.577 31.8101C101.865 32.3435 102.285 32.7934 102.798 33.1161C103.294 33.4338 103.87 33.6018 104.458 33.6001C104.908 33.5998 105.352 33.5034 105.762 33.3175C106.172 33.1315 106.537 32.8603 106.833 32.5219L106.978 32.3694C107.452 31.8827 107.612 31.8836 107.789 31.4878V30.0321C107.793 29.4113 107.638 28.7998 107.339 28.2558ZM106.518 31.3123C106.317 31.6925 106.018 32.0124 105.653 32.239C105.294 32.46 104.88 32.577 104.458 32.577C104.036 32.577 103.623 32.46 103.263 32.239C102.896 32.0119 102.596 31.6923 102.391 31.3123C102.179 30.9193 102.068 30.4796 102.068 30.033C102.068 29.5863 102.179 29.1466 102.391 28.7536C102.595 28.3738 102.896 28.0547 103.263 27.8288C103.622 27.6067 104.036 27.489 104.458 27.489C104.88 27.489 105.294 27.6067 105.653 27.8288C106.019 28.0542 106.318 28.3736 106.518 28.7536C106.726 29.1481 106.835 29.5872 106.835 30.033C106.835 30.4787 106.726 30.9178 106.518 31.3123Z" fill="white"/>
<path d="M112.17 33.1097C111.704 32.8043 111.324 32.3839 111.067 31.8891C110.795 31.3789 110.654 30.8087 110.658 30.2304V26.9958C110.655 26.8604 110.698 26.728 110.782 26.621C110.817 26.573 110.864 26.5339 110.918 26.507C110.972 26.4801 111.031 26.4661 111.091 26.4661C111.151 26.4661 111.21 26.4801 111.264 26.507C111.317 26.5339 111.364 26.573 111.4 26.621C111.483 26.728 111.527 26.8604 111.523 26.9958V30.2304C111.52 30.6458 111.618 31.0556 111.809 31.4244C111.988 31.7773 112.259 32.076 112.592 32.2895C112.915 32.4959 113.29 32.6055 113.673 32.6055C114.056 32.6055 114.431 32.4959 114.753 32.2895C115.087 32.0752 115.359 31.7768 115.542 31.4244C115.736 31.0567 115.837 30.6464 115.833 30.2304V26.9958C115.83 26.8604 115.873 26.728 115.956 26.621C115.992 26.5725 116.039 26.5331 116.092 26.5062C116.146 26.4792 116.206 26.4654 116.266 26.4658C116.325 26.4653 116.384 26.4792 116.437 26.5062C116.489 26.5332 116.535 26.5726 116.569 26.621C116.649 26.7295 116.69 26.8613 116.686 26.9958V30.2304C116.69 30.8087 116.549 31.3789 116.277 31.8891C116.021 32.3841 115.641 32.8045 115.174 33.1097C114.729 33.4044 114.207 33.5615 113.673 33.5615C113.139 33.5615 112.617 33.4044 112.172 33.1097H112.17Z" fill="white"/>
<path d="M119.682 33.0963C119.592 32.9927 119.543 32.8591 119.546 32.7216V29.4943C119.544 29.0359 119.66 28.5847 119.882 28.1837C120.099 27.7825 120.409 27.4394 120.787 27.1835C121.158 26.9275 121.59 26.7718 122.039 26.7317C122.109 26.7249 122.18 26.7341 122.246 26.7586C122.312 26.7831 122.372 26.8222 122.421 26.8731C122.47 26.9248 122.508 26.9856 122.533 27.0521C122.559 27.1186 122.571 27.1895 122.569 27.2607C122.57 27.3169 122.558 27.3726 122.533 27.4232C122.509 27.4737 122.472 27.5175 122.427 27.5509C122.321 27.6286 122.196 27.6757 122.065 27.6868C121.63 27.7486 121.233 27.9663 120.947 28.2994C120.655 28.6279 120.496 29.0537 120.502 29.4933V32.7207C120.505 32.858 120.457 32.9917 120.367 33.0954C120.324 33.1435 120.271 33.182 120.212 33.2083C120.153 33.2347 120.089 33.2483 120.024 33.2483C119.96 33.2483 119.896 33.2347 119.837 33.2083C119.778 33.182 119.725 33.1435 119.682 33.0954V33.0963Z" fill="white"/>
<path d="M127.303 33.1115C126.789 32.7848 126.368 32.3308 126.082 31.7936C125.785 31.2431 125.63 30.6277 125.63 30.0027C125.63 29.3776 125.785 28.7623 126.082 28.2118C126.368 27.6743 126.789 27.22 127.303 26.8929C127.798 26.5746 128.374 26.4053 128.963 26.4053C129.551 26.4053 130.127 26.5746 130.622 26.8929C131.136 27.22 131.557 27.6743 131.843 28.2118C132.14 28.7623 132.295 29.3776 132.295 30.0027C132.295 30.6277 132.14 31.2431 131.843 31.7936C131.557 32.3308 131.136 32.7848 130.622 33.1115C130.127 33.4305 129.551 33.6002 128.963 33.6002C128.374 33.6002 127.798 33.4305 127.303 33.1115ZM130.157 32.2262C130.524 31.9974 130.823 31.6745 131.023 31.2912C131.231 30.893 131.34 30.4502 131.34 30.0008C131.34 29.5515 131.231 29.1087 131.023 28.7105C130.823 28.327 130.524 28.0041 130.157 27.7755C129.799 27.5523 129.385 27.4339 128.963 27.4339C128.54 27.4339 128.126 27.5523 127.768 27.7755C127.4 28.0048 127.099 28.3274 126.896 28.7105C126.684 29.1077 126.573 29.5508 126.573 30.0008C126.573 30.4509 126.684 30.894 126.896 31.2912C127.099 31.6741 127.4 31.9966 127.768 32.2262C128.126 32.4494 128.54 32.5678 128.963 32.5678C129.385 32.5678 129.799 32.4494 130.157 32.2262Z" fill="white"/>
<path d="M134.966 33.3129V29.8486H135.425V32.9015H137.131V33.3102L134.966 33.3129Z" fill="white"/>
<path d="M138.452 32.9329L138.513 33.3085C138.407 33.3318 138.3 33.3444 138.191 33.3462C138.067 33.3524 137.944 33.3271 137.832 33.2727C137.753 33.2304 137.69 33.1628 137.653 33.0807C137.608 32.9174 137.59 32.7476 137.601 32.5784V31.1346H137.289V30.8049H137.601V30.1831L138.023 29.9287V30.8049H138.452V31.1346H138.023V32.6041C138.018 32.6829 138.026 32.762 138.046 32.8383C138.061 32.8726 138.087 32.9014 138.119 32.9209C138.164 32.9437 138.214 32.9541 138.265 32.9512C138.328 32.9493 138.39 32.9432 138.452 32.9329Z" fill="white"/>
<path d="M141.338 33.3129V32.997C141.142 33.245 140.854 33.3693 140.475 33.3699C140.239 33.3722 140.005 33.3154 139.796 33.2045C139.596 33.1002 139.43 32.9409 139.317 32.7453C139.201 32.5374 139.142 32.3021 139.147 32.0639C139.144 31.8281 139.197 31.595 139.301 31.3833C139.401 31.1825 139.561 31.0182 139.76 30.914C139.973 30.8038 140.209 30.748 140.449 30.7514C140.619 30.7473 140.788 30.7786 140.946 30.8433C141.081 30.8996 141.202 30.9846 141.3 31.0922V29.8486H141.821V33.3102L141.338 33.3129ZM139.684 32.0611C139.684 32.3826 139.767 32.6223 139.934 32.7821C140.012 32.8586 140.104 32.919 140.205 32.9598C140.306 33.0006 140.414 33.0211 140.523 33.0199C140.63 33.0224 140.737 33.0035 140.837 32.9644C140.937 32.9253 141.028 32.8668 141.106 32.7922C141.265 32.6406 141.345 32.4083 141.345 32.0969C141.345 31.7534 141.264 31.5015 141.102 31.3411C141.023 31.2625 140.929 31.2007 140.826 31.1594C140.722 31.118 140.611 31.098 140.5 31.1004C140.392 31.0975 140.285 31.1165 140.185 31.1563C140.085 31.1961 139.994 31.2558 139.917 31.3319C139.763 31.4862 139.685 31.7293 139.685 32.0611H139.684Z" fill="white"/>
<path d="M144.186 33.0032C144.052 33.123 143.898 33.219 143.732 33.287C143.582 33.3429 143.423 33.3709 143.262 33.3697C142.987 33.3697 142.775 33.3017 142.627 33.1676C142.555 33.103 142.497 33.0234 142.459 32.9342C142.421 32.845 142.402 32.7485 142.405 32.6515C142.404 32.5341 142.432 32.4183 142.489 32.3153C142.541 32.2176 142.617 32.1338 142.708 32.071C142.802 32.0081 142.905 31.961 143.014 31.9314C143.139 31.9023 143.266 31.8811 143.393 31.8681C143.65 31.8443 143.904 31.7951 144.151 31.7211C144.151 31.6633 144.151 31.6293 144.151 31.61C144.151 31.4373 144.112 31.3152 144.031 31.2426C143.893 31.1368 143.72 31.0855 143.546 31.0984C143.392 31.0869 143.237 31.1235 143.103 31.2031C142.993 31.2994 142.918 31.4306 142.892 31.5751L142.477 31.5191C142.504 31.3629 142.567 31.2151 142.661 31.0874C142.759 30.9698 142.889 30.8823 143.035 30.8349C143.219 30.7717 143.411 30.7407 143.605 30.743C143.782 30.7371 143.959 30.7626 144.127 30.8183C144.241 30.8552 144.343 30.9207 144.423 31.0084C144.49 31.0931 144.535 31.1922 144.555 31.2977C144.573 31.4277 144.58 31.5588 144.577 31.6899V32.2566C144.57 32.5067 144.579 32.757 144.603 33.006C144.622 33.1117 144.658 33.2136 144.711 33.3072H144.267C144.222 33.2114 144.195 33.1085 144.186 33.0032ZM144.151 32.0545C143.926 32.1338 143.693 32.1874 143.456 32.2143C143.331 32.2287 143.208 32.2573 143.089 32.2997C143.021 32.3271 142.964 32.3741 142.923 32.4348C142.883 32.4954 142.862 32.5668 142.863 32.6395C142.862 32.6935 142.872 32.747 142.895 32.7961C142.917 32.8452 142.95 32.8887 142.991 32.9233C143.099 33.006 143.233 33.0462 143.368 33.0363C143.521 33.0392 143.671 33.0021 143.805 32.9288C143.927 32.863 144.026 32.7601 144.086 32.635C144.139 32.4997 144.162 32.3548 144.155 32.2097L144.151 32.0545Z" fill="white"/>
<path d="M145.686 33.3509C145.859 33.3509 146 33.2102 146 33.0368C146 32.8633 145.859 32.7227 145.686 32.7227C145.512 32.7227 145.372 32.8633 145.372 33.0368C145.372 33.2102 145.512 33.3509 145.686 33.3509Z" fill="white"/>
<path d="M104.499 36.4771C103.781 36.4776 103.083 36.2474 102.506 35.8204C102.406 35.7347 102.343 35.6133 102.332 35.482C102.32 35.3508 102.36 35.2201 102.443 35.1179C102.526 35.0156 102.646 34.95 102.777 34.9349C102.908 34.9197 103.04 34.9564 103.144 35.037C103.189 35.0728 104.155 35.8149 105.478 35.2611C106.823 34.6972 106.936 33.8587 106.936 33.1156V26.7317C106.936 26.5977 106.989 26.4692 107.084 26.3745C107.179 26.2798 107.307 26.2266 107.441 26.2266C107.575 26.2266 107.704 26.2798 107.799 26.3745C107.893 26.4692 107.947 26.5977 107.947 26.7317V33.1156C107.947 34.1434 107.711 35.4218 105.869 36.1924C105.436 36.3779 104.97 36.4748 104.499 36.4771Z" fill="white"/>
</g>
<defs>
<filter id="filter0_d" x="0" y="0" width="150" height="48" filterUnits="userSpaceOnUse" color-interpolation-filters="sRGB">
<feFlood flood-opacity="0" result="BackgroundImageFix"/>
<feColorMatrix in="SourceAlpha" type="matrix" values="0 0 0 0 0 0 0 0 0 0 0 0 0 0 0 0 0 0 127 0" result="hardAlpha"/>
<feOffset dy="4"/>
<feGaussianBlur stdDeviation="2"/>
<feColorMatrix type="matrix" values="0 0 0 0 0 0 0 0 0 0 0 0 0 0 0 0 0 0 0.25 0"/>
<feBlend mode="normal" in2="BackgroundImageFix" result="effect1_dropShadow"/>
<feBlend mode="normal" in="SourceGraphic" in2="effect1_dropShadow" result="shape"/>
</filter>
<clipPath id="clip0">
<rect width="142" height="40" fill="white" transform="translate(4)"/>
</clipPath>
</defs>
</svg>
