<?xml version="1.0" encoding="utf-8"?>
<!-- Generator: Adobe Illustrator 27.1.1, SVG Export Plug-In . SVG Version: 6.00 Build 0)  -->
<svg version="1.1" xmlns="http://www.w3.org/2000/svg" xmlns:xlink="http://www.w3.org/1999/xlink" x="0px" y="0px"
	 viewBox="0 0 590.98 119.32" style="enable-background:new 0 0 590.98 119.32;" xml:space="preserve">
<style type="text/css">
	.st0{display:none;}
	.st1{display:inline;fill:#604540;}
	.st2{fill:#FFFFFF;}
	.st3{font-family:'NordiquePro-Bold';}
	.st4{font-size:126.7014px;}
	.st5{fill-rule:evenodd;clip-rule:evenodd;fill:none;}
	.st6{fill-rule:evenodd;clip-rule:evenodd;fill:#FFFFFF;}
</style>
<g id="Fondo_pa_que_se_vea" class="st0">
	<rect x="-90.62" y="-95.15" class="st1" width="681.6" height="326.4"/>
</g>
<g id="Logo">
	<g>
		<path class="st2" d="M160.78,65.8c-16.48-8.7-16.48-34.77,0-43.47c13.39-8.12,33.04-0.74,36.92,14.67h-9.66
			c-6.55-15.28-31.45-9.7-30.66,7.07c-0.75,16.53,23.47,22.31,30.45,7.49h9.73C193.43,66.71,174.04,73.84,160.78,65.8z"/>
		<path class="st2" d="M201.55,68.57v-49h9.1v49H201.55z"/>
		<path class="st2" d="M246.35,33.57c-0.3,12.87,3.78,36.19-15.4,35.56c-19.17,0.64-15.11-22.72-15.4-35.56h9.1
			c1.11,5.95-3.85,27.68,6.3,26.67c10.14,1.03,5.2-20.78,6.3-26.67H246.35z"/>
		<path class="st2" d="M251.25,19.57h9.17v16.1c14.78-10.19,34.11,9.54,24.43,24.47c-6.34,11.82-24.87,11.87-31.18,0
			C249.16,54.45,252.01,26.44,251.25,19.57z M262.87,44.52c-8.35,8.22,4.49,21.66,12.81,13.09
			C283.84,49.33,271.3,35.97,262.87,44.52z"/>
		<path class="st2" d="M324.44,60.13c-8.42,15.84-34.25,8.83-33.63-9.07c-0.59-13.21,15.94-23.15,26.88-15.4v-16.1h9.17
			C326.14,26.59,328.88,54.33,324.44,60.13z M302.42,44.52c-8.16,8.28,4.38,21.64,12.81,13.09
			C323.58,49.39,310.74,35.96,302.42,44.52z"/>
		<path class="st2" d="M333.05,42.14c9.23-17.62,37.99-7.12,33.42,12.5H340.5c1.26,5.98,9.85,7.22,14,3.57l10.85,0.07
			C354.68,80.9,321.26,64.27,333.05,42.14z M357.02,47.36c-2.8-7.11-13.83-7.26-16.52,0H357.02z"/>
		<path class="st2" d="M370.6,68.57v-49h9.1v49H370.6z"/>
		<path class="st2" d="M390.76,67.76c-4.52-1.8-7.62-5.52-7.56-10.54h8.68c2.99,9.51,22.72-0.93,5.25-3.01
			c-8.81-0.27-17.86-7.25-11.65-16.07c6.9-8.5,27.04-6.71,26.84,6.34h-8.68c-3.11-8.76-20.23,1.26-4.27,2.87
			C425.45,50.33,411.15,76.04,390.76,67.76z"/>
		<path class="st2" d="M418.79,42.14c9.23-17.62,37.99-7.12,33.42,12.5h-25.97c1.26,5.98,9.85,7.22,14,3.57l10.85,0.07
			C440.43,80.9,407.01,64.27,418.79,42.14z M442.77,47.36c-2.8-7.11-13.83-7.26-16.52,0H442.77z"/>
		<path class="st2" d="M464.12,79.59c-2.99-1.98-5.18-4.61-6.58-7.88h11.06c4.54,3.95,14.28,1.78,14.21-4.9
			c-15.27,9.29-33.83-9.73-24.39-24.82c6.33-11.84,24.96-11.85,31.29,0c3.69,5.19,2.09,16.52,2.42,22.51
			C492.64,78.46,475.46,87.65,464.12,79.59z M480.5,57.61c8.16-8.28-4.38-21.64-12.81-13.09C459.33,52.75,472.18,66.18,480.5,57.61z
			"/>
		<path class="st2" d="M527.12,33.57c-0.3,12.87,3.78,36.19-15.4,35.56c-19.17,0.64-15.11-22.72-15.4-35.56h9.1
			c1.11,5.95-3.85,27.68,6.3,26.67c10.14,1.03,5.2-20.78,6.3-26.67H527.12z"/>
		<path class="st2" d="M531.32,50.16c-0.18-10.32,5.49-16.88,15.4-16.73v8.89c-4.82-0.11-6.3,3-6.3,7.84c0,0,0,18.41,0,18.41h-9.1
			V50.16z"/>
		<path class="st2" d="M576.29,35.42c20.4,11.93,2.38,43.05-18.13,31.29C537.77,54.79,555.79,23.66,576.29,35.42z M560.86,44.52
			c-8.35,8.22,4.49,21.66,12.81,13.09C581.82,49.33,569.29,35.97,560.86,44.52z"/>
	</g>
	<text transform="matrix(1.0509 0 0 1 1.4328 90.9054)" class="st2 st3 st4">1</text>
	<g>
		<path class="st2" d="M11.73,113.98c-0.08-0.1-0.27-2.34-0.51-2.22c-0.13,0.08-3.01-0.15-3.03,0.09c-0.14,0.21-0.23,2.51-0.72,2.38
			c-0.17-0.16-3.22,0.34-2.94-0.29c0,0,3.41-14.87,3.41-14.87c-0.16-0.43,3.9-0.37,3.73,0c0,0,3.38,14.87,3.38,14.87
			C15.55,114.42,11.44,114.35,11.73,113.98z M8.81,109.36c0.06-0.07,2.2,0.14,2.09-0.11c-0.07-0.07-0.88-5.75-1.04-5.74
			C9.8,103.58,8.49,109.4,8.81,109.36z"/>
		<path class="st2" d="M17.74,114.15c-0.24-0.16,0-14.85-0.08-15.06c-0.11-0.56,2.98-0.14,3.2-0.26c0.56-0.17,3.02,8.71,3.43,8.43
			c0.12-0.21-0.31-8.59,0.28-8.43c0.21,0.16,3.04-0.31,2.94,0.26c-0.26,0.26,0.5,15.21-0.28,15.14c-0.25-0.14-3.24,0.27-3.24-0.22
			c0,0-2.99-8.25-2.99-8.25c-0.37-0.45,0,8.22-0.12,8.21C20.9,114.48,17.98,114.2,17.74,114.15z M22.85,96.69
			c-0.57-0.39-1.36-0.65-1.81,0.09c-0.11,0.15-0.24,0.18-0.39,0.09c-2.01-0.75-0.59-2.5,0.95-2.53c1.73,0.12,1.9,1.58,3.66,0.35
			C27.87,95.79,24.37,97.92,22.85,96.69z"/>
		<path class="st2" d="M31.63,113.21c-1.92-1.08-1.92-12.28,0-13.38c2.65-2.46,8.39-1.02,8.11,3.17c0,0,0,7.04,0,7.04
			C40.02,114.23,34.28,115.67,31.63,113.21z M36.08,111.31c0.78-0.48,0.24-7.63,0.39-8.44c0.14-2.04-3-2.05-2.85,0
			C34.09,104.31,32.05,113.96,36.08,111.31z"/>
		<path class="st2" d="M44.49,113.9c-1.64-0.76-2.45-2.69-2.05-4.41c-0.04-0.14,2.78-0.06,2.86-0.08c0.62,0.25,0.03,1.52,0.64,1.91
			c1.36,1.42,3.06-0.95,1.76-2.14c-2.87-1.93-7.87-5.72-4.18-9.41c2.81-2.55,8.39-0.6,7.76,3.63c0.1,0.54-2.72,0.16-2.94,0.26
			c-0.41,0.02-0.25-0.63-0.28-0.86c-0.13-2.92-3.94-0.9-2.11,1.12c1.26,1.39,4.2,2.69,5.01,4.42
			C52.94,112.4,48.13,115.84,44.49,113.9z"/>
		<path class="st2" d="M60.24,113.27c-1.27-1.02-1.45-3.16-1.17-4.71c-0.05-0.14,2.84-0.05,2.91-0.08c0.53-0.06,0.19,1.59,0.28,1.83
			c-0.13,1.88,2.72,1.86,2.59,0c0,0,0-11.22,0-11.22c-0.09-0.56,2.76-0.14,2.99-0.26c0.64-0.15,0.11,11.22,0.28,11.44
			C68.34,114.27,62.78,115.6,60.24,113.27z"/>
		<path class="st2" d="M72.39,113.16c-2.34-1.71-0.88-11.6-1.26-14.07c0-0.15,0.13-0.27,0.28-0.26c0.25,0.15,3.06-0.3,2.99,0.26
			c0,0,0,11.07,0,11.07c-0.15,2.05,2.82,2.07,2.66,0c0.08-0.2-0.15-11.11,0.08-11.25c0.23-0.07,3.21-0.32,3.19,0.19
			C80.12,104.46,82.52,118.98,72.39,113.16z"/>
		<path class="st2" d="M83.3,114.15c-0.24-0.16,0-14.85-0.08-15.06c-0.11-0.56,2.98-0.14,3.2-0.26c0.56-0.17,3.02,8.71,3.43,8.43
			c0.12-0.21-0.31-8.59,0.28-8.43c0.21,0.16,3.04-0.31,2.94,0.26c-0.26,0.26,0.5,15.21-0.28,15.14c-0.25-0.14-3.24,0.27-3.24-0.22
			c0,0-2.99-8.25-2.99-8.25c-0.37-0.45,0,8.22-0.12,8.21C86.45,114.48,83.54,114.2,83.3,114.15z"/>
		<path class="st2" d="M105.32,98.9c0.09,0.22,0.31,2.64-0.2,2.58c-0.08,0.09-3.09-0.17-3.01,0.11c0,0,0,12.36,0,12.36
			c0.24,0.45-3.52,0.4-3.27,0c-0.11-0.11,0.22-12.52-0.12-12.47c-2.7-0.23-3.3,1.06-3.06-2.4C95.66,98.53,104.95,98.85,105.32,98.9z
			"/>
		<path class="st2" d="M108.62,113.21c-1.92-1.08-1.92-12.28,0-13.38c2.65-2.46,8.39-1.02,8.11,3.17c0,0,0,7.04,0,7.04
			C117.01,114.23,111.27,115.67,108.62,113.21z M113.07,111.31c0.78-0.48,0.24-7.63,0.39-8.44c0.14-2.04-3-2.05-2.85,0
			C111.08,104.31,109.05,113.96,113.07,111.31z"/>
		<path class="st2" d="M121.48,113.9c-1.64-0.76-2.45-2.69-2.05-4.41c-0.04-0.14,2.78-0.06,2.86-0.08c0.62,0.25,0.03,1.52,0.64,1.91
			c1.36,1.42,3.06-0.95,1.76-2.14c-2.87-1.93-7.87-5.72-4.18-9.41c2.81-2.55,8.39-0.6,7.76,3.63c0.1,0.54-2.72,0.16-2.94,0.26
			c-0.41,0.02-0.25-0.63-0.28-0.86c-0.13-2.92-3.94-0.9-2.11,1.12c1.26,1.39,4.2,2.69,5.01,4.42
			C129.94,112.4,125.12,115.84,121.48,113.9z"/>
	</g>
</g>
<g id="Ootroo">
	<g id="Auto_00000116204294685366927390000008614003765511768197_">
		<path class="st5" d="M59.72,32.2c-1.26-0.09-3.19,0.46-3.79,1.34c-2.51,3.68,3.87,3.16,5.66,3.24c-1.16,0.99-5.59,5.64-5.86,6.75
			c-0.3,1.23-0.3,11.08-0.32,13.19c-0.04,3.06-0.75,10.27,1.91,11.25c0.76,0.28,5.03,0.31,5.96,0.11c2.2-0.49,1.73-2.5,1.83-4.88
			c7.74-0.54,36.26-0.54,43.97,0c0.09,2.22-0.35,4.22,1.57,4.82c0.93,0.29,5.38,0.26,6.21-0.04c3.3-1.21,1.59-13.27,1.66-17.38
			c0.12-7.19-0.1-9.21-5.92-13.81c1.9-0.09,7.62,0.6,5.8-3.01c-0.55-1.09-4.05-2.46-5.34-0.95c-2.62,3.06-2.34-0.23-4.73-3.68
			c-2.78-5.58-3.48-5.48-12.2-5.39c-2.88-0.13-5.98-0.24-8.85-0.25c-2.98-0.01-14.47,0.35-16.95,0.93
			c-2.42,0.05-5.61,6.33-6.74,8.56C61.8,36.47,62.12,32.38,59.72,32.2L59.72,32.2z"/>
		<ellipse class="st6" cx="68.16" cy="50.67" rx="2.83" ry="2.83"/>
		<ellipse class="st6" cx="105.46" cy="50.67" rx="2.83" ry="2.83"/>
		<g>
			<path class="st6" d="M97.26,48.12H76.92c-0.34,0.14-0.57,0.48-0.57,0.85c0,0.37,0.22,0.71,0.57,0.85c6.78,0,13.57,0,20.35,0
				c0.34-0.14,0.57-0.48,0.57-0.85C97.83,48.6,97.61,48.26,97.26,48.12z"/>
			<path class="st6" d="M97.26,48.12H76.92c-0.34,0.14-0.57,0.48-0.57,0.85c0,0.37,0.22,0.71,0.57,0.85c6.78,0,13.57,0,20.35,0
				c0.34-0.14,0.57-0.48,0.57-0.85C97.83,48.6,97.61,48.26,97.26,48.12z"/>
		</g>
		<g>
			<path class="st6" d="M97.26,52.37H76.92c-0.34,0.14-0.57,0.48-0.57,0.85c0,0.37,0.22,0.71,0.57,0.85c6.78,0,13.57,0,20.35,0
				c0.34-0.14,0.57-0.48,0.57-0.85C97.83,52.85,97.61,52.51,97.26,52.37z"/>
			<path class="st6" d="M97.26,52.37H76.92c-0.34,0.14-0.57,0.48-0.57,0.85c0,0.37,0.22,0.71,0.57,0.85c6.78,0,13.57,0,20.35,0
				c0.34-0.14,0.57-0.48,0.57-0.85C97.83,52.85,97.61,52.51,97.26,52.37z"/>
		</g>
		<path class="st6" d="M66.8,36.52h40.7c-0.43-1.57-0.99-3.28-1.7-5.09c-0.74-1.9-1.54-3.6-2.32-5.09c-5-0.54-10.59-0.89-16.67-0.85
			c-5.4,0.03-10.39,0.36-14.92,0.85c-0.91,1.22-1.9,2.73-2.83,4.53C67.99,32.94,67.28,34.88,66.8,36.52z"/>
	</g>
	<path class="st2" d="M57.59,10.75c-3.93,3.24-6.56,6.5-8.21,8.88c-0.68,0.98-2.49,3.68-4.17,7.55c-0.56,1.29-2.21,5.24-3.19,10.71
		c-0.42,2.37-1.06,6.08-0.7,10.9c0.18,2.34,0.52,4.12,0.81,5.55c0.42,2.09,1.08,5.33,2.72,9.28c0.51,1.21,2.02,4.67,4.85,8.65
		c0.72,1.02,2.71,3.72,5.86,6.74c3.07,2.94,5.75,4.75,6.4,5.18c1.4,0.93,4.9,3.13,9.89,4.88c2.5,0.88,9.1,2.94,17.68,2.51
		c4.42-0.22,7.82-1.04,9.15-1.39c1.65-0.43,5.36-1.5,9.7-3.79c3.69-1.95,6.32-3.98,7.66-5.07c0.67-0.55,2.55-2.13,4.71-4.47
		c1.87-2.03,3.13-3.74,3.54-4.31c0.67-0.93,3.22-4.54,5.26-9.69c3.45-8.7,3.34-16.48,3.27-18.55c-0.1-3.19-0.66-10.03-4.2-17.74
		c-2.51-5.46-5.5-9.15-6.9-10.76c-1.12-1.29-4.31-4.82-9.42-8.18c-4.29-2.82-8.11-4.33-10.24-5.07c-4.7-1.64-8.62-2.15-10.63-2.35
		c-2.32-0.22-7.01-0.49-12.78,0.6c-1.04,0.2-4.35,0.86-8.36,2.43c-3.98,1.55-6.63,3.2-7.25,3.63c-0.1,0.07-0.55,0.39-1.2,0.82
		c-0.82,0.54-1.25,0.82-1.25,0.82c-0.48,0.31-0.69,0.43-1.01,0.68c-0.29,0.23-0.4,0.35-0.63,0.55
		C58.15,10.47,57.76,10.52,57.59,10.75c-0.7,0.94,2.71,4.13,6.38,8.75c1.52,1.91,2.16,2.94,3.72,3.64c1.87,0.83,3.6,0.66,4.79,0.54
		c0,0,7.37-0.74,19.85-0.12c0.48,0.02,1.56,0.09,3.07,0.09c2.11,0.01,2.39-0.11,4.14-0.09c3.39,0.04,4.46,0.5,5.01,0.78
		c0.85,0.44,1.4,0.96,1.53,1.07c0.53,0.51,0.92,1.18,1.69,2.51c0.27,0.47,0.78,1.36,1.34,2.51c0.38,0.77,0.57,1.16,0.62,1.27
		c0.36,0.8,0.44,1.11,0.74,1.49c0.33,0.41,0.72,0.66,1,0.8c0.2-0.07,0.5-0.2,0.82-0.42c0.7-0.5,0.66-0.91,1.2-1.24
		c0.52-0.32,1.09-0.26,1.76-0.2c0.76,0.07,1.3,0.31,1.43,0.36c0.49,0.21,1.8,0.79,2.02,1.98c0.03,0.17,0.13,0.72-0.16,1.22
		c-0.47,0.8-1.61,0.89-3.65,1.04c-0.95,0.07-1.73,0.07-2.23,0.05c0.79,0.51,4.13,2.75,5.18,5.98c0.27,0.83,0.61,2.43,0.71,4.22
		c0.04,0.65-0.07,1.06,0.02,1.76c0.14,1.13-0.01,1.38,0.11,5.31c0.03,1.01,0.26,8.06,0.02,10.5c-0.01,0.1-0.08,0.72-0.33,1.49
		c-0.2,0.61-0.36,1.11-0.76,1.49c-0.16,0.16-0.49,0.41-1.65,0.62c-0.71,0.13-1.12,0.07-3.34,0.09c-1.26,0.01-1.7-0.03-2.18-0.29
		c-0.17-0.09-0.76-0.41-1.07-1.06c-0.11-0.23-0.16-0.45-0.2-0.62c-0.07-0.32-0.08-0.62-0.09-1.22c-0.01-0.57,0.01-0.62-0.02-0.93
		c-0.02-0.19-0.04-0.3-0.04-0.51c0.01-0.25,0.04-0.31,0-0.38c-0.11-0.19-0.51-0.15-0.85-0.13c-0.48,0.03-0.97-0.04-1.45-0.04
		c-0.86,0.01-1.35-0.07-1.87-0.09c-6.12-0.28-19.95-0.22-19.95-0.22c-7.92,0.03-10.14,0.09-11.69,0.13
		c-3.28,0.09-6.03,0.21-8.04,0.31c0,0.95-0.04,1.74-0.08,2.32c-0.09,1.19-0.19,1.56-0.46,1.86c-0.3,0.32-0.68,0.42-1.32,0.53
		c-1.44,0.25-2.46,0.41-4.21,0.26c-1.27-0.11-1.92-0.18-2.42-0.6c-0.55-0.46-0.73-1.06-0.98-1.88c-0.25-0.82-0.34-1.57-0.38-3.06
		c-0.04-1.35-0.01-2.36,0-2.86c0,0,0.07-2.64,0.08-5.38c0.01-2.43-0.04-2.32,0-4.09c0.04-2.08,0.12-2.43,0.11-3.79
		c0-0.6,0.08-1.2,0.05-1.8c-0.01-0.3-0.05-0.69,0.11-1.15c0.12-0.35,0.29-0.59,0.38-0.71c1.55-2.08,3.19-3.79,3.19-3.79
		c0.86-0.91,1.3-1.36,1.36-1.42c0.56-0.5,0.84-0.67,0.79-0.82c-0.09-0.3-1.31,0.06-3-0.14c-1.05-0.12-2.6-0.3-3-1.26
		c-0.35-0.86,0.42-1.87,0.49-1.96c0.48-0.62,1.14-0.83,1.77-1.04c0.65-0.21,1.17-0.23,1.55-0.25c0.64-0.03,0.96-0.04,1.31,0.14
		c0.46,0.23,0.76,0.67,0.95,0.95c0.21,0.32,0.3,0.54,0.6,0.82c0.19,0.17,0.37,0.28,0.5,0.34c0.41-0.68,0.98-1.67,1.66-2.88
		c0.53-0.95,0.64-1.26,1.1-2.03c0.13-0.22,0.69-1.15,1.55-2.34c0.95-1.3,1.45-1.78,1.85-2.11c0.46-0.38,0.85-0.61,1.33-0.75
		c0.08-0.02,0.27-0.07,0.96-0.15c0.82-0.09,1.4-0.11,1.4-0.11c1.49-0.06,2.98-0.2,4.47-0.29c1.76-0.11,1.72-0.11,2.05-0.13
		c1.32-0.06,2.06-0.06,3.16-0.09c1.8-0.04,2.62-0.11,3.67-0.15c1.5-0.06,3.7-0.08,6.59,0.11"/>
</g>
</svg>
