<svg width="54" height="54" viewBox="0 0 54 54" fill="none" xmlns="http://www.w3.org/2000/svg">
<path d="M4.5 37.3185L12.5685 29.25H33.75C34.9435 29.25 36.0881 28.7759 36.932 27.932C37.7759 27.0881 38.25 25.9435 38.25 24.75V13.5C38.25 12.3065 37.7759 11.1619 36.932 10.318C36.0881 9.47411 34.9435 9 33.75 9H9C7.80653 9 6.66193 9.47411 5.81802 10.318C4.97411 11.1619 4.5 12.3065 4.5 13.5V37.3185ZM4.5 40.5H2.25V13.5C2.25 11.7098 2.96116 9.9929 4.22703 8.72703C5.4929 7.46116 7.20979 6.75 9 6.75H33.75C35.5402 6.75 37.2571 7.46116 38.523 8.72703C39.7888 9.9929 40.5 11.7098 40.5 13.5V24.75C40.5 26.5402 39.7888 28.2571 38.523 29.523C37.2571 30.7888 35.5402 31.5 33.75 31.5H13.5L4.5 40.5ZM47.25 46.3185V22.5C47.25 21.3065 46.7759 20.1619 45.932 19.318C45.0881 18.4741 43.9435 18 42.75 18V15.75C44.5402 15.75 46.2571 16.4612 47.523 17.727C48.7888 18.9929 49.5 20.7098 49.5 22.5V49.5H47.25L38.25 40.5H18C16.6759 40.5003 15.381 40.1112 14.2764 39.381C13.1718 38.6509 12.3063 37.612 11.7877 36.3937L13.581 34.6005C13.7787 35.6276 14.3279 36.5537 15.1344 37.2197C15.9408 37.8857 16.9541 38.25 18 38.25H39.1815L47.25 46.3185Z" fill="black"/>
</svg>
