<svg width="22" height="15" viewBox="0 0 22 15" fill="none" xmlns="http://www.w3.org/2000/svg">
<path d="M20.6196 9C21.2291 9 21.8386 9.6 21.8386 10.3V13.8C21.8386 14.4 21.2291 15 20.5181 15H14.931C14.3215 15 13.712 14.4 13.712 13.7V10.2C13.712 9.6 14.3215 9 14.931 9V7.5C14.931 6.1 16.3532 5 17.7753 5C19.1975 5 20.6196 6.1 20.6196 7.5V9ZM19.2991 9V7.5C19.2991 6.7 18.588 6.2 17.7753 6.2C16.9627 6.2 16.2516 6.7 16.2516 7.5V9H19.2991ZM0.506348 0H18.7912V3.1L17.7753 3C16.9424 3 16.1602 3.2 15.4694 3.54C15.0123 3.18 14.7279 2.62 14.7279 2H4.56964C4.56964 3.11 3.66556 4 2.53799 4V8C3.07682 8 3.59358 8.21071 3.97458 8.58579C4.35559 8.96086 4.56964 9.46957 4.56964 10H11.721L11.6804 10.5V12H0.506348V0ZM9.64875 3C11.335 3 12.6962 4.34 12.6962 6C12.6962 7.66 11.335 9 9.64875 9C7.96249 9 6.60128 7.66 6.60128 6C6.60128 4.34 7.96249 3 9.64875 3Z" fill="black"/>
</svg>
