<svg width="58" height="58" viewBox="0 0 58 58" fill="none" xmlns="http://www.w3.org/2000/svg">
<path d="M29.0007 4.8335C15.6752 4.8335 4.83398 15.6747 4.83398 29.0002C4.83398 42.3257 15.6752 53.1668 29.0007 53.1668C42.3262 53.1668 53.1673 42.3257 53.1673 29.0002C53.1673 15.6747 42.3262 4.8335 29.0007 4.8335ZM29.0007 48.3335C18.3407 48.3335 9.66732 39.6601 9.66732 29.0002C9.66732 18.3402 18.3407 9.66683 29.0007 9.66683C39.6606 9.66683 48.334 18.3402 48.334 29.0002C48.334 39.6601 39.6606 48.3335 29.0007 48.3335Z" fill="#FF521B"/>
<path d="M24.1636 32.8353L18.6076 27.2891L15.1953 30.7111L24.1684 39.6648L40.3746 23.4587L36.9574 20.0415L24.1636 32.8353Z" fill="#FF521B"/>
</svg>
