<svg width="67" height="67" viewBox="0 0 67 67" fill="none" xmlns="http://www.w3.org/2000/svg">
<path d="M33.5 0C42.3848 0 50.9056 3.52945 57.1881 9.81192C63.4705 16.0944 67 24.6152 67 33.5C67 42.3848 63.4705 50.9056 57.1881 57.1881C50.9056 63.4705 42.3848 67 33.5 67C24.6152 67 16.0944 63.4705 9.81192 57.1881C3.52945 50.9056 0 42.3848 0 33.5C0 24.6152 3.52945 16.0944 9.81192 9.81192C16.0944 3.52945 24.6152 0 33.5 0ZM33.5 3.52632C25.5505 3.52632 17.9266 6.68425 12.3054 12.3054C6.68425 17.9266 3.52632 25.5505 3.52632 33.5C3.52632 41.4495 6.68425 49.0734 12.3054 54.6946C17.9266 60.3158 25.5505 63.4737 33.5 63.4737C41.4495 63.4737 49.0734 60.3158 54.6946 54.6946C60.3158 49.0734 63.4737 41.4495 63.4737 33.5C63.4737 25.5505 60.3158 17.9266 54.6946 12.3054C49.0734 6.68425 41.4495 3.52632 33.5 3.52632ZM31.7368 49.3684V42.3158H35.2632V49.3684H31.7368ZM31.7368 35.2632V17.6316H35.2632V35.2632H31.7368Z" fill="#FF521B"/>
</svg>
