<svg width="51" height="51" viewBox="0 0 51 51" fill="none" xmlns="http://www.w3.org/2000/svg">
<path d="M40.2636 40.2632C41.6874 40.2632 43.0529 40.8288 44.0596 41.8355C45.0664 42.8423 45.632 44.2078 45.632 45.6316C45.632 47.0554 45.0664 48.4209 44.0596 49.4276C43.0529 50.4344 41.6874 51 40.2636 51C38.8398 51 37.4743 50.4344 36.4675 49.4276C35.4607 48.4209 34.8951 47.0554 34.8951 45.6316C34.8951 44.2078 35.4607 42.8423 36.4675 41.8355C37.4743 40.8288 38.8398 40.2632 40.2636 40.2632ZM40.2636 42.9474C39.5517 42.9474 38.8689 43.2302 38.3655 43.7336C37.8621 44.2369 37.5793 44.9197 37.5793 45.6316C37.5793 46.3435 37.8621 47.0262 38.3655 47.5296C38.8689 48.033 39.5517 48.3158 40.2636 48.3158C40.9755 48.3158 41.6582 48.033 42.1616 47.5296C42.665 47.0262 42.9478 46.3435 42.9478 45.6316C42.9478 44.9197 42.665 44.2369 42.1616 43.7336C41.6582 43.2302 40.9755 42.9474 40.2636 42.9474ZM16.1054 40.2632C17.5292 40.2632 18.8947 40.8288 19.9015 41.8355C20.9083 42.8423 21.4739 44.2078 21.4739 45.6316C21.4739 47.0554 20.9083 48.4209 19.9015 49.4276C18.8947 50.4344 17.5292 51 16.1054 51C14.6816 51 13.3161 50.4344 12.3093 49.4276C11.3026 48.4209 10.7369 47.0554 10.7369 45.6316C10.7369 44.2078 11.3026 42.8423 12.3093 41.8355C13.3161 40.8288 14.6816 40.2632 16.1054 40.2632ZM16.1054 42.9474C15.3935 42.9474 14.7108 43.2302 14.2074 43.7336C13.704 44.2369 13.4212 44.9197 13.4212 45.6316C13.4212 46.3435 13.704 47.0262 14.2074 47.5296C14.7108 48.033 15.3935 48.3158 16.1054 48.3158C16.8173 48.3158 17.5001 48.033 18.0035 47.5296C18.5069 47.0262 18.7897 46.3435 18.7897 45.6316C18.7897 44.9197 18.5069 44.2369 18.0035 43.7336C17.5001 43.2302 16.8173 42.9474 16.1054 42.9474ZM45.632 8.05263H8.78551L15.6223 24.1579H37.5793C37.9967 24.1585 38.4084 24.0612 38.7814 23.8738C39.1543 23.6864 39.4781 23.4141 39.7267 23.0788L47.7794 12.342H47.7821C48.0798 11.943 48.2607 11.4691 48.3045 10.9732C48.3484 10.4773 48.2534 9.97905 48.0304 9.53402C47.8073 9.08899 47.4648 8.71477 47.0413 8.45316C46.6178 8.19156 46.1298 8.05288 45.632 8.05263ZM37.5793 26.8421H15.7457L13.6896 31.0295L13.4212 32.2105C13.4212 32.9224 13.704 33.6052 14.2074 34.1086C14.7108 34.6119 15.3935 34.8947 16.1054 34.8947H45.632V37.5789H16.1054C15.1707 37.5794 14.252 37.3358 13.4403 36.8722C12.6286 36.4086 11.9521 35.7412 11.4775 34.9358C11.003 34.1305 10.747 33.2152 10.7348 32.2806C10.7226 31.3459 10.9547 30.4243 11.408 29.6068L13.3407 25.6503L3.59151 2.68421H0V0H5.36847L7.64739 5.36842H45.632C46.6463 5.36852 47.6399 5.65596 48.4975 6.19745C49.3552 6.73894 50.0419 7.51233 50.4781 8.42803C50.9144 9.34373 51.0823 10.3643 50.9624 11.3715C50.8425 12.3786 50.4397 13.3313 49.8007 14.1189L41.9788 24.5498C41.4842 25.2579 40.826 25.8361 40.06 26.2352C39.2941 26.6343 38.443 26.8425 37.5793 26.8421Z" fill="#FC8100"/>
</svg>
